<?xml version="1.0" encoding="utf-8"?>
<!-- Generator: Adobe Illustrator 19.2.1, SVG Export Plug-In . SVG Version: 6.00 Build 0)  -->
<svg version="1.1" xmlns="http://www.w3.org/2000/svg" xmlns:xlink="http://www.w3.org/1999/xlink" x="0px" y="0px"
	 viewBox="0 0 26 156" style="enable-background:new 0 0 26 156;" xml:space="preserve">
<style type="text/css">
	.st0{display:none;}
	.st1{display:inline;}
	.st2{fill:#4C4C4C;}
	.st3{clip-path:url(#SVGID_4_);fill:#4C4C4C;}
	.st4{clip-path:url(#SVGID_7_);fill:#4C4C4C;}
	.st5{clip-path:url(#SVGID_10_);fill:#4C4C4C;}
	.st6{clip-path:url(#SVGID_14_);fill:#4C4C4C;}
	.st7{clip-path:url(#SVGID_16_);fill:#4C4C4C;}
	.st8{clip-path:url(#SVGID_18_);fill:#4C4C4C;}
	.st9{clip-path:url(#SVGID_20_);fill:#4C4C4C;}
	.st10{fill:none;}
</style>
<g id="Layer_2_1_" class="st0">
</g>
<g id="Layer_1" class="st0">
	<g id="Layer_2" class="st1">
		<g>
			<g>
				<g>
					<path id="SVGID_1_" class="st2" d="M16.7,93c-1-0.8-2-1.3-2.3-1.4C14.2,91.5,14,91.3,14,91v-1.9c0-0.2,0.1-0.4,0.3-0.5
						c0.1-0.1,0.1-0.2,0.1-0.3v-2c0-0.7-0.5-1.2-1.2-1.2h-0.4c-0.7,0-1.2,0.5-1.2,1.2v2c0,0.1,0.1,0.2,0.1,0.3
						c0.2,0.1,0.3,0.3,0.3,0.5V91c0,0.2-0.1,0.5-0.4,0.6c-0.2,0.1-1.5,0.8-2.7,1.7c-0.1,0.1-0.1,0.2-0.1,0.3v3.8
						c0,0.3-0.3,0.6-0.6,0.6H3.6C3.3,98,3,97.7,3,97.4v-3.5c0-0.4,0.2-0.8,0.5-1c0.8-0.7,1.7-1.2,2.1-1.4v-1
						c-0.2-0.2-0.3-0.5-0.3-0.9V88c0-1.1,0.9-2,2-2h0.3c1.1,0,2,0.9,2,2v1.6c0,0.4-0.2,0.8-0.6,1.1c-0.3,0.2-0.6,0.1-0.8-0.2
						c-0.2-0.3-0.1-0.6,0.2-0.8l0.1-0.1V88c0-0.5-0.4-0.9-0.9-0.9H7.3c-0.5,0-0.9,0.4-0.9,0.9v1.6c0,0.1,0,0.1,0.1,0.1
						c0.2,0.1,0.3,0.3,0.3,0.5v1.5c0,0.2-0.1,0.5-0.4,0.6c-0.2,0.1-1.2,0.6-2.2,1.4c0,0-0.1,0.1-0.1,0.2v2.9h3.6v-3.2
						c0-0.5,0.2-0.9,0.6-1.2c1-0.8,2.1-1.5,2.6-1.7v-1.3c-0.3-0.3-0.4-0.6-0.4-1v-2c0-1.3,1-2.3,2.3-2.3h0.4c1.3,0,2.3,1,2.3,2.3v2
						c0,0.4-0.1,0.7-0.4,1v1.3c0.5,0.3,1.6,0.9,2.6,1.7c0.4,0.3,0.6,0.7,0.6,1.2v3.2h3.5v-2.9c0-0.1,0-0.1-0.1-0.2
						c-0.9-0.8-2-1.3-2.2-1.4s-0.4-0.3-0.4-0.6v-1.5c0-0.2,0.1-0.4,0.3-0.5l0.1-0.1V88c0-0.5-0.4-0.9-0.9-0.9h-0.3
						c-0.5,0-0.9,0.4-0.9,0.9v1.6c0,0.1,0,0.1,0.1,0.1c0.3,0.2,0.3,0.5,0.2,0.8c-0.2,0.3-0.5,0.3-0.8,0.2c-0.4-0.2-0.6-0.6-0.6-1.1
						V88c0-1.1,0.9-2,2-2h0.3c1.1,0,2,0.9,2,2v1.6c0,0.3-0.1,0.6-0.3,0.9v1c0.4,0.2,1.3,0.7,2.1,1.4c0.3,0.3,0.5,0.6,0.5,1v3.5
						c0,0.3-0.3,0.6-0.6,0.6h-4.7c0,0,0,0-0.1,0h-7c-0.3,0-0.6-0.3-0.6-0.6c0-0.3,0.3-0.6,0.6-0.6H17v-3.2c0-0.1-0.1-0.2-0.1-0.3
						C16.9,93.2,16.8,93.1,16.7,93z"/>
				</g>
				<g>
					<defs>
						<path id="SVGID_2_" d="M16.7,93c-1-0.8-2-1.3-2.3-1.4C14.2,91.5,14,91.3,14,91v-1.9c0-0.2,0.1-0.4,0.3-0.5
							c0.1-0.1,0.1-0.2,0.1-0.3v-2c0-0.7-0.5-1.2-1.2-1.2h-0.4c-0.7,0-1.2,0.5-1.2,1.2v2c0,0.1,0.1,0.2,0.1,0.3
							c0.2,0.1,0.3,0.3,0.3,0.5V91c0,0.2-0.1,0.5-0.4,0.6c-0.2,0.1-1.5,0.8-2.7,1.7c-0.1,0.1-0.1,0.2-0.1,0.3v3.8
							c0,0.3-0.3,0.6-0.6,0.6H3.6C3.3,98,3,97.7,3,97.4v-3.5c0-0.4,0.2-0.8,0.5-1c0.8-0.7,1.7-1.2,2.1-1.4v-1
							c-0.2-0.2-0.3-0.5-0.3-0.9V88c0-1.1,0.9-2,2-2h0.3c1.1,0,2,0.9,2,2v1.6c0,0.4-0.2,0.8-0.6,1.1c-0.3,0.2-0.6,0.1-0.8-0.2
							c-0.2-0.3-0.1-0.6,0.2-0.8l0.1-0.1V88c0-0.5-0.4-0.9-0.9-0.9H7.3c-0.5,0-0.9,0.4-0.9,0.9v1.6c0,0.1,0,0.1,0.1,0.1
							c0.2,0.1,0.3,0.3,0.3,0.5v1.5c0,0.2-0.1,0.5-0.4,0.6c-0.2,0.1-1.2,0.6-2.2,1.4c0,0-0.1,0.1-0.1,0.2v2.9h3.6v-3.2
							c0-0.5,0.2-0.9,0.6-1.2c1-0.8,2.1-1.5,2.6-1.7v-1.3c-0.3-0.3-0.4-0.6-0.4-1v-2c0-1.3,1-2.3,2.3-2.3h0.4c1.3,0,2.3,1,2.3,2.3v2
							c0,0.4-0.1,0.7-0.4,1v1.3c0.5,0.3,1.6,0.9,2.6,1.7c0.4,0.3,0.6,0.7,0.6,1.2v3.2h3.5v-2.9c0-0.1,0-0.1-0.1-0.2
							c-0.9-0.8-2-1.3-2.2-1.4s-0.4-0.3-0.4-0.6v-1.5c0-0.2,0.1-0.4,0.3-0.5l0.1-0.1V88c0-0.5-0.4-0.9-0.9-0.9h-0.3
							c-0.5,0-0.9,0.4-0.9,0.9v1.6c0,0.1,0,0.1,0.1,0.1c0.3,0.2,0.3,0.5,0.2,0.8c-0.2,0.3-0.5,0.3-0.8,0.2c-0.4-0.2-0.6-0.6-0.6-1.1
							V88c0-1.1,0.9-2,2-2h0.3c1.1,0,2,0.9,2,2v1.6c0,0.3-0.1,0.6-0.3,0.9v1c0.4,0.2,1.3,0.7,2.1,1.4c0.3,0.3,0.5,0.6,0.5,1v3.5
							c0,0.3-0.3,0.6-0.6,0.6h-4.7c0,0,0,0-0.1,0h-7c-0.3,0-0.6-0.3-0.6-0.6c0-0.3,0.3-0.6,0.6-0.6H17v-3.2c0-0.1-0.1-0.2-0.1-0.3
							C16.9,93.2,16.8,93.1,16.7,93z"/>
					</defs>
					<clipPath id="SVGID_4_">
						<use xlink:href="#SVGID_2_"  style="overflow:visible;"/>
					</clipPath>
					<rect x="-2" y="79.1" class="st3" width="30" height="23.8"/>
				</g>
			</g>
		</g>
		<g>
			<g>
				<g>
					<path id="SVGID_3_" class="st2" d="M5.4,150.7l1.9-11.2h3v3.5c0,0.4,0.3,0.6,0.6,0.6c0.4,0,0.6-0.3,0.6-0.6v-3.5h2.9v3.5
						c0,0.4,0.3,0.6,0.6,0.6c0.4,0,0.6-0.3,0.6-0.6v-3.5h3l1.9,11.2H5.4z M11.6,136.8c0-0.8,0.6-1.4,1.4-1.4s1.4,0.6,1.4,1.4v1.4
						h-2.9v-1.4H11.6z M19.9,138.7c0-0.3-0.3-0.5-0.6-0.5h-3.5v-1.4c0-1.5-1.2-2.7-2.7-2.7s-2.7,1.2-2.7,2.7v1.4H6.8
						c-0.3,0-0.6,0.2-0.6,0.5l-2.1,12.5c0,0.2,0,0.4,0.1,0.5s0.3,0.2,0.5,0.2h16.6l0,0c0.4,0,0.6-0.3,0.6-0.6c0-0.1,0-0.1,0-0.2
						L19.9,138.7z"/>
				</g>
				<g>
					<defs>
						<path id="SVGID_6_" d="M5.4,150.7l1.9-11.2h3v3.5c0,0.4,0.3,0.6,0.6,0.6c0.4,0,0.6-0.3,0.6-0.6v-3.5h2.9v3.5
							c0,0.4,0.3,0.6,0.6,0.6c0.4,0,0.6-0.3,0.6-0.6v-3.5h3l1.9,11.2H5.4z M11.6,136.8c0-0.8,0.6-1.4,1.4-1.4s1.4,0.6,1.4,1.4v1.4
							h-2.9v-1.4H11.6z M19.9,138.7c0-0.3-0.3-0.5-0.6-0.5h-3.5v-1.4c0-1.5-1.2-2.7-2.7-2.7s-2.7,1.2-2.7,2.7v1.4H6.8
							c-0.3,0-0.6,0.2-0.6,0.5l-2.1,12.5c0,0.2,0,0.4,0.1,0.5s0.3,0.2,0.5,0.2h16.6l0,0c0.4,0,0.6-0.3,0.6-0.6c0-0.1,0-0.1,0-0.2
							L19.9,138.7z"/>
					</defs>
					<clipPath id="SVGID_7_">
						<use xlink:href="#SVGID_6_"  style="overflow:visible;"/>
					</clipPath>
					<rect x="-0.9" y="129.1" class="st4" width="27.9" height="27.9"/>
				</g>
			</g>
		</g>
		<g>
			<g>
				<g>
					<path id="SVGID_5_" class="st2" d="M23.6,67L22,68.7l-1.3-1.3l-1.4,1.4l-1.6-1.6l1.4-1.4l-1.6-1.6l-1.4,1.4l-1.3-1.3l1.4-1.4
						l1.3,1.3l1.7-1.7l-1.3-1.3l1.4-1.4l1.3,1.3l-1.4,1.4l1.6,1.6l-1.7,1.7l1.6,1.6l1.7-1.7l-1.6-1.6l1.4-1.4l1.6,1.6l-1.4,1.4
						L23.6,67z M9.9,65.6l-1.4-1.4l-1.6,1.6l1.4,1.4l-1.6,1.6l-1.4-1.4L4,68.7L2.4,67l1.3-1.3l1.7,1.7L7,65.8l-1.7-1.7l-1.6,1.6
						l-1.4-1.4l1.6-1.6l1.4,1.4l1.6-1.6l-1.4-1.4l1.3-1.3l1.4,1.4l-1.3,1.3l1.7,1.7L9.8,63l1.4,1.4L9.9,65.6z M25.9,65.4l-6.3-6.3
						c-0.2-0.2-0.4-0.2-0.6,0l-6,6l-6-6c-0.2-0.2-0.4-0.2-0.6,0l-6.3,6.3C0,65.4,0,65.5,0,65.6s0,0.2,0.1,0.3l5,5
						C5.2,71,5.3,71,5.4,71c0.1,0,0.2,0,0.3-0.1l6-6l0.7,0.7l-4.1,4.1c-0.2,0.2-0.2,0.4,0,0.6c0.1,0.1,0.2,0.1,0.3,0.1
						s0.2,0,0.3-0.1l4.1-4.1l4.1,4.1c0.1,0.1,0.2,0.1,0.3,0.1c0.1,0,0.2,0,0.3-0.1c0.2-0.2,0.2-0.4,0-0.6l-4.1-4.1l0.7-0.7l6,6
						c0.1,0.1,0.2,0.1,0.3,0.1c0.1,0,0.2,0,0.3-0.1l5-5c0.1-0.1,0.1-0.2,0.1-0.3C26,65.5,26,65.4,25.9,65.4z"/>
				</g>
				<g>
					<defs>
						<path id="SVGID_8_" d="M23.6,67L22,68.7l-1.3-1.3l-1.4,1.4l-1.6-1.6l1.4-1.4l-1.6-1.6l-1.4,1.4l-1.3-1.3l1.4-1.4l1.3,1.3
							l1.7-1.7l-1.3-1.3l1.4-1.4l1.3,1.3l-1.4,1.4l1.6,1.6l-1.7,1.7l1.6,1.6l1.7-1.7l-1.6-1.6l1.4-1.4l1.6,1.6l-1.4,1.4L23.6,67z
							 M9.9,65.6l-1.4-1.4l-1.6,1.6l1.4,1.4l-1.6,1.6l-1.4-1.4L4,68.7L2.4,67l1.3-1.3l1.7,1.7L7,65.8l-1.7-1.7l-1.6,1.6l-1.4-1.4
							l1.6-1.6l1.4,1.4l1.6-1.6l-1.4-1.4l1.3-1.3l1.4,1.4l-1.3,1.3l1.7,1.7L9.8,63l1.4,1.4L9.9,65.6z M25.9,65.4l-6.3-6.3
							c-0.2-0.2-0.4-0.2-0.6,0l-6,6l-6-6c-0.2-0.2-0.4-0.2-0.6,0l-6.3,6.3C0,65.4,0,65.5,0,65.6s0,0.2,0.1,0.3l5,5
							C5.2,71,5.3,71,5.4,71c0.1,0,0.2,0,0.3-0.1l6-6l0.7,0.7l-4.1,4.1c-0.2,0.2-0.2,0.4,0,0.6c0.1,0.1,0.2,0.1,0.3,0.1
							s0.2,0,0.3-0.1l4.1-4.1l4.1,4.1c0.1,0.1,0.2,0.1,0.3,0.1c0.1,0,0.2,0,0.3-0.1c0.2-0.2,0.2-0.4,0-0.6l-4.1-4.1l0.7-0.7l6,6
							c0.1,0.1,0.2,0.1,0.3,0.1c0.1,0,0.2,0,0.3-0.1l5-5c0.1-0.1,0.1-0.2,0.1-0.3C26,65.5,26,65.4,25.9,65.4z"/>
					</defs>
					<clipPath id="SVGID_10_">
						<use xlink:href="#SVGID_8_"  style="overflow:visible;"/>
					</clipPath>
					<rect x="-5" y="53.9" class="st5" width="36" height="22.1"/>
				</g>
			</g>
		</g>
		<g>
			<g>
				<g>
					<defs>
						<path id="SVGID_12_" d="M5.4,13.6h15.3v7h-4.9v-3.5c0-0.4-0.3-0.6-0.6-0.6H11c-0.4,0-0.6,0.3-0.6,0.6v3.5h-5
							C5.4,20.6,5.4,13.6,5.4,13.6z M13,5.6l6.8,6.8H6.2L13,5.6z M14.5,20.7h-2.9v-2.9h2.9V20.7z M4.7,21.9h6.1h0.1h4.2h0.1h6.1
							c0.4,0,0.6-0.3,0.6-0.6V13v-0.1c0,0,0,0,0-0.1l0,0v-0.1l0,0c0,0,0-0.1-0.1-0.1l-8.3-8.3c-0.2-0.2-0.6-0.2-0.9,0l-8.3,8.3
							l-0.1,0.1l0,0c0,0,0,0,0,0.1l0,0c0,0,0,0,0,0.1V13v8.3C4.1,21.6,4.4,21.9,4.7,21.9z"/>
					</defs>
					<clipPath id="SVGID_14_">
						<use xlink:href="#SVGID_12_"  style="overflow:visible;"/>
					</clipPath>
					<rect x="-1" y="-0.9" class="st6" width="27.9" height="27.9"/>
				</g>
			</g>
		</g>
		<g>
			<g>
				<g>
					<path id="SVGID_9_" class="st2" d="M22.2,42.4H10.6v-3.2h11.6l1.6,1.6L22.2,42.4z M2.3,34.2l1.6-1.6h11.6v3.2H3.9L2.3,34.2z
						 M25.1,40.4l-2.2-2.2c-0.1-0.1-0.3-0.2-0.4-0.2h-8.8v-1h2.4c0.3,0,0.6-0.3,0.6-0.6V32c0-0.3-0.3-0.6-0.6-0.6h-2.4v-0.7
						c0-0.3-0.3-0.6-0.6-0.6s-0.6,0.3-0.6,0.6v0.7H3.6c-0.2,0-0.3,0.1-0.4,0.2L1,33.7c-0.2,0.2-0.2,0.6,0,0.9l2.2,2.2
						C3.3,36.9,3.5,37,3.6,37h8.8v1H10c-0.3,0-0.6,0.3-0.6,0.6V43c0,0.3,0.3,0.6,0.6,0.6h2.4v3.7c0,0.3,0.3,0.6,0.6,0.6
						s0.6-0.3,0.6-0.6v-3.7h8.8c0.2,0,0.3-0.1,0.4-0.2l2.2-2.2c0.1-0.1,0.2-0.3,0.2-0.4C25.2,40.7,25.2,40.5,25.1,40.4z"/>
				</g>
				<g>
					<defs>
						<path id="SVGID_15_" d="M22.2,42.4H10.6v-3.2h11.6l1.6,1.6L22.2,42.4z M2.3,34.2l1.6-1.6h11.6v3.2H3.9L2.3,34.2z M25.1,40.4
							l-2.2-2.2c-0.1-0.1-0.3-0.2-0.4-0.2h-8.8v-1h2.4c0.3,0,0.6-0.3,0.6-0.6V32c0-0.3-0.3-0.6-0.6-0.6h-2.4v-0.7
							c0-0.3-0.3-0.6-0.6-0.6s-0.6,0.3-0.6,0.6v0.7H3.6c-0.2,0-0.3,0.1-0.4,0.2L1,33.7c-0.2,0.2-0.2,0.6,0,0.9l2.2,2.2
							C3.3,36.9,3.5,37,3.6,37h8.8v1H10c-0.3,0-0.6,0.3-0.6,0.6V43c0,0.3,0.3,0.6,0.6,0.6h2.4v3.7c0,0.3,0.3,0.6,0.6,0.6
							s0.6-0.3,0.6-0.6v-3.7h8.8c0.2,0,0.3-0.1,0.4-0.2l2.2-2.2c0.1-0.1,0.2-0.3,0.2-0.4C25.2,40.7,25.2,40.5,25.1,40.4z"/>
					</defs>
					<clipPath id="SVGID_16_">
						<use xlink:href="#SVGID_15_"  style="overflow:visible;"/>
					</clipPath>
					<rect x="-4.2" y="25" class="st7" width="34.4" height="28"/>
				</g>
			</g>
		</g>
		<g>
			<g>
				<g>
					<path id="SVGID_11_" class="st2" d="M3.3,117l4.8,8.7h9.7l4.8-8.7l-4.8-8.7H8.1L3.3,117z M4.9,117l4.1-7.3h8l4.1,7.3l-4.1,7.3
						H9L4.9,117z"/>
				</g>
				<g>
					<defs>
						<path id="SVGID_17_" d="M3.3,117l4.8,8.7h9.7l4.8-8.7l-4.8-8.7H8.1L3.3,117z M4.9,117l4.1-7.3h8l4.1,7.3l-4.1,7.3H9L4.9,117z"
							/>
					</defs>
					<clipPath id="SVGID_18_">
						<use xlink:href="#SVGID_17_"  style="overflow:visible;"/>
					</clipPath>
					<rect x="-1.7" y="103.3" class="st8" width="29.4" height="27.4"/>
				</g>
			</g>
			<g>
				<g>
					<path id="SVGID_13_" class="st2" d="M13,119.9c-1.6,0-2.9-1.3-2.9-2.9s1.3-2.9,2.9-2.9s2.9,1.3,2.9,2.9S14.6,119.9,13,119.9z
						 M13,121.3c2.4,0,4.3-1.9,4.3-4.3s-1.9-4.3-4.3-4.3s-4.3,1.9-4.3,4.3S10.6,121.3,13,121.3z"/>
				</g>
				<g>
					<defs>
						<path id="SVGID_19_" d="M13,119.9c-1.6,0-2.9-1.3-2.9-2.9s1.3-2.9,2.9-2.9s2.9,1.3,2.9,2.9S14.6,119.9,13,119.9z M13,121.3
							c2.4,0,4.3-1.9,4.3-4.3s-1.9-4.3-4.3-4.3s-4.3,1.9-4.3,4.3S10.6,121.3,13,121.3z"/>
					</defs>
					<clipPath id="SVGID_20_">
						<use xlink:href="#SVGID_19_"  style="overflow:visible;"/>
					</clipPath>
					<rect x="3.7" y="107.7" class="st9" width="18.5" height="18.5"/>
				</g>
			</g>
		</g>
	</g>
</g>
<g id="Layer_1_copy">
	<g>
		<polygon class="st10" points="3.7,65.7 2.4,67 4,68.7 5.3,67.4 6.7,68.8 8.3,67.2 7,65.8 5.4,67.4 		"/>
		<rect x="5.9" y="60.2" transform="matrix(0.7071 -0.7071 0.7071 0.7071 -41.2333 22.7541)" class="st10" width="1.8" height="2"/>
		<polygon class="st10" points="22,68.7 23.6,67 22.4,65.7 20.7,67.4 		"/>
		
			<rect x="18.2" y="66.2" transform="matrix(0.7071 -0.7071 0.7071 0.7071 -41.9647 33.2882)" class="st10" width="2" height="2.3"/>
		<rect x="18.3" y="60.2" transform="matrix(0.7071 -0.7071 0.7071 0.7071 -37.602 31.5235)" class="st10" width="2" height="1.8"/>
		
			<rect x="15.2" y="63.3" transform="matrix(0.7071 -0.7071 0.7071 0.7071 -40.7014 30.2382)" class="st10" width="2" height="1.8"/>
		<rect x="2.7" y="63.2" transform="matrix(0.7071 -0.7071 0.7071 0.7071 -44.2824 21.4898)" class="st10" width="2.3" height="2"/>
		<path class="st10" d="M14.4,136.8c0-0.8-0.6-1.4-1.4-1.4s-1.4,0.6-1.4,1.4h-0.1v1.4h2.9V136.8z"/>
		<path class="st10" d="M15.6,139.5v3.5c0,0.3-0.2,0.6-0.6,0.6c-0.3,0-0.6-0.2-0.6-0.6v-3.5h-2.9v3.5c0,0.3-0.2,0.6-0.6,0.6
			c-0.3,0-0.6-0.2-0.6-0.6v-3.5h-3l-1.9,11.2h15.1l-1.9-11.2H15.6z"/>
		<circle class="st10" cx="13" cy="117" r="2.9"/>
		<path class="st10" d="M17,124.3l4.1-7.3l-4.1-7.3H9L4.9,117l4.1,7.3H17z M13,112.7c2.4,0,4.3,1.9,4.3,4.3s-1.9,4.3-4.3,4.3
			s-4.3-1.9-4.3-4.3S10.6,112.7,13,112.7z"/>
		<polygon class="st10" points="8.6,64.2 6.9,62.5 5.3,64.1 7,65.8 8.5,64.2 9.9,65.6 11.2,64.4 9.8,63 		"/>
		<polygon class="st10" points="15.5,32.6 3.9,32.6 2.3,34.2 3.9,35.8 15.5,35.8 		"/>
		<path class="st10" d="M10.4,17.1c0-0.3,0.2-0.6,0.6-0.6h4.2c0.3,0,0.6,0.2,0.6,0.6v3.5h4.9v-7H5.4v7h5V17.1z"/>
		<polygon class="st10" points="23.8,40.8 22.2,39.2 10.6,39.2 10.6,42.4 22.2,42.4 		"/>
		<polygon class="st10" points="13,5.6 6.2,12.4 19.8,12.4 		"/>
		<rect x="17.9" y="63" transform="matrix(0.7071 -0.7071 0.7071 0.7071 -39.752 32.3302)" class="st10" width="2.4" height="2.3"/>
		<rect x="11.6" y="17.8" class="st10" width="2.9" height="2.9"/>
		
			<rect x="21.3" y="63.1" transform="matrix(0.7071 -0.7071 0.7071 0.7071 -38.8641 34.5709)" class="st10" width="2" height="2.3"/>
		<path class="st2" d="M20.3,91.5v-1c0.2-0.3,0.3-0.6,0.3-0.9V88c0-1.1-0.9-2-2-2h-0.3c-1.1,0-2,0.9-2,2v1.6c0,0.5,0.2,0.9,0.6,1.1
			c0.3,0.1,0.6,0.1,0.8-0.2c0.1-0.3,0.1-0.6-0.2-0.8c-0.1,0-0.1,0-0.1-0.1V88c0-0.5,0.4-0.9,0.9-0.9h0.3c0.5,0,0.9,0.4,0.9,0.9v1.6
			l-0.1,0.1c-0.2,0.1-0.3,0.3-0.3,0.5v1.5c0,0.3,0.2,0.5,0.4,0.6s1.3,0.6,2.2,1.4c0.1,0.1,0.1,0.1,0.1,0.2v2.9h-3.5v-3.2
			c0-0.5-0.2-0.9-0.6-1.2c-1-0.8-2.1-1.4-2.6-1.7v-1.3c0.3-0.3,0.4-0.6,0.4-1v-2c0-1.3-1-2.3-2.3-2.3h-0.4c-1.3,0-2.3,1-2.3,2.3v2
			c0,0.4,0.1,0.7,0.4,1v1.3c-0.5,0.2-1.6,0.9-2.6,1.7c-0.4,0.3-0.6,0.7-0.6,1.2v3.2H4.1v-2.9c0-0.1,0.1-0.2,0.1-0.2
			c1-0.8,2-1.3,2.2-1.4c0.3-0.1,0.4-0.4,0.4-0.6v-1.5c0-0.2-0.1-0.4-0.3-0.5c-0.1,0-0.1,0-0.1-0.1V88c0-0.5,0.4-0.9,0.9-0.9h0.3
			c0.5,0,0.9,0.4,0.9,0.9v1.6l-0.1,0.1c-0.3,0.2-0.4,0.5-0.2,0.8s0.5,0.4,0.8,0.2c0.4-0.3,0.6-0.7,0.6-1.1V88c0-1.1-0.9-2-2-2H7.3
			c-1.1,0-2,0.9-2,2v1.6c0,0.4,0.1,0.7,0.3,0.9v1c-0.4,0.2-1.3,0.7-2.1,1.4c-0.3,0.2-0.5,0.6-0.5,1v3.5C3,97.7,3.3,98,3.6,98h4.6
			c0.3,0,0.6-0.3,0.6-0.6v-3.8c0-0.1,0-0.2,0.1-0.3c1.2-0.9,2.5-1.6,2.7-1.7c0.3-0.1,0.4-0.4,0.4-0.6v-1.9c0-0.2-0.1-0.4-0.3-0.5
			c0-0.1-0.1-0.2-0.1-0.3v-2c0-0.7,0.5-1.2,1.2-1.2h0.4c0.7,0,1.2,0.5,1.2,1.2v2c0,0.1,0,0.2-0.1,0.3c-0.2,0.1-0.3,0.3-0.3,0.5V91
			c0,0.3,0.2,0.5,0.4,0.6c0.3,0.1,1.3,0.6,2.3,1.4c0.1,0.1,0.2,0.2,0.2,0.3c0,0.1,0.1,0.2,0.1,0.3v3.2h-6.5c-0.3,0-0.6,0.3-0.6,0.6
			c0,0.3,0.3,0.6,0.6,0.6h7c0.1,0,0.1,0,0.1,0h4.7c0.3,0,0.6-0.3,0.6-0.6v-3.5c0-0.4-0.2-0.7-0.5-1C21.6,92.2,20.7,91.7,20.3,91.5z"
			/>
		<path class="st2" d="M19.3,138.2h-3.5v-1.4c0-1.5-1.2-2.7-2.7-2.7s-2.7,1.2-2.7,2.7v1.4H6.8c-0.3,0-0.6,0.2-0.6,0.5l-2.1,12.5
			c0,0.2,0,0.4,0.1,0.5c0.1,0.1,0.3,0.2,0.5,0.2h16.6c0.4,0,0.6-0.3,0.6-0.6c0-0.1,0-0.1,0-0.2l-2-12.4
			C19.9,138.4,19.6,138.2,19.3,138.2z M11.5,136.8L11.5,136.8c0.1-0.8,0.7-1.4,1.5-1.4s1.4,0.6,1.4,1.4v1.4h-2.9V136.8z M5.4,150.7
			l1.9-11.2h3v3.5c0,0.4,0.3,0.6,0.6,0.6c0.4,0,0.6-0.3,0.6-0.6v-3.5h2.9v3.5c0,0.4,0.3,0.6,0.6,0.6c0.4,0,0.6-0.3,0.6-0.6v-3.5h3
			l1.9,11.2H5.4z"/>
		<polygon class="st2" points="3.7,65.7 5.4,67.4 7,65.8 6.9,65.8 7,65.8 5.3,64.1 		"/>
		
			<rect x="19.5" y="64.6" transform="matrix(0.7071 -0.7071 0.7071 0.7071 -40.4153 33.9314)" class="st2" width="2.4" height="2.3"/>
		<path class="st2" d="M25.9,65.4l-6.3-6.3c-0.2-0.2-0.4-0.2-0.6,0l-6,6l-6-6c-0.2-0.2-0.4-0.2-0.6,0l-6.3,6.3C0,65.4,0,65.5,0,65.6
			c0,0.1,0,0.2,0.1,0.3l5,5C5.2,71,5.3,71,5.4,71c0.1,0,0.2,0,0.3-0.1l6-6l0.7,0.7l-4.1,4.1c-0.2,0.2-0.2,0.4,0,0.6
			c0.1,0.1,0.2,0.1,0.3,0.1c0.1,0,0.2,0,0.3-0.1l4.1-4.1l4.1,4.1c0.1,0.1,0.2,0.1,0.3,0.1c0.1,0,0.2,0,0.3-0.1
			c0.2-0.2,0.2-0.4,0-0.6l-4.1-4.1l0.7-0.7l6,6c0.1,0.1,0.2,0.1,0.3,0.1c0.1,0,0.2,0,0.3-0.1l5-5c0.1-0.1,0.1-0.2,0.1-0.3
			C26,65.5,26,65.4,25.9,65.4z M9.9,65.6l-1.4-1.4L7,65.8l0,0l0,0l1.3,1.4l-1.6,1.6l-1.4-1.4L4,68.7L2.4,67l1.3-1.3l-1.4-1.4
			l1.6-1.6l1.4,1.4l1.6-1.6l-1.4-1.4l1.3-1.3l1.4,1.4l-1.3,1.3l1.7,1.7L9.8,63l1.4,1.4L9.9,65.6z M23.6,67L22,68.7l-1.3-1.3
			l-1.4,1.4l-1.6-1.6l1.4-1.4l-1.6-1.6l-1.4,1.4l-1.3-1.3l1.4-1.4l1.3,1.3l1.7-1.7l-1.3-1.3l1.4-1.4l1.3,1.3l-1.4,1.4l1.6,1.6
			l1.4-1.4l1.6,1.6l-1.4,1.4L23.6,67z"/>
		<rect x="6.9" y="65.8" transform="matrix(0.7071 -0.7071 0.7071 0.7071 -44.492 24.1868)" class="st2" width="0.1" height="0.1"/>
		<path class="st2" d="M4.7,21.9h6.1h0.1h4.2h0.1h6.1c0.4,0,0.6-0.3,0.6-0.6V13v-0.1c0,0,0,0,0-0.1v-0.1c0,0,0-0.1-0.1-0.1l-8.3-8.3
			c-0.2-0.2-0.6-0.2-0.9,0l-8.3,8.3l-0.1,0.1c0,0,0,0,0,0.1c0,0,0,0,0,0.1V13v8.3C4.1,21.6,4.4,21.9,4.7,21.9z M14.5,20.7h-2.9v-2.9
			h2.9V20.7z M13,5.6l6.8,6.8H6.2L13,5.6z M5.4,13.6h15.3v7h-4.9v-3.5c0-0.4-0.3-0.6-0.6-0.6H11c-0.4,0-0.6,0.3-0.6,0.6v3.5h-5V13.6
			z"/>
		<path class="st2" d="M13,47.9c0.3,0,0.6-0.3,0.6-0.6v-3.7h8.8c0.2,0,0.3-0.1,0.4-0.2l2.2-2.2c0.1-0.1,0.2-0.3,0.2-0.4
			c0-0.1,0-0.3-0.1-0.4l-2.2-2.2c-0.1-0.1-0.3-0.2-0.4-0.2h-8.8v-1h2.4c0.3,0,0.6-0.3,0.6-0.6V32c0-0.3-0.3-0.6-0.6-0.6h-2.4v-0.7
			c0-0.3-0.3-0.6-0.6-0.6c-0.3,0-0.6,0.3-0.6,0.6v0.7H3.6c-0.2,0-0.3,0.1-0.4,0.2L1,33.7c-0.2,0.2-0.2,0.6,0,0.9l2.2,2.2
			C3.3,36.9,3.5,37,3.6,37h8.8v1H10c-0.3,0-0.6,0.3-0.6,0.6V43c0,0.3,0.3,0.6,0.6,0.6h2.4v3.7C12.4,47.6,12.7,47.9,13,47.9z
			 M3.9,35.8l-1.6-1.6l1.6-1.6h11.6v3.2H3.9z M10.6,42.4v-3.2h11.6l1.6,1.6l-1.6,1.6H10.6z"/>
		<path class="st2" d="M8.1,125.7h9.7l4.8-8.7l-4.8-8.7H8.1L3.3,117L8.1,125.7z M9,109.7h8l4.1,7.3l-4.1,7.3H9L4.9,117L9,109.7z"/>
		<path class="st2" d="M13,121.3c2.4,0,4.3-1.9,4.3-4.3s-1.9-4.3-4.3-4.3s-4.3,1.9-4.3,4.3S10.6,121.3,13,121.3z M13,114.1
			c1.6,0,2.9,1.3,2.9,2.9s-1.3,2.9-2.9,2.9s-2.9-1.3-2.9-2.9S11.4,114.1,13,114.1z"/>
	</g>
</g>
</svg>
