<?xml version="1.0" encoding="utf-8"?>
<!-- Generator: Adobe Illustrator 19.2.1, SVG Export Plug-In . SVG Version: 6.00 Build 0)  -->
<svg version="1.1" xmlns="http://www.w3.org/2000/svg" xmlns:xlink="http://www.w3.org/1999/xlink" x="0px" y="0px"
	 viewBox="0 0 128 576" style="enable-background:new 0 0 128 576;" xml:space="preserve">
<style type="text/css">
	.st0{display:none;}
	.st1{display:inline;fill:#895858;stroke:#000000;stroke-miterlimit:10;}
	.st2{clip-path:url(#SVGID_2_);fill:#999999;}
	.st3{clip-path:url(#SVGID_4_);fill:#999999;}
	.st4{clip-path:url(#SVGID_6_);fill:none;stroke:#999999;stroke-width:2;stroke-miterlimit:10;}
	.st5{clip-path:url(#SVGID_8_);fill:#FA5400;}
	.st6{clip-path:url(#SVGID_10_);fill:#FA5400;}
	.st7{clip-path:url(#SVGID_12_);fill:#FA5400;}
	.st8{clip-path:url(#SVGID_15_);fill:#999999;}
	.st9{clip-path:url(#SVGID_17_);fill:#999999;}
	.st10{clip-path:url(#SVGID_19_);fill:none;stroke:#999999;stroke-width:2;stroke-miterlimit:10;}
	.st11{clip-path:url(#SVGID_21_);fill:#FA5400;}
	.st12{clip-path:url(#SVGID_23_);fill:#FA5400;}
	.st13{clip-path:url(#SVGID_25_);fill:#FA5400;}
	.st14{clip-path:url(#SVGID_27_);fill:none;stroke:#999999;stroke-width:2;stroke-miterlimit:10;}
	.st15{clip-path:url(#SVGID_29_);fill:#999999;}
	.st16{clip-path:url(#SVGID_31_);fill:#999999;}
	.st17{clip-path:url(#SVGID_33_);fill:#999999;}
	.st18{clip-path:url(#SVGID_35_);fill:#FA5400;}
	.st19{clip-path:url(#SVGID_37_);fill:#FA5400;}
	.st20{clip-path:url(#SVGID_39_);fill:#FA5400;}
	.st21{clip-path:url(#SVGID_41_);fill:#FA5400;}
	.st22{clip-path:url(#SVGID_43_);fill:#FA5400;}
	.st23{opacity:0.99;clip-path:url(#SVGID_45_);fill:none;stroke:#999999;stroke-width:2;stroke-miterlimit:10;}
	.st24{clip-path:url(#SVGID_47_);fill:#FA5400;}
	.st25{clip-path:url(#SVGID_49_);fill:#FA5400;}
	.st26{clip-path:url(#SVGID_51_);fill:#FA5400;}
	.st27{clip-path:url(#SVGID_53_);fill:#FA5400;}
	.st28{clip-path:url(#SVGID_55_);fill:#FA5400;}
	.st29{clip-path:url(#SVGID_57_);fill:#FA5400;}
	.st30{clip-path:url(#SVGID_59_);fill:#FA5400;}
	.st31{clip-path:url(#SVGID_61_);fill:#FA5400;}
	.st32{clip-path:url(#SVGID_63_);fill:none;stroke:#FA5400;stroke-width:2;stroke-miterlimit:10;}
	.st33{clip-path:url(#SVGID_65_);}
	.st34{clip-path:url(#SVGID_67_);fill:#666666;}
	.st35{clip-path:url(#SVGID_69_);}
	.st36{clip-path:url(#SVGID_71_);fill:#666666;}
	.st37{clip-path:url(#SVGID_73_);fill:#666666;}
	.st38{clip-path:url(#SVGID_75_);fill:#4C4C4C;}
	.st39{clip-path:url(#SVGID_77_);fill:#4C4C4C;}
	.st40{clip-path:url(#SVGID_79_);fill:#4C4C4C;}
	.st41{clip-path:url(#SVGID_81_);fill:#4C4C4C;}
	.st42{clip-path:url(#SVGID_83_);fill:#4C4C4C;}
	.st43{clip-path:url(#SVGID_85_);fill:#FFFFFF;}
	.st44{clip-path:url(#SVGID_87_);fill:#FFFFFF;}
	.st45{clip-path:url(#SVGID_89_);fill:#FFFFFF;}
	.st46{clip-path:url(#SVGID_91_);fill:#FFFFFF;}
	.st47{clip-path:url(#SVGID_93_);fill:#FFFFFF;}
	.st48{clip-path:url(#SVGID_95_);fill:#999999;}
	.st49{fill:#FA5400;}
	.st50{clip-path:url(#SVGID_97_);fill:#FA5400;}
	.st51{clip-path:url(#SVGID_99_);fill:none;stroke:#999999;stroke-width:2;stroke-miterlimit:10;}
	.st52{clip-path:url(#SVGID_101_);fill:none;stroke:#999999;stroke-width:2;stroke-miterlimit:10;}
	.st53{clip-path:url(#SVGID_103_);fill:none;stroke:#999999;stroke-width:2;stroke-miterlimit:10;}
	.st54{clip-path:url(#SVGID_105_);fill:none;stroke:#FA5400;stroke-width:2;stroke-miterlimit:10;}
	.st55{clip-path:url(#SVGID_107_);fill:none;stroke:#FA5400;stroke-width:2;stroke-miterlimit:10;}
	.st56{clip-path:url(#SVGID_109_);fill:#FA5400;}
	.st57{clip-path:url(#SVGID_111_);}
	.st58{clip-path:url(#SVGID_115_);fill:#FA5400;}
	.st59{clip-path:url(#SVGID_117_);fill:#FA5400;}
	.st60{clip-path:url(#SVGID_119_);fill:#FA5400;}
	.st61{clip-path:url(#SVGID_121_);fill:#FA5400;}
	.st62{clip-path:url(#SVGID_123_);fill:#FA5400;}
	.st63{clip-path:url(#SVGID_125_);fill:none;stroke:#3CBA54;stroke-width:2;stroke-miterlimit:10;}
	.st64{fill:none;stroke:#3CBA54;stroke-miterlimit:10;}
	.st65{clip-path:url(#SVGID_127_);fill:#4080FF;}
	.st66{clip-path:url(#SVGID_129_);fill:#4080FF;}
	.st67{clip-path:url(#SVGID_131_);fill:none;stroke:#DB3236;stroke-width:2;stroke-miterlimit:10;}
	.st68{clip-path:url(#SVGID_133_);fill:none;stroke:#DB3236;stroke-width:2;stroke-miterlimit:10;}
	.st69{clip-path:url(#SVGID_135_);fill:#FA5400;}
	.st70{clip-path:url(#SVGID_137_);fill:#FA5400;}
	.st71{fill:none;stroke:#FA5400;stroke-linecap:square;stroke-miterlimit:10;}
	.st72{clip-path:url(#SVGID_139_);}
	.st73{clip-path:url(#SVGID_141_);fill:#FFFFFF;}
	.st74{clip-path:url(#SVGID_143_);fill:none;stroke:#FA5400;stroke-width:2;stroke-miterlimit:10;}
	.st75{clip-path:url(#SVGID_145_);}
	.st76{clip-path:url(#SVGID_147_);fill:#FFFFFF;}
	.st77{clip-path:url(#SVGID_149_);fill:none;stroke:#FA5400;stroke-width:2;stroke-miterlimit:10;}
	.st78{enable-background:new    ;}
	.st79{clip-path:url(#SVGID_153_);}
	.st80{clip-path:url(#SVGID_155_);}
	.st81{clip-path:url(#SVGID_157_);fill:#FA5400;}
	.st82{fill:#FA5400;stroke:#FA5400;stroke-width:0.4;stroke-miterlimit:10;}
	.st83{fill:#979797;}
	.st84{clip-path:url(#SVGID_159_);fill:none;stroke:#979797;stroke-width:2;stroke-miterlimit:10;}
	.st85{clip-path:url(#SVGID_161_);fill:#4080FF;}
	.st86{clip-path:url(#SVGID_163_);fill:none;stroke:#999999;stroke-width:2;stroke-miterlimit:10;}
	.st87{clip-path:url(#SVGID_165_);fill:none;stroke:#FA5400;stroke-width:2;stroke-miterlimit:10;}
	.st88{clip-path:url(#SVGID_167_);}
	.st89{clip-path:url(#SVGID_169_);fill:#44678D;}
	.st90{clip-path:url(#SVGID_171_);}
	.st91{clip-path:url(#SVGID_173_);fill:#3B5998;}
	.st92{clip-path:url(#SVGID_175_);}
	.st93{clip-path:url(#SVGID_177_);fill:#4885ED;}
	.st94{fill:none;}
	.st95{fill:#999999;}
	.st96{clip-path:url(#SVGID_179_);}
	.st97{clip-path:url(#SVGID_181_);}
	.st98{clip-path:url(#SVGID_183_);fill:none;stroke:#FA5400;stroke-width:2;stroke-miterlimit:10;stroke-dasharray:2,2;}
	.st99{clip-path:url(#SVGID_185_);}
	.st100{clip-path:url(#SVGID_187_);fill:#FFFFFF;}
	.st101{clip-path:url(#SVGID_189_);}
	.st102{clip-path:url(#SVGID_191_);fill:none;stroke:#FA5400;stroke-width:2;stroke-miterlimit:10;}
	.st103{clip-path:url(#SVGID_193_);}
	.st104{clip-path:url(#SVGID_195_);fill:#FFFFFF;}
	.st105{clip-path:url(#SVGID_197_);}
	.st106{clip-path:url(#SVGID_199_);fill:none;stroke:#FA5400;stroke-width:2;stroke-miterlimit:10;}
	.st107{clip-path:url(#SVGID_201_);}
	.st108{clip-path:url(#SVGID_203_);}
	.st109{clip-path:url(#SVGID_205_);fill:#999999;}
	.st110{clip-path:url(#SVGID_207_);}
	.st111{clip-path:url(#SVGID_209_);}
	.st112{clip-path:url(#SVGID_211_);fill:#999999;}
	.st113{clip-path:url(#SVGID_213_);}
	.st114{clip-path:url(#SVGID_215_);}
	.st115{clip-path:url(#SVGID_217_);fill:#999999;}
	.st116{clip-path:url(#SVGID_219_);}
	.st117{clip-path:url(#SVGID_221_);}
	.st118{clip-path:url(#SVGID_223_);fill:#DB3236;}
	.st119{clip-path:url(#SVGID_225_);}
	.st120{clip-path:url(#SVGID_227_);fill:#DB3236;}
	.st121{clip-path:url(#SVGID_229_);}
	.st122{clip-path:url(#SVGID_231_);}
	.st123{clip-path:url(#SVGID_233_);fill:#3CBA54;}
	.st124{clip-path:url(#SVGID_235_);}
	.st125{clip-path:url(#SVGID_237_);fill:#3CBA54;}
	.st126{clip-path:url(#SVGID_239_);}
	.st127{clip-path:url(#SVGID_241_);}
	.st128{clip-path:url(#SVGID_243_);fill:#9013FE;}
	.st129{clip-path:url(#SVGID_245_);}
	.st130{clip-path:url(#SVGID_247_);}
	.st131{clip-path:url(#SVGID_249_);fill:#BD10E0;}
	.st132{clip-path:url(#SVGID_251_);}
	.st133{clip-path:url(#SVGID_253_);fill:#999999;}
	.st134{clip-path:url(#SVGID_255_);}
	.st135{clip-path:url(#SVGID_257_);fill:#999999;}
	.st136{clip-path:url(#SVGID_259_);}
	.st137{clip-path:url(#SVGID_261_);fill:#999999;}
	.st138{clip-path:url(#SVGID_263_);}
	.st139{clip-path:url(#SVGID_265_);fill:#999999;}
	.st140{clip-path:url(#SVGID_267_);}
	.st141{clip-path:url(#SVGID_269_);fill:#999999;}
	.st142{clip-path:url(#SVGID_271_);}
	.st143{clip-path:url(#SVGID_273_);fill:#999999;}
	.st144{clip-path:url(#SVGID_275_);}
	.st145{clip-path:url(#SVGID_277_);}
	.st146{clip-path:url(#SVGID_279_);fill:#4080FF;}
	.st147{clip-path:url(#SVGID_281_);}
	.st148{clip-path:url(#SVGID_283_);}
	.st149{clip-path:url(#SVGID_285_);fill:none;stroke:#FA5400;stroke-width:3;stroke-miterlimit:10;}
	.st150{clip-path:url(#SVGID_287_);}
	.st151{clip-path:url(#SVGID_289_);fill:#FA5400;}
	.st152{clip-path:url(#SVGID_291_);}
	.st153{clip-path:url(#SVGID_293_);}
	.st154{clip-path:url(#SVGID_295_);fill:none;stroke:#FA5400;stroke-width:3;stroke-miterlimit:10;}
	.st155{clip-path:url(#SVGID_297_);}
	.st156{clip-path:url(#SVGID_299_);fill:#FA5400;}
	.st157{clip-path:url(#SVGID_301_);}
	.st158{clip-path:url(#SVGID_303_);}
	.st159{clip-path:url(#SVGID_305_);fill:#999999;}
	.st160{clip-path:url(#SVGID_307_);}
	.st161{clip-path:url(#SVGID_309_);fill:#999999;}
	.st162{clip-path:url(#SVGID_311_);}
	.st163{fill:#A9A9A9;}
	.st164{font-family:'Roboto-Regular';}
	.st165{font-size:6px;}
	.st166{clip-path:url(#SVGID_313_);}
	.st167{clip-path:url(#SVGID_315_);}
	.st168{clip-path:url(#SVGID_317_);fill:#FFFFFF;}
	.st169{clip-path:url(#SVGID_319_);}
	.st170{clip-path:url(#SVGID_321_);fill:#FFFFFF;}
	.st171{clip-path:url(#SVGID_323_);}
	.st172{clip-path:url(#SVGID_325_);}
	.st173{clip-path:url(#SVGID_327_);fill:#4C4C4C;}
	.st174{clip-path:url(#SVGID_329_);}
	.st175{clip-path:url(#SVGID_331_);fill:#4C4C4C;}
	.st176{clip-path:url(#SVGID_333_);}
	.st177{clip-path:url(#SVGID_335_);fill:#4C4C4C;}
</style>
<g id="Layer_4" class="st0">
	<rect x="-94" y="-33" class="st1" width="379" height="671"/>
</g>
<g id="Layer_3">
	<g>
		<g>
			<defs>
				<path id="SVGID_1_" d="M7.2,278.6c-1.4,0-2.5-1.1-2.5-2.5c0-1.4,1.1-2.5,2.5-2.5s2.5,1.1,2.5,2.5C9.8,277.5,8.6,278.6,7.2,278.6
					z M7.2,279.6c1.9,0,3.5-1.6,3.5-3.5c0-1.9-1.6-3.5-3.5-3.5s-3.5,1.6-3.5,3.5C3.8,278.1,5.3,279.6,7.2,279.6z"/>
			</defs>
			<clipPath id="SVGID_2_">
				<use xlink:href="#SVGID_1_"  style="overflow:visible;"/>
			</clipPath>
			<rect x="-1.2" y="267.6" class="st2" width="17" height="17"/>
		</g>
		<g>
			<defs>
				<path id="SVGID_3_" d="M24.8,279c-1.4,0-2.5-1.1-2.5-2.5s1.1-2.5,2.5-2.5s2.5,1.1,2.5,2.5S26.1,279,24.8,279z M24.8,279.9
					c1.9,0,3.5-1.6,3.5-3.5c0-1.9-1.6-3.5-3.5-3.5s-3.5,1.6-3.5,3.5C21.2,278.4,22.8,279.9,24.8,279.9z"/>
			</defs>
			<clipPath id="SVGID_4_">
				<use xlink:href="#SVGID_3_"  style="overflow:visible;"/>
			</clipPath>
			<rect x="16.2" y="267.9" class="st3" width="17" height="17"/>
		</g>
		<g>
			<defs>
				<path id="SVGID_5_" d="M19,264.9h-1.8v-1h2l0.5,0.1l1.2,2.5c0.5-0.1,0.9-0.2,0.9-0.2l2.6,1.2l3.2,4.8l-3-1.5l-1.5,0.3l1.1,2.2
					l-0.9,0.4l-1.2-2.4l-2.1,2.4v1.9h-7.8l-0.3-0.8l-1.8,0.3l-0.5-0.9l1.9-0.4l-0.3-0.9l-0.7-0.7l-5.3-3.7l0.6-0.8l2.2,1.5l-0.2-0.4
					l-1.1-1.4v-1.4l6,1.7c0,0,6.6-1.2,6.6-1.1c0,0,0.3,0,0.7-0.1L19,264.9z"/>
			</defs>
			<clipPath id="SVGID_6_">
				<use xlink:href="#SVGID_5_"  style="overflow:visible;"/>
			</clipPath>
			<path class="st4" d="M19,264.9h-1.8v-1h2l0.5,0.1l1.2,2.5c0.5-0.1,0.9-0.2,0.9-0.2l2.6,1.2l3.2,4.8l-3-1.5l-1.5,0.3l1.1,2.2
				l-0.9,0.4l-1.2-2.4l-2.1,2.4v1.9h-7.8l-0.3-0.8l-1.8,0.3l-0.5-0.9l1.9-0.4l-0.3-0.9l-0.7-0.7l-5.3-3.7l0.6-0.8l2.2,1.5l-0.2-0.4
				l-1.1-1.4v-1.4l6,1.7c0,0,6.6-1.2,6.6-1.1c0,0,0.3,0,0.7-0.1L19,264.9z"/>
		</g>
	</g>
	<g>
		<g>
			<defs>
				<path id="SVGID_7_" d="M39.2,278.7c-1.4,0-2.5-1.1-2.5-2.5c0-1.4,1.1-2.5,2.5-2.5s2.5,1.1,2.5,2.5
					C41.8,277.6,40.6,278.7,39.2,278.7z M39.2,279.7c1.9,0,3.5-1.6,3.5-3.5c0-1.9-1.6-3.5-3.5-3.5s-3.5,1.6-3.5,3.5
					C35.8,278.1,37.3,279.7,39.2,279.7z"/>
			</defs>
			<clipPath id="SVGID_8_">
				<use xlink:href="#SVGID_7_"  style="overflow:visible;"/>
			</clipPath>
			<rect x="30.8" y="267.7" class="st5" width="17" height="17"/>
		</g>
		<g>
			<defs>
				<path id="SVGID_9_" d="M56.8,279c-1.4,0-2.5-1.1-2.5-2.5s1.1-2.5,2.5-2.5s2.5,1.1,2.5,2.5S58.1,279,56.8,279z M56.8,280
					c1.9,0,3.5-1.6,3.5-3.5s-1.6-3.5-3.5-3.5c-1.9,0-3.5,1.6-3.5,3.5S54.8,280,56.8,280z"/>
			</defs>
			<clipPath id="SVGID_10_">
				<use xlink:href="#SVGID_9_"  style="overflow:visible;"/>
			</clipPath>
			<rect x="48.2" y="268" class="st6" width="17" height="17"/>
		</g>
		<g>
			<defs>
				<path id="SVGID_11_" d="M51,265h-1.8v-1h2l0.5,0.1l1.2,2.5c0.5-0.1,0.9-0.2,0.9-0.2l2.6,1.2l3.2,4.8l-3-1.5l-1.5,0.3l1.1,2.2
					l-0.9,0.4l-1.2-2.4l-2.1,2.4v1.9h-7.8l-0.3-0.8l-1.8,0.3l-0.5-0.9l1.9-0.4l-0.3-0.9l-0.7-0.7l-5.3-3.7l0.6-0.8l2.2,1.5l-0.2-0.4
					l-1.1-1.4v-1.4l6,1.7c0,0,6.6-1.2,6.6-1.1c0,0,0.3,0,0.7-0.1L51,265z"/>
			</defs>
			<clipPath id="SVGID_12_">
				<use xlink:href="#SVGID_11_"  style="overflow:visible;"/>
			</clipPath>
			<rect x="32.2" y="259" class="st7" width="32.4" height="22"/>
		</g>
	</g>
	<g>
		<g>
			<defs>
				<path id="SVGID_13_" d="M23.4,309.9c-1.4,0-2.6-1.2-2.6-2.6c0-1.4,1.2-2.6,2.6-2.6c1.4,0,2.6,1.2,2.6,2.6
					C26,308.7,24.8,309.9,23.4,309.9z M23.4,310.9c2,0,3.6-1.6,3.6-3.6c0-2-1.6-3.6-3.6-3.6s-3.6,1.6-3.6,3.6
					C19.8,309.3,21.4,310.9,23.4,310.9z"/>
			</defs>
			<clipPath id="SVGID_15_">
				<use xlink:href="#SVGID_13_"  style="overflow:visible;"/>
			</clipPath>
			<rect x="14.8" y="298.7" class="st8" width="17.2" height="17.2"/>
		</g>
		<g>
			<defs>
				<path id="SVGID_16_" d="M8.5,309.8c-1.4,0-2.5-1.1-2.5-2.5s1.1-2.5,2.5-2.5s2.5,1.1,2.5,2.5S9.9,309.8,8.5,309.8z M8.5,310.7
					c1.9,0,3.5-1.6,3.5-3.5c0-1.9-1.6-3.5-3.5-3.5S5,305.3,5,307.2C5,309.2,6.5,310.7,8.5,310.7z"/>
			</defs>
			<clipPath id="SVGID_17_">
				<use xlink:href="#SVGID_16_"  style="overflow:visible;"/>
			</clipPath>
			<rect x="0" y="298.7" class="st9" width="17" height="17"/>
		</g>
		<g>
			<defs>
				<polygon id="SVGID_18_" points="22.4,301 25.3,301.4 25.1,302.5 22.7,302.2 23.2,304 22.2,304.2 21.8,302.6 19.5,304.2 
					18.9,306.4 13.7,307.7 13.3,307 11.7,307.3 11.5,306.3 12.7,306.1 12.1,305.2 10.7,303.9 6.1,302.2 6.4,301.2 9.9,302.5 
					10.1,302.3 9.1,301.4 6.6,300 12.1,300.6 14.3,301.7 15.8,301.7 16.4,300.6 19.7,298.7 20.8,298.9 20.5,298.1 19.5,298.1 
					19.5,297.1 21.5,297.1 21.5,297.7 				"/>
			</defs>
			<clipPath id="SVGID_19_">
				<use xlink:href="#SVGID_18_"  style="overflow:visible;"/>
			</clipPath>
			<polygon class="st10" points="22.4,301 25.3,301.4 25.1,302.5 22.7,302.2 23.2,304 22.2,304.2 21.8,302.6 19.5,304.2 18.9,306.4 
				13.7,307.7 13.3,307 11.7,307.3 11.5,306.3 12.7,306.1 12.1,305.2 10.7,303.9 6.1,302.2 6.4,301.2 9.9,302.5 10.1,302.3 
				9.1,301.4 6.6,300 12.1,300.6 14.3,301.7 15.8,301.7 16.4,300.6 19.7,298.7 20.8,298.9 20.5,298.1 19.5,298.1 19.5,297.1 
				21.5,297.1 21.5,297.7 			"/>
		</g>
	</g>
	<g>
		<g>
			<defs>
				<path id="SVGID_20_" d="M55.4,309.9c-1.4,0-2.6-1.2-2.6-2.6c0-1.4,1.2-2.6,2.6-2.6c1.4,0,2.6,1.2,2.6,2.6
					C58,308.8,56.8,309.9,55.4,309.9z M55.4,310.9c2,0,3.6-1.6,3.6-3.6c0-2-1.6-3.6-3.6-3.6c-2,0-3.6,1.6-3.6,3.6
					C51.8,309.3,53.4,310.9,55.4,310.9z"/>
			</defs>
			<clipPath id="SVGID_21_">
				<use xlink:href="#SVGID_20_"  style="overflow:visible;"/>
			</clipPath>
			<rect x="46.8" y="298.8" class="st11" width="17.2" height="17.2"/>
		</g>
		<g>
			<defs>
				<path id="SVGID_22_" d="M40.5,309.8c-1.4,0-2.5-1.1-2.5-2.5s1.1-2.5,2.5-2.5s2.5,1.1,2.5,2.5S41.9,309.8,40.5,309.8z
					 M40.5,310.8c1.9,0,3.5-1.6,3.5-3.5c0-1.9-1.6-3.5-3.5-3.5s-3.5,1.6-3.5,3.5C37,309.2,38.6,310.8,40.5,310.8z"/>
			</defs>
			<clipPath id="SVGID_23_">
				<use xlink:href="#SVGID_22_"  style="overflow:visible;"/>
			</clipPath>
			<rect x="32" y="298.8" class="st12" width="17" height="17"/>
		</g>
		<g>
			<defs>
				<polygon id="SVGID_24_" points="54.4,301.1 57.4,301.4 57.2,302.5 54.7,302.3 55.2,304 54.2,304.3 53.8,302.6 51.5,304.2 
					50.9,306.4 45.7,307.7 45.3,307 43.7,307.3 43.5,306.3 44.7,306.1 44.2,305.3 42.7,303.9 38.1,302.2 38.5,301.3 41.9,302.5 
					42.2,302.4 41.2,301.4 38.6,300 44.2,300.7 46.3,301.7 47.8,301.7 48.5,300.7 51.7,298.8 52.8,298.9 52.6,298.1 51.5,298.1 
					51.5,297.1 53.5,297.1 53.5,297.7 				"/>
			</defs>
			<clipPath id="SVGID_25_">
				<use xlink:href="#SVGID_24_"  style="overflow:visible;"/>
			</clipPath>
			<rect x="33.1" y="292.1" class="st13" width="29.2" height="20.7"/>
		</g>
	</g>
	<g>
		<g>
			<defs>
				<path id="SVGID_26_" d="M25.5,340.9h2.1l0.4-0.4v-1.3l-0.4-0.4h-0.6l-0.2-2.4l-0.8-1.2l-4.6-0.6l-2.4-3l-1.7-0.8H8.1l-1.9,1.9
					l-0.3,2.9l-0.2-1.9L5.6,332l-1.2,0L4,332.4v4.3l0.4,0.4h0.8l0.1,1.7H4.7v2.1l2.3,0c0,0,0-0.1,0-0.1c0-1.7,1.3-3,3-3s3,1.3,3,3
					c0,0,0,0.1,0,0.1h6c0,0,0-0.1,0-0.1c0-1.7,1.3-3,3-3s3,1.3,3,3c0,0,0,0.1,0,0.1C25.3,340.9,25.5,340.9,25.5,340.9z"/>
			</defs>
			<clipPath id="SVGID_27_">
				<use xlink:href="#SVGID_26_"  style="overflow:visible;"/>
			</clipPath>
			<path class="st14" d="M25.5,340.9h2.1l0.4-0.4v-1.3l-0.4-0.4h-0.6l-0.2-2.4l-0.8-1.2l-4.6-0.6l-2.4-3l-1.7-0.8H8.1l-1.9,1.9
				l-0.3,2.9l-0.2-1.9L5.6,332l-1.2,0L4,332.4v4.3l0.4,0.4h0.8l0.1,1.7H4.7v2.1l2.3,0c0,0,0-0.1,0-0.1c0-1.7,1.3-3,3-3s3,1.3,3,3
				c0,0,0,0.1,0,0.1h6c0,0,0-0.1,0-0.1c0-1.7,1.3-3,3-3s3,1.3,3,3c0,0,0,0.1,0,0.1C25.3,340.9,25.5,340.9,25.5,340.9z"/>
		</g>
		<g>
			<defs>
				<path id="SVGID_28_" d="M10,343.2c-1.4,0-2.5-1.1-2.5-2.5s1.1-2.5,2.5-2.5s2.5,1.1,2.5,2.5S11.4,343.2,10,343.2z M10,342.2
					c0.8,0,1.5-0.7,1.5-1.5s-0.7-1.5-1.5-1.5c-0.8,0-1.5,0.7-1.5,1.5S9.2,342.2,10,342.2z"/>
			</defs>
			<clipPath id="SVGID_29_">
				<use xlink:href="#SVGID_28_"  style="overflow:visible;"/>
			</clipPath>
			<rect x="2.5" y="333.2" class="st15" width="15" height="15"/>
		</g>
		<g>
			<defs>
				<path id="SVGID_30_" d="M22,343.2c-1.4,0-2.5-1.1-2.5-2.5s1.1-2.5,2.5-2.5s2.5,1.1,2.5,2.5S23.4,343.2,22,343.2z M22,342.2
					c0.8,0,1.5-0.7,1.5-1.5s-0.7-1.5-1.5-1.5s-1.5,0.7-1.5,1.5S21.2,342.2,22,342.2z"/>
			</defs>
			<clipPath id="SVGID_31_">
				<use xlink:href="#SVGID_30_"  style="overflow:visible;"/>
			</clipPath>
			<rect x="14.5" y="333.2" class="st16" width="15" height="15"/>
		</g>
		<g>
			<defs>
				<rect id="SVGID_32_" x="8" y="328.8" width="9" height="1"/>
			</defs>
			<clipPath id="SVGID_33_">
				<use xlink:href="#SVGID_32_"  style="overflow:visible;"/>
			</clipPath>
			<rect x="3" y="323.8" class="st17" width="19" height="11"/>
		</g>
	</g>
	<g>
		<g>
			<defs>
				<path id="SVGID_34_" d="M57.5,340.9h2.1l0.4-0.4v-1.3l-0.4-0.4h-0.6l-0.2-2.4l-0.8-1.2l-4.6-0.6l-2.4-3l-1.7-0.8h-9.3l-1.9,1.9
					l-0.3,2.9l-0.2-1.9l-0.2-1.7l-1.2,0l-0.4,0.4v4.3l0.4,0.4h0.8l0.1,1.7h-0.6v2.1l2.3,0c0,0,0-0.1,0-0.1c0-1.7,1.3-3,3-3
					c1.7,0,3,1.3,3,3c0,0,0,0.1,0,0.1h6c0,0,0-0.1,0-0.1c0-1.7,1.3-3,3-3c1.7,0,3,1.3,3,3c0,0,0,0.1,0,0.1
					C57.3,340.9,57.5,340.9,57.5,340.9z"/>
			</defs>
			<clipPath id="SVGID_35_">
				<use xlink:href="#SVGID_34_"  style="overflow:visible;"/>
			</clipPath>
			<rect x="31" y="325.8" class="st18" width="34" height="20.1"/>
		</g>
		<g>
			<defs>
				<path id="SVGID_36_" d="M42,343.2c-1.4,0-2.5-1.1-2.5-2.5s1.1-2.5,2.5-2.5c1.4,0,2.5,1.1,2.5,2.5S43.4,343.2,42,343.2z
					 M42,342.2c0.8,0,1.5-0.7,1.5-1.5s-0.7-1.5-1.5-1.5s-1.5,0.7-1.5,1.5S41.2,342.2,42,342.2z"/>
			</defs>
			<clipPath id="SVGID_37_">
				<use xlink:href="#SVGID_36_"  style="overflow:visible;"/>
			</clipPath>
			<rect x="34.5" y="333.2" class="st19" width="15" height="15"/>
		</g>
		<g>
			<defs>
				<path id="SVGID_38_" d="M54,343.2c-1.4,0-2.5-1.1-2.5-2.5s1.1-2.5,2.5-2.5s2.5,1.1,2.5,2.5S55.4,343.2,54,343.2z M54,342.2
					c0.8,0,1.5-0.7,1.5-1.5s-0.7-1.5-1.5-1.5s-1.5,0.7-1.5,1.5S53.2,342.2,54,342.2z"/>
			</defs>
			<clipPath id="SVGID_39_">
				<use xlink:href="#SVGID_38_"  style="overflow:visible;"/>
			</clipPath>
			<rect x="46.5" y="333.2" class="st20" width="15" height="15"/>
		</g>
		<g>
			<defs>
				<rect id="SVGID_40_" x="40" y="328.8" width="9" height="1"/>
			</defs>
			<clipPath id="SVGID_41_">
				<use xlink:href="#SVGID_40_"  style="overflow:visible;"/>
			</clipPath>
			<rect x="35" y="323.8" class="st21" width="19" height="11"/>
		</g>
	</g>
	<g>
		<g>
			<defs>
				<path id="SVGID_42_" d="M46,373.1l-0.3,0.2h-8l-0.2-0.3l1.1-1.1h8.6L46,373.1z M59.3,371.9l-0.6,0.6l-0.7,0.7h-3.7l-1.3-1.3h2.2
					l2.1-2.1l-0.6-1.5l-4.8-2.5l-1.9-2.9l-1.5-0.8l-1,0.3l-0.5,2.4l1.7,2.5l-1.9,1.1h-1.4l0.1-0.6l-1.8-1.7H39l-1.8,1.7l0.1,0.6
					l-1.3,1.7l1.2,1.8l-0.9,1v0.3l0.8,0.8h7.3h1.8l2-2l3.8,0l1.3,1.3h-5.1l0.6,0.8h9.8l1.4-1.5L59.3,371.9z"/>
			</defs>
			<clipPath id="SVGID_43_">
				<use xlink:href="#SVGID_42_"  style="overflow:visible;"/>
			</clipPath>
			<rect x="31.1" y="357" class="st22" width="33.9" height="21.9"/>
		</g>
	</g>
	<g>
		<g>
			<defs>
				<path id="SVGID_44_" d="M14,373.1l-0.3,0.2h-8L5.4,373l1.1-1.1h8.6L14,373.1z M27.3,371.9l-0.6,0.6l-0.7,0.7l-3.7,0l-1.3-1.3
					l2.2,0l2.1-2.1l-0.6-1.5l-4.8-2.5l-1.9-2.9l-1.5-0.8l-1,0.3l-0.5,2.4l1.7,2.5l-1.9,1.1h-1.4l0.1-0.6l-1.8-1.7H7l-1.8,1.7
					l0.1,0.6l-1.3,1.7l1.2,1.8l-0.9,1v0.3l0.8,0.8h7.3h1.8l2-2l3.8,0l1.3,1.3h-5.1l0.6,0.8h9.8l1.4-1.5L27.3,371.9z"/>
			</defs>
			<clipPath id="SVGID_45_">
				<use xlink:href="#SVGID_44_"  style="overflow:visible;"/>
			</clipPath>
			<path class="st23" d="M14,373.1l-0.3,0.2h-8L5.4,373l1.1-1.1h8.6L14,373.1z M27.3,371.9l-0.6,0.6l-0.7,0.7l-3.7,0l-1.3-1.3l2.2,0
				l2.1-2.1l-0.6-1.5l-4.8-2.5l-1.9-2.9l-1.5-0.8l-1,0.3l-0.5,2.4l1.7,2.5l-1.9,1.1h-1.4l0.1-0.6l-1.8-1.7H7l-1.8,1.7l0.1,0.6
				l-1.3,1.7l1.2,1.8l-0.9,1v0.3l0.8,0.8h7.3h1.8l2-2l3.8,0l1.3,1.3h-5.1l0.6,0.8h9.8l1.4-1.5L27.3,371.9z"/>
		</g>
	</g>
	<g>
		<g>
			<defs>
				<path id="SVGID_46_" d="M48,497.4c0-0.2,0.1-0.3,0.2-0.4l2.6-1.9l-1.9,2.6c-0.1,0.1-0.2,0.2-0.4,0.2c-0.2,0-0.3,0-0.4-0.2
					C48,497.7,47.9,497.5,48,497.4z M48.6,498.6c0.3,0,0.7-0.2,0.9-0.5l3.1-4.3c0.1-0.1,0.1-0.3,0-0.4c-0.1-0.1-0.3-0.1-0.4,0
					l-4.3,3.1c-0.3,0.2-0.5,0.5-0.5,0.9c0,0.3,0.1,0.7,0.3,0.9C47.9,498.5,48.2,498.6,48.6,498.6C48.5,498.6,48.5,498.6,48.6,498.6z
					"/>
			</defs>
			<clipPath id="SVGID_47_">
				<use xlink:href="#SVGID_46_"  style="overflow:visible;"/>
			</clipPath>
			<rect x="43.1" y="489.1" class="st24" width="13.7" height="13.7"/>
		</g>
		<g>
			<defs>
				<path id="SVGID_48_" d="M48,487.9v-1h-1.2c-0.1,0-0.2-0.1-0.2-0.2c0-0.1,0.1-0.2,0.2-0.2h3c0.1,0,0.2,0.1,0.2,0.2
					c0,0.1-0.1,0.2-0.2,0.2h-1.2v1c-0.1,0-0.2,0-0.3,0c0,0,0,0,0,0c0,0,0,0,0,0c-0.1,0-0.1,0-0.2,0C48,487.9,48,487.9,48,487.9z
					 M56,488.7l0.5,0.5l-0.5,0.5l-0.5-0.5L56,488.7z M56,492.5C56,492.5,56,492.4,56,492.5C56,492.4,56,492.4,56,492.5
					c-0.4-0.6-0.8-1.2-1.2-1.6l0.7-0.7l0.5,0.5l1.4-1.4l-1.4-1.4l-1.4,1.4l0.5,0.5l-0.7,0.7c-0.5-0.5-1-0.9-1.6-1.2c0,0,0,0,0,0
					c0,0,0,0,0,0c-1-0.6-2.2-1-3.4-1.1v-0.4h0.5c0.5,0,0.8-0.4,0.8-0.8c0-0.5-0.4-0.8-0.8-0.8h-3c-0.5,0-0.8,0.4-0.8,0.8
					c0,0.5,0.4,0.8,0.8,0.8h0.5v0.4c-0.4,0-0.7,0.1-1.1,0.2c-0.2,0-0.3,0.2-0.3,0.4c0,0.2,0.2,0.3,0.4,0.3c0.3-0.1,0.6-0.1,0.9-0.2
					l0.4,0c0.1,0,0.2,0,0.3,0v0.7c0,0.2,0.1,0.3,0.3,0.3c0.2,0,0.3-0.1,0.3-0.3v-0.7c1.3,0.1,2.4,0.4,3.5,0.9l-0.3,0.6
					c-0.1,0.2,0,0.4,0.1,0.5c0.1,0,0.1,0,0.2,0c0.1,0,0.2-0.1,0.3-0.2l0.3-0.6c1,0.7,1.9,1.5,2.6,2.6l-0.6,0.3
					c-0.2,0.1-0.2,0.3-0.1,0.5c0.1,0.1,0.2,0.2,0.3,0.2c0.1,0,0.1,0,0.2,0l0.6-0.3c0.6,1.1,0.9,2.3,0.9,3.5h-0.7
					c-0.2,0-0.3,0.1-0.3,0.3s0.1,0.3,0.3,0.3h0.7c-0.1,1.3-0.4,2.5-0.9,3.5l-0.6-0.3c-0.2-0.1-0.4,0-0.5,0.1c-0.1,0.2,0,0.4,0.1,0.5
					l0.6,0.3c-0.7,1-1.5,1.9-2.6,2.6l-0.3-0.6c-0.1-0.2-0.3-0.2-0.5-0.1c-0.2,0.1-0.2,0.3-0.1,0.5l0.3,0.6c-1.1,0.6-2.2,0.9-3.5,0.9
					v-0.7c0-0.2-0.1-0.3-0.3-0.3s-0.3,0.1-0.3,0.3v0.7c-0.5,0-1.1-0.1-1.6-0.2c-0.2,0-0.4,0.1-0.4,0.3c0,0.2,0.1,0.4,0.3,0.4
					c0.7,0.2,1.3,0.2,2,0.2c0,0,0,0,0,0c0,0,0,0,0,0c0,0,0,0,0,0c1.6,0,3.1-0.4,4.4-1.2c0,0,0,0,0,0c0,0,0,0,0,0
					c1.3-0.8,2.5-1.9,3.3-3.3c0,0,0,0,0,0c0,0,0,0,0,0c0.8-1.3,1.2-2.8,1.2-4.5S56.8,493.8,56,492.5z"/>
			</defs>
			<clipPath id="SVGID_49_">
				<use xlink:href="#SVGID_48_"  style="overflow:visible;"/>
			</clipPath>
			<rect x="41.8" y="481.8" class="st25" width="19.8" height="28.3"/>
		</g>
		<g>
			<defs>
				<path id="SVGID_50_" d="M45.3,490.6h-1.7c-0.2,0-0.3,0.1-0.3,0.3s0.1,0.3,0.3,0.3h1.7c0.2,0,0.3-0.1,0.3-0.3
					S45.5,490.6,45.3,490.6z"/>
			</defs>
			<clipPath id="SVGID_51_">
				<use xlink:href="#SVGID_50_"  style="overflow:visible;"/>
			</clipPath>
			<rect x="39.1" y="486.4" class="st26" width="10.7" height="9"/>
		</g>
		<g>
			<defs>
				<path id="SVGID_52_" d="M45.3,492.9H42c-0.2,0-0.3,0.1-0.3,0.3c0,0.2,0.1,0.3,0.3,0.3h3.3c0.2,0,0.3-0.1,0.3-0.3
					C45.6,493.1,45.5,492.9,45.3,492.9z"/>
			</defs>
			<clipPath id="SVGID_53_">
				<use xlink:href="#SVGID_52_"  style="overflow:visible;"/>
			</clipPath>
			<rect x="37.5" y="488.8" class="st27" width="12.3" height="9"/>
		</g>
		<g>
			<defs>
				<path id="SVGID_54_" d="M45.3,495.3h-5c-0.2,0-0.3,0.1-0.3,0.3c0,0.2,0.1,0.3,0.3,0.3h5c0.2,0,0.3-0.1,0.3-0.3
					C45.6,495.4,45.5,495.3,45.3,495.3z"/>
			</defs>
			<clipPath id="SVGID_55_">
				<use xlink:href="#SVGID_54_"  style="overflow:visible;"/>
			</clipPath>
			<rect x="35.8" y="491.1" class="st28" width="14" height="9"/>
		</g>
		<g>
			<defs>
				<path id="SVGID_56_" d="M45.3,497.6H39c-0.2,0-0.3,0.1-0.3,0.3s0.1,0.3,0.3,0.3h6.3c0.2,0,0.3-0.1,0.3-0.3
					S45.5,497.6,45.3,497.6z"/>
			</defs>
			<clipPath id="SVGID_57_">
				<use xlink:href="#SVGID_56_"  style="overflow:visible;"/>
			</clipPath>
			<rect x="34.5" y="493.4" class="st29" width="15.3" height="9"/>
		</g>
		<g>
			<defs>
				<path id="SVGID_58_" d="M45.3,499.9H41c-0.2,0-0.3,0.1-0.3,0.3c0,0.2,0.1,0.3,0.3,0.3h4.3c0.2,0,0.3-0.1,0.3-0.3
					C45.6,500.1,45.5,499.9,45.3,499.9z"/>
			</defs>
			<clipPath id="SVGID_59_">
				<use xlink:href="#SVGID_58_"  style="overflow:visible;"/>
			</clipPath>
			<rect x="36.5" y="495.8" class="st30" width="13.3" height="9"/>
		</g>
		<g>
			<defs>
				<path id="SVGID_60_" d="M45.3,502.3H43c-0.2,0-0.3,0.1-0.3,0.3c0,0.2,0.1,0.3,0.3,0.3h2.3c0.2,0,0.3-0.1,0.3-0.3
					C45.6,502.4,45.5,502.3,45.3,502.3z"/>
			</defs>
			<clipPath id="SVGID_61_">
				<use xlink:href="#SVGID_60_"  style="overflow:visible;"/>
			</clipPath>
			<rect x="38.5" y="498.1" class="st31" width="11.3" height="9"/>
		</g>
	</g>
	<g>
		<g>
			<defs>
				<path id="SVGID_62_" d="M44.1,538c-0.1,0-0.1,0-0.2,0c-0.1-0.1-0.2-0.2-0.1-0.4l3.2-8.7l-3.8-1.1c-0.1,0-0.2-0.1-0.2-0.2
					c0-0.1,0-0.2,0.1-0.3l7.8-9.2c0.1-0.1,0.2-0.1,0.4-0.1c0.1,0.1,0.2,0.2,0.1,0.4l-2.2,7.8l3.8,1.1c0.1,0,0.2,0.1,0.2,0.2
					c0,0.1,0,0.2-0.1,0.3l-8.7,10.2C44.2,538,44.2,538,44.1,538z"/>
			</defs>
			<clipPath id="SVGID_63_">
				<use xlink:href="#SVGID_62_"  style="overflow:visible;"/>
			</clipPath>
			<path class="st32" d="M44.1,538c-0.1,0-0.1,0-0.2,0c-0.1-0.1-0.2-0.2-0.1-0.4l3.2-8.7l-3.8-1.1c-0.1,0-0.2-0.1-0.2-0.2
				c0-0.1,0-0.2,0.1-0.3l7.8-9.2c0.1-0.1,0.2-0.1,0.4-0.1c0.1,0.1,0.2,0.2,0.1,0.4l-2.2,7.8l3.8,1.1c0.1,0,0.2,0.1,0.2,0.2
				c0,0.1,0,0.2-0.1,0.3l-8.7,10.2C44.2,538,44.2,538,44.1,538z"/>
		</g>
	</g>
</g>
<g id="tr">
</g>
<g id="ic">
	<g>
		<g>
			<defs>
				<path id="SVGID_64_" d="M24.4,87.6H7.6c-0.4,0-0.6,0.3-0.6,0.6c0,0.3,0.3,0.6,0.6,0.6h16.8c0.4,0,0.6-0.3,0.6-0.6
					C25.1,87.9,24.8,87.6,24.4,87.6z"/>
			</defs>
			<clipPath id="SVGID_65_">
				<use xlink:href="#SVGID_64_"  style="overflow:visible;"/>
			</clipPath>
			<g class="st33">
				<defs>
					<rect id="SVGID_66_" x="-357.2" y="-11" width="1440" height="5174"/>
				</defs>
				<clipPath id="SVGID_67_">
					<use xlink:href="#SVGID_66_"  style="overflow:visible;"/>
				</clipPath>
				<rect x="2" y="82.6" class="st34" width="28.1" height="11.3"/>
			</g>
		</g>
		<g>
			<defs>
				<path id="SVGID_68_" d="M8.2,82.3l7.6-7.6l2.1,2.1l-7.6,7.6l-2.1,0L8.2,82.3z M17.9,72.6l2.1,2.1l-1.2,1.2l-2.1-2.1L17.9,72.6z
					 M7,82l0,3c0,0.2,0.1,0.3,0.2,0.5s0.3,0.2,0.4,0.2l3,0c0.2,0,0.3-0.1,0.4-0.2l10.3-10.3c0.2-0.2,0.2-0.6,0-0.9l-3-3
					c-0.2-0.2-0.6-0.2-0.9,0l-2.1,2.1l-8.2,8.2C7,81.7,7,81.9,7,82z"/>
			</defs>
			<clipPath id="SVGID_69_">
				<use xlink:href="#SVGID_68_"  style="overflow:visible;"/>
			</clipPath>
			<g class="st35">
				<defs>
					<rect id="SVGID_70_" x="-357.2" y="-11" width="1440" height="5174"/>
				</defs>
				<clipPath id="SVGID_71_">
					<use xlink:href="#SVGID_70_"  style="overflow:visible;"/>
				</clipPath>
				<rect x="1.9" y="66.1" class="st36" width="24.6" height="24.6"/>
			</g>
		</g>
	</g>
	<g>
		<defs>
			<path id="SVGID_72_" d="M40.3,78.7c0-3.5,2.9-6.4,6.4-6.4c3.5,0,6.4,2.9,6.4,6.4c0,3.5-2.9,6.4-6.4,6.4
				C43.1,85.1,40.3,82.2,40.3,78.7z M51.7,84.6l4.3,4.3c0.1,0.1,0.3,0.2,0.4,0.2c0.2,0,0.3-0.1,0.4-0.2c0.2-0.2,0.2-0.6,0-0.9
				l-4.3-4.3c1.1-1.3,1.8-3.1,1.8-5c0-4.2-3.5-7.7-7.7-7.7S39,74.4,39,78.7c0,4.2,3.5,7.7,7.7,7.7C48.6,86.4,50.3,85.7,51.7,84.6z"
				/>
		</defs>
		<clipPath id="SVGID_73_">
			<use xlink:href="#SVGID_72_"  style="overflow:visible;"/>
		</clipPath>
		<rect x="34" y="66" class="st37" width="28" height="28"/>
	</g>
	<g>
		<defs>
			<path id="SVGID_74_" d="M11.7,174.7c-0.2,0.2-0.2,0.6,0,0.8l2.8,2.8c0.1,0.1,0.3,0.2,0.4,0.2c0.2,0,0.3-0.1,0.4-0.2l8.5-8.5
				c0.2-0.2,0.2-0.6,0-0.8c-0.2-0.2-0.6-0.2-0.8,0l-3,3c-1.3-1.6-3.2-2.5-5.2-2.5c-1,0-1.9,0.2-2.7,0.6c-0.8,0.4-1.6,0.9-2.2,1.6
				c-0.6,0.7-1.1,1.4-1.4,2.3c-0.3,0.9-0.5,1.8-0.4,2.8c0.2,3.3,2.9,6,6.2,6.2c0.2,0,0.3,0,0.5,0c1.5,0,3-0.5,4.2-1.5
				c1.3-1.1,2.2-2.6,2.4-4.2c0.1-0.3,0.1-0.7,0.1-1c0-0.3-0.3-0.6-0.6-0.6c-0.3,0-0.6,0.3-0.6,0.6c0,0.3,0,0.6-0.1,0.9
				c-0.4,2.8-3,4.9-5.9,4.7c-2.7-0.2-5-2.4-5.2-5.2c-0.1-1.6,0.4-3.1,1.5-4.2c1.1-1.1,2.5-1.8,4.1-1.8c1.7,0,3.3,0.8,4.4,2.2
				l-4.2,4.2l-2.4-2.4C12.3,174.5,11.9,174.5,11.7,174.7z"/>
		</defs>
		<clipPath id="SVGID_75_">
			<use xlink:href="#SVGID_74_"  style="overflow:visible;"/>
		</clipPath>
		<rect x="3" y="163.9" class="st38" width="26" height="24.2"/>
	</g>
	<g>
		<g>
			<defs>
				<path id="SVGID_76_" d="M50.2,175.5h-4.4c-0.3,0-0.5,0.2-0.5,0.5s0.2,0.5,0.5,0.5h4.4c0.3,0,0.5-0.2,0.5-0.5
					S50.5,175.5,50.2,175.5z"/>
			</defs>
			<clipPath id="SVGID_77_">
				<use xlink:href="#SVGID_76_"  style="overflow:visible;"/>
			</clipPath>
			<rect x="40.3" y="170.5" class="st39" width="15.4" height="11"/>
		</g>
		<g>
			<defs>
				<path id="SVGID_78_" d="M54.5,175.5h-2.3c-0.3,0-0.5,0.2-0.5,0.5s0.2,0.5,0.5,0.5h1.7c-0.3,3.1-2.8,5.5-5.9,5.5
					c-3.3,0-6-2.7-6-6s2.7-6,6-6c2,0,3.9,1,5,2.7c0.2,0.2,0.5,0.3,0.7,0.1c0.2-0.2,0.3-0.5,0.1-0.7c-1.3-2-3.5-3.2-5.9-3.2
					c-1.9,0-3.6,0.7-4.9,2.1c-1.3,1.3-2.1,3.1-2.1,4.9s0.7,3.6,2.1,4.9c1.3,1.3,3.1,2.1,4.9,2.1s3.6-0.7,4.9-2.1
					c1.3-1.3,2.1-3.1,2.1-4.9C55,175.7,54.8,175.5,54.5,175.5z"/>
			</defs>
			<clipPath id="SVGID_79_">
				<use xlink:href="#SVGID_78_"  style="overflow:visible;"/>
			</clipPath>
			<rect x="36" y="164" class="st40" width="24" height="24"/>
		</g>
	</g>
	<g>
		<g>
			<defs>
				<path id="SVGID_80_" d="M82,174.9c0.2-0.2,0.2-0.5,0-0.7c-0.2-0.2-0.5-0.2-0.7,0l-1.2,1.2l-1.2-1.2c-0.2-0.2-0.5-0.2-0.7,0
					c-0.2,0.2-0.2,0.5,0,0.7l1.2,1.2l-1.2,1.2c-0.2,0.2-0.2,0.5,0,0.7c0.1,0.1,0.2,0.2,0.4,0.2c0.1,0,0.3-0.1,0.4-0.2l1.2-1.2
					l1.2,1.2c0.1,0.1,0.2,0.2,0.4,0.2c0.1,0,0.3-0.1,0.4-0.2c0.2-0.2,0.2-0.5,0-0.7l-1.2-1.2L82,174.9z"/>
			</defs>
			<clipPath id="SVGID_81_">
				<use xlink:href="#SVGID_80_"  style="overflow:visible;"/>
			</clipPath>
			<rect x="73" y="169" class="st41" width="14.2" height="14.2"/>
		</g>
		<g>
			<defs>
				<path id="SVGID_82_" d="M84.9,171.1c-0.2-0.2-0.5-0.2-0.7,0l-1.6,1.6c-0.2,0.2-0.2,0.5,0,0.7c0.2,0.2,0.5,0.2,0.7,0l1.2-1.2
					c2,2.3,1.9,5.9-0.3,8.1c-1.1,1.1-2.6,1.7-4.2,1.7s-3.1-0.6-4.2-1.7c-2.3-2.3-2.3-6.1,0-8.4c1.4-1.4,3.5-2,5.4-1.6
					c0.3,0.1,0.6-0.1,0.6-0.4c0.1-0.3-0.1-0.6-0.4-0.6c-2.3-0.5-4.7,0.2-6.4,1.9c-1.3,1.3-2,3.1-2,4.9c0,1.9,0.7,3.6,2,4.9
					c1.3,1.3,3.1,2,4.9,2s3.6-0.7,4.9-2c1.3-1.3,2-3.1,2-4.9C87,174.1,86.3,172.4,84.9,171.1z"/>
			</defs>
			<clipPath id="SVGID_83_">
				<use xlink:href="#SVGID_82_"  style="overflow:visible;"/>
			</clipPath>
			<rect x="68" y="164" class="st42" width="24" height="24"/>
		</g>
	</g>
	<g>
		<defs>
			<path id="SVGID_84_" d="M11.7,206.7c-0.2,0.2-0.2,0.6,0,0.8l2.8,2.8c0.1,0.1,0.3,0.2,0.4,0.2c0.2,0,0.3-0.1,0.4-0.2l8.5-8.5
				c0.2-0.2,0.2-0.6,0-0.8c-0.2-0.2-0.6-0.2-0.8,0l-3,3c-1.3-1.6-3.2-2.5-5.2-2.5c-1,0-1.9,0.2-2.7,0.6c-0.8,0.4-1.6,0.9-2.2,1.6
				c-0.6,0.7-1.1,1.4-1.4,2.3c-0.3,0.9-0.5,1.8-0.4,2.8c0.2,3.3,2.9,6,6.2,6.2c0.2,0,0.3,0,0.5,0c1.5,0,3-0.5,4.2-1.5
				c1.3-1.1,2.2-2.6,2.4-4.2c0.1-0.3,0.1-0.7,0.1-1c0-0.3-0.3-0.6-0.6-0.6c-0.3,0-0.6,0.3-0.6,0.6c0,0.3,0,0.6-0.1,0.9
				c-0.4,2.8-3,4.9-5.9,4.7c-2.7-0.2-5-2.4-5.2-5.2c-0.1-1.6,0.4-3.1,1.5-4.2c1.1-1.1,2.5-1.8,4.1-1.8c1.7,0,3.3,0.8,4.4,2.2
				l-4.2,4.2l-2.4-2.4C12.3,206.5,11.9,206.5,11.7,206.7z"/>
		</defs>
		<use xlink:href="#SVGID_84_"  style="overflow:visible;fill-rule:evenodd;clip-rule:evenodd;fill:#FFFFFF;"/>
		<clipPath id="SVGID_85_">
			<use xlink:href="#SVGID_84_"  style="overflow:visible;"/>
		</clipPath>
		<rect x="3" y="195.9" class="st43" width="26" height="24.2"/>
	</g>
	<g>
		<g>
			<defs>
				<path id="SVGID_86_" d="M50.2,207.5h-4.4c-0.3,0-0.5,0.2-0.5,0.5s0.2,0.5,0.5,0.5h4.4c0.3,0,0.5-0.2,0.5-0.5
					S50.5,207.5,50.2,207.5z"/>
			</defs>
			<use xlink:href="#SVGID_86_"  style="overflow:visible;fill-rule:evenodd;clip-rule:evenodd;fill:#FFFFFF;"/>
			<clipPath id="SVGID_87_">
				<use xlink:href="#SVGID_86_"  style="overflow:visible;"/>
			</clipPath>
			<rect x="40.3" y="202.5" class="st44" width="15.4" height="11"/>
		</g>
		<g>
			<defs>
				<path id="SVGID_88_" d="M54.5,207.5h-2.3c-0.3,0-0.5,0.2-0.5,0.5s0.2,0.5,0.5,0.5h1.7c-0.3,3.1-2.8,5.5-5.9,5.5
					c-3.3,0-6-2.7-6-6s2.7-6,6-6c2,0,3.9,1,5,2.7c0.2,0.2,0.5,0.3,0.7,0.1c0.2-0.2,0.3-0.5,0.1-0.7c-1.3-2-3.5-3.2-5.9-3.2
					c-1.9,0-3.6,0.7-4.9,2.1c-1.3,1.3-2.1,3.1-2.1,4.9s0.7,3.6,2.1,4.9c1.3,1.3,3.1,2.1,4.9,2.1s3.6-0.7,4.9-2.1
					c1.3-1.3,2.1-3.1,2.1-4.9C55,207.7,54.8,207.5,54.5,207.5z"/>
			</defs>
			<use xlink:href="#SVGID_88_"  style="overflow:visible;fill-rule:evenodd;clip-rule:evenodd;fill:#FFFFFF;"/>
			<clipPath id="SVGID_89_">
				<use xlink:href="#SVGID_88_"  style="overflow:visible;"/>
			</clipPath>
			<rect x="36" y="196" class="st45" width="24" height="24"/>
		</g>
	</g>
	<g>
		<g>
			<defs>
				<path id="SVGID_90_" d="M82,206.9c0.2-0.2,0.2-0.5,0-0.7c-0.2-0.2-0.5-0.2-0.7,0l-1.2,1.2l-1.2-1.2c-0.2-0.2-0.5-0.2-0.7,0
					c-0.2,0.2-0.2,0.5,0,0.7l1.2,1.2l-1.2,1.2c-0.2,0.2-0.2,0.5,0,0.7c0.1,0.1,0.2,0.2,0.4,0.2c0.1,0,0.3-0.1,0.4-0.2l1.2-1.2
					l1.2,1.2c0.1,0.1,0.2,0.2,0.4,0.2c0.1,0,0.3-0.1,0.4-0.2c0.2-0.2,0.2-0.5,0-0.7l-1.2-1.2L82,206.9z"/>
			</defs>
			<use xlink:href="#SVGID_90_"  style="overflow:visible;fill-rule:evenodd;clip-rule:evenodd;fill:#FFFFFF;"/>
			<clipPath id="SVGID_91_">
				<use xlink:href="#SVGID_90_"  style="overflow:visible;"/>
			</clipPath>
			<rect x="73" y="201" class="st46" width="14.2" height="14.2"/>
		</g>
		<g>
			<defs>
				<path id="SVGID_92_" d="M84.9,203.1c-0.2-0.2-0.5-0.2-0.7,0l-1.6,1.6c-0.2,0.2-0.2,0.5,0,0.7c0.2,0.2,0.5,0.2,0.7,0l1.2-1.2
					c2,2.3,1.9,5.9-0.3,8.1c-1.1,1.1-2.6,1.7-4.2,1.7s-3.1-0.6-4.2-1.7c-2.3-2.3-2.3-6.1,0-8.4c1.4-1.4,3.5-2,5.4-1.6
					c0.3,0.1,0.6-0.1,0.6-0.4c0.1-0.3-0.1-0.6-0.4-0.6c-2.3-0.5-4.7,0.2-6.4,1.9c-1.3,1.3-2,3.1-2,4.9c0,1.9,0.7,3.6,2,4.9
					c1.3,1.3,3.1,2,4.9,2s3.6-0.7,4.9-2c1.3-1.3,2-3.1,2-4.9C87,206.1,86.3,204.4,84.9,203.1z"/>
			</defs>
			<use xlink:href="#SVGID_92_"  style="overflow:visible;fill-rule:evenodd;clip-rule:evenodd;fill:#FFFFFF;"/>
			<clipPath id="SVGID_93_">
				<use xlink:href="#SVGID_92_"  style="overflow:visible;"/>
			</clipPath>
			<rect x="68" y="196" class="st47" width="24" height="24"/>
		</g>
	</g>
	<g>
		<defs>
			<path id="SVGID_94_" d="M74,82c1.1,0,2-0.9,2-2s-0.9-2-2-2s-2,0.9-2,2S72.9,82,74,82z M80,82c1.1,0,2-0.9,2-2s-0.9-2-2-2
				s-2,0.9-2,2S78.9,82,80,82z M86,82c1.1,0,2-0.9,2-2s-0.9-2-2-2s-2,0.9-2,2S84.9,82,86,82z"/>
		</defs>
		<clipPath id="SVGID_95_">
			<use xlink:href="#SVGID_94_"  style="overflow:visible;"/>
		</clipPath>
		<rect x="67" y="73" class="st48" width="26" height="14"/>
	</g>
	<g>
		<g>
			<g>
				<path id="SVGID_14_" class="st49" d="M80,24c-1.5,0-3-0.4-4.2-1.2l0.2-1.3c0-0.3-0.1-0.6-0.3-0.8l-1-0.9l-1-1.6
					c-0.2-0.3-0.5-0.5-0.8-0.5H72c-0.1-0.6-0.2-1.2-0.2-1.9c0-0.1,0-0.1,0-0.2l1.7-2.5c0.1-0.1,0.2-0.2,0.3-0.3l0.9-0.6
					c0.5-0.3,0.8-0.9,0.8-1.5V9c0.7-0.5,1.6-0.9,2.5-1.1l0.1,0.5v0.1l-0.7,1.3c0,0.1-0.1,0.3-0.1,0.3c-0.1,0.3,0,0.6,0.2,0.8
					s0.4,0.3,0.7,0.3c0,0,0.4,0,0.7-0.3l1.5-1.7l0,0l1-0.4c0.1-0.1,0.3-0.1,0.4-0.3l0.3-0.6c0.6,0.2,1.2,0.4,1.8,0.7l-0.5,1.9l0,0
					l-1.8,0.2c-0.2,0-0.3,0.1-0.5,0.2L80,12l0,0l-1,0.3c-0.3,0.1-0.6,0.4-0.6,0.7s0.1,0.6,0.4,0.8c0.1,0.1,0.2,0.1,0.3,0.1l3.3,0.2
					l0,0l0.1,0.2l0,0l-1.2,0.8l0,0l-1.8-0.2l-1.3-0.5c-0.3-0.1-0.6-0.1-0.8,0.1l-1.3,1c-0.2,0.1-0.3,0.3-0.3,0.5l-0.2,1.4
					c0,0.2,0,0.4,0.1,0.5l0.8,1.5c0.1,0.2,0.4,0.4,0.6,0.4l1.5,0.1l0,0l0.3,0.9l0.3,1.6c0,0.2,0.2,0.4,0.4,0.5l0.7,0.4
					c0.1,0.1,0.3,0.1,0.4,0.1c0.2,0,0.4-0.1,0.6-0.2l1.1-1.1c0.1-0.1,0.2-0.3,0.2-0.5l0.1-1.9l0,0l0.9-1.3c0.2-0.3,0.2-0.8-0.1-1
					l-0.3-0.5l0,0l0.1-0.5l0,0l0,0l1,0.6c0.3,0.2,0.8,0.2,1.1-0.1l0.4-0.4C86,16.3,86,16,86,15.8c-0.1-0.3-0.3-0.5-0.5-0.6l0,0l0,0
					l0,0l0,0l0.5-0.3l0,0l0.5,0.4c0.2,0.2,0.5,0.2,0.8,0.1c0.3-0.1,0.4-0.3,0.5-0.6l0.1-0.3l0,0h0.2c0.1,0.5,0.1,0.9,0.1,1.4
					C88.2,20.4,84.5,24,80,24z M75.2,21.4l-0.2,1c-1.3-1-2.3-2.3-2.8-3.9h0.5c0.1,0,0.1,0,0.2,0.1l1,1.6c0,0.1,0.1,0.1,0.2,0.2
					l1,0.9C75.1,21.3,75.2,21.4,75.2,21.4z M74.6,9.6v1.2c0,0.3-0.2,0.6-0.4,0.8l-0.9,0.6c-0.2,0.1-0.4,0.3-0.5,0.5L72,13.9
					C72.4,12.2,73.4,10.7,74.6,9.6z M78.1,10l0.7-1.3c0.1-0.2,0.1-0.4,0.1-0.6l-0.1-0.4c0.4-0.1,0.8-0.1,1.2-0.1
					c0.4,0,0.8,0,1.2,0.1l-0.1,0.1l-1,0.4c-0.1,0.1-0.3,0.1-0.4,0.3l-1.5,1.7c0,0,0,0-0.1,0H78C78.1,10.1,78.1,10,78.1,10z
					 M84.2,10.7l0.4-1.6c1.6,1.1,2.8,2.7,3.3,4.6h-0.2c-0.3,0.1-0.6,0.3-0.6,0.6L87,14.6l0,0l0,0l-0.5-0.4c-0.2-0.2-0.6-0.2-0.9-0.1
					L85,14.5c-0.3,0.2-0.5,0.4-0.4,0.8c0,0.3,0.2,0.6,0.5,0.7l0,0l0,0l0,0l-0.4,0.4l0,0l-1-0.6c-0.2-0.1-0.5-0.2-0.8-0.1
					c-0.3,0.1-0.4,0.3-0.5,0.6l-0.1,0.5c0,0.3,0,0.5,0.2,0.7L83,18l0,0l-0.9,1.3C82,19.4,82,19.6,82,19.7l-0.1,1.9l0,0L81,22.7l0,0
					l-0.7-0.4l0,0c0,0-0.4-1.6-0.4-1.7l-0.3-0.9c-0.1-0.3-0.4-0.5-0.7-0.5l-1.5-0.1l0,0l-0.8-1.5l0,0l0.2-1.4l0,0l1.3-1l0,0l1.3,0.5
					c0.1,0,0.1,0,0.2,0.1l1.7,0.2c0.2,0,0.4,0,0.6-0.1l1.2-0.8c0.3-0.2,0.4-0.6,0.3-1l-0.1-0.2c-0.1-0.3-0.4-0.5-0.7-0.5l-3.3-0.2
					l0,0l0,0l0,0l0,0l0,0l1-0.3c0.1,0,0.2-0.1,0.3-0.2l1.2-1.1l0,0l1.8-0.2C83.8,11.3,84.1,11,84.2,10.7z M86.4,9.5
					c-1.7-1.7-4-2.6-6.4-2.6s-4.7,0.9-6.4,2.6c-1.7,1.7-2.6,4-2.6,6.4s0.9,4.7,2.6,6.4c1.7,1.7,4,2.6,6.4,2.6s4.7-0.9,6.4-2.6
					c1.7-1.7,2.6-4,2.6-6.4C89,13.4,88.1,11.2,86.4,9.5z"/>
			</g>
			<g>
				<defs>
					<path id="SVGID_96_" d="M80,24c-1.5,0-3-0.4-4.2-1.2l0.2-1.3c0-0.3-0.1-0.6-0.3-0.8l-1-0.9l-1-1.6c-0.2-0.3-0.5-0.5-0.8-0.5H72
						c-0.1-0.6-0.2-1.2-0.2-1.9c0-0.1,0-0.1,0-0.2l1.7-2.5c0.1-0.1,0.2-0.2,0.3-0.3l0.9-0.6c0.5-0.3,0.8-0.9,0.8-1.5V9
						c0.7-0.5,1.6-0.9,2.5-1.1l0.1,0.5v0.1l-0.7,1.3c0,0.1-0.1,0.3-0.1,0.3c-0.1,0.3,0,0.6,0.2,0.8s0.4,0.3,0.7,0.3
						c0,0,0.4,0,0.7-0.3l1.5-1.7l0,0l1-0.4c0.1-0.1,0.3-0.1,0.4-0.3l0.3-0.6c0.6,0.2,1.2,0.4,1.8,0.7l-0.5,1.9l0,0l-1.8,0.2
						c-0.2,0-0.3,0.1-0.5,0.2L80,12l0,0l-1,0.3c-0.3,0.1-0.6,0.4-0.6,0.7s0.1,0.6,0.4,0.8c0.1,0.1,0.2,0.1,0.3,0.1l3.3,0.2l0,0
						l0.1,0.2l0,0l-1.2,0.8l0,0l-1.8-0.2l-1.3-0.5c-0.3-0.1-0.6-0.1-0.8,0.1l-1.3,1c-0.2,0.1-0.3,0.3-0.3,0.5l-0.2,1.4
						c0,0.2,0,0.4,0.1,0.5l0.8,1.5c0.1,0.2,0.4,0.4,0.6,0.4l1.5,0.1l0,0l0.3,0.9l0.3,1.6c0,0.2,0.2,0.4,0.4,0.5l0.7,0.4
						c0.1,0.1,0.3,0.1,0.4,0.1c0.2,0,0.4-0.1,0.6-0.2l1.1-1.1c0.1-0.1,0.2-0.3,0.2-0.5l0.1-1.9l0,0l0.9-1.3c0.2-0.3,0.2-0.8-0.1-1
						l-0.3-0.5l0,0l0.1-0.5l0,0l0,0l1,0.6c0.3,0.2,0.8,0.2,1.1-0.1l0.4-0.4C86,16.3,86,16,86,15.8c-0.1-0.3-0.3-0.5-0.5-0.6l0,0l0,0
						l0,0l0,0l0.5-0.3l0,0l0.5,0.4c0.2,0.2,0.5,0.2,0.8,0.1c0.3-0.1,0.4-0.3,0.5-0.6l0.1-0.3l0,0h0.2c0.1,0.5,0.1,0.9,0.1,1.4
						C88.2,20.4,84.5,24,80,24z M75.2,21.4l-0.2,1c-1.3-1-2.3-2.3-2.8-3.9h0.5c0.1,0,0.1,0,0.2,0.1l1,1.6c0,0.1,0.1,0.1,0.2,0.2
						l1,0.9C75.1,21.3,75.2,21.4,75.2,21.4z M74.6,9.6v1.2c0,0.3-0.2,0.6-0.4,0.8l-0.9,0.6c-0.2,0.1-0.4,0.3-0.5,0.5L72,13.9
						C72.4,12.2,73.4,10.7,74.6,9.6z M78.1,10l0.7-1.3c0.1-0.2,0.1-0.4,0.1-0.6l-0.1-0.4c0.4-0.1,0.8-0.1,1.2-0.1
						c0.4,0,0.8,0,1.2,0.1l-0.1,0.1l-1,0.4c-0.1,0.1-0.3,0.1-0.4,0.3l-1.5,1.7c0,0,0,0-0.1,0H78C78.1,10.1,78.1,10,78.1,10z
						 M84.2,10.7l0.4-1.6c1.6,1.1,2.8,2.7,3.3,4.6h-0.2c-0.3,0.1-0.6,0.3-0.6,0.6L87,14.6l0,0l0,0l-0.5-0.4
						c-0.2-0.2-0.6-0.2-0.9-0.1L85,14.5c-0.3,0.2-0.5,0.4-0.4,0.8c0,0.3,0.2,0.6,0.5,0.7l0,0l0,0l0,0l-0.4,0.4l0,0l-1-0.6
						c-0.2-0.1-0.5-0.2-0.8-0.1c-0.3,0.1-0.4,0.3-0.5,0.6l-0.1,0.5c0,0.3,0,0.5,0.2,0.7L83,18l0,0l-0.9,1.3C82,19.4,82,19.6,82,19.7
						l-0.1,1.9l0,0L81,22.7l0,0l-0.7-0.4l0,0c0,0-0.4-1.6-0.4-1.7l-0.3-0.9c-0.1-0.3-0.4-0.5-0.7-0.5l-1.5-0.1l0,0l-0.8-1.5l0,0
						l0.2-1.4l0,0l1.3-1l0,0l1.3,0.5c0.1,0,0.1,0,0.2,0.1l1.7,0.2c0.2,0,0.4,0,0.6-0.1l1.2-0.8c0.3-0.2,0.4-0.6,0.3-1l-0.1-0.2
						c-0.1-0.3-0.4-0.5-0.7-0.5l-3.3-0.2l0,0l0,0l0,0l0,0l0,0l1-0.3c0.1,0,0.2-0.1,0.3-0.2l1.2-1.1l0,0l1.8-0.2
						C83.8,11.3,84.1,11,84.2,10.7z M86.4,9.5c-1.7-1.7-4-2.6-6.4-2.6s-4.7,0.9-6.4,2.6c-1.7,1.7-2.6,4-2.6,6.4s0.9,4.7,2.6,6.4
						c1.7,1.7,4,2.6,6.4,2.6s4.7-0.9,6.4-2.6c1.7-1.7,2.6-4,2.6-6.4C89,13.4,88.1,11.2,86.4,9.5z"/>
				</defs>
				<clipPath id="SVGID_97_">
					<use xlink:href="#SVGID_96_"  style="overflow:visible;"/>
				</clipPath>
				<rect x="66" y="1.8" class="st50" width="28" height="28"/>
			</g>
		</g>
	</g>
	<g>
		<g>
			<defs>
				<circle id="SVGID_98_" cx="7" cy="243.1" r="3"/>
			</defs>
			<clipPath id="SVGID_99_">
				<use xlink:href="#SVGID_98_"  style="overflow:visible;"/>
			</clipPath>
			<circle class="st51" cx="7" cy="243.1" r="3"/>
		</g>
		<g>
			<defs>
				<circle id="SVGID_100_" cx="25" cy="243.1" r="3"/>
			</defs>
			<clipPath id="SVGID_101_">
				<use xlink:href="#SVGID_100_"  style="overflow:visible;"/>
			</clipPath>
			<circle class="st52" cx="25" cy="243.1" r="3"/>
		</g>
		<g>
			<defs>
				<path id="SVGID_102_" d="M26,239l-5-1l-4.4-3.4L11,234l-2.9,4L5,238.3v1.2c0.5-0.3,1.4-0.4,2-0.4c2.2,0,4,1.8,4,4
					c0,0.3,0,0.7-0.1,1h10.3c-0.1-0.3-0.1-0.7-0.1-1c0-2.2,1.8-4,4-4C25.3,239.1,26,239,26,239z M18.8,238.8l1.3-0.3l-4-3.2
					l-4.6-0.5l0.6,5.3l0.9-0.2l-0.5-3.7l1-0.1l0.5,3.7l3.6-0.7l0.5-0.9l0.9,0.5L18.8,238.8z"/>
			</defs>
			<clipPath id="SVGID_103_">
				<use xlink:href="#SVGID_102_"  style="overflow:visible;"/>
			</clipPath>
			<path class="st53" d="M26,239l-5-1l-4.4-3.4L11,234l-2.9,4L5,238.3v1.2c0.5-0.3,1.4-0.4,2-0.4c2.2,0,4,1.8,4,4c0,0.3,0,0.7-0.1,1
				h10.3c-0.1-0.3-0.1-0.7-0.1-1c0-2.2,1.8-4,4-4C25.3,239.1,26,239,26,239z M18.8,238.8l1.3-0.3l-4-3.2l-4.6-0.5l0.6,5.3l0.9-0.2
				l-0.5-3.7l1-0.1l0.5,3.7l3.6-0.7l0.5-0.9l0.9,0.5L18.8,238.8z"/>
		</g>
	</g>
	<g>
		<g>
			<defs>
				<circle id="SVGID_104_" cx="39" cy="243.1" r="3"/>
			</defs>
			<clipPath id="SVGID_105_">
				<use xlink:href="#SVGID_104_"  style="overflow:visible;"/>
			</clipPath>
			<circle class="st54" cx="39" cy="243.1" r="3"/>
		</g>
		<g>
			<defs>
				<circle id="SVGID_106_" cx="57" cy="243.1" r="3"/>
			</defs>
			<clipPath id="SVGID_107_">
				<use xlink:href="#SVGID_106_"  style="overflow:visible;"/>
			</clipPath>
			<circle class="st55" cx="57" cy="243.1" r="3"/>
		</g>
		<g>
			<defs>
				<path id="SVGID_108_" d="M58,239l-5-1l-4.4-3.4l-5.6-0.6l-2.9,4l-3,0.3v1.3c0.5-0.3,1.3-0.5,2-0.5c2.2,0,4,1.8,4,4
					c0,0.3,0,0.7-0.1,1h10.3c-0.1-0.3-0.1-0.7-0.1-1c0-2.2,1.8-4,4-4C57.2,239.1,58,239,58,239z M50.7,238.8l1.3-0.3l-4-3.2
					l-4.6-0.5l0.6,5.3l0.9-0.2l-0.5-3.7l1-0.1l0.5,3.7l3.6-0.7l0.5-0.9l0.9,0.5L50.7,238.8z"/>
			</defs>
			<clipPath id="SVGID_109_">
				<use xlink:href="#SVGID_108_"  style="overflow:visible;"/>
			</clipPath>
			<rect x="32" y="229.1" class="st56" width="31" height="20"/>
		</g>
	</g>
	<g>
		<defs>
			<path id="SVGID_110_" d="M261-2397c0-2.2,1.8-4,4-4h222c2.2,0,4,1.8,4,4"/>
		</defs>
		<clipPath id="SVGID_111_">
			<use xlink:href="#SVGID_110_"  style="overflow:visible;"/>
		</clipPath>
		<g class="st57">
			<defs>
				<rect id="SVGID_112_" x="-701" y="-2472" width="1440" height="5174"/>
			</defs>
			<clipPath id="SVGID_113_">
				<use xlink:href="#SVGID_112_"  style="overflow:visible;"/>
			</clipPath>
		</g>
	</g>
	<g>
		<path class="st49" d="M16,105c1.8,0,3.2-1.3,3.4-3c0-0.2,0.1-0.3,0.1-0.5c0-1.9-1.6-3.5-3.5-3.5s-3.5,1.6-3.5,3.5
			c0,0.2,0,0.3,0.1,0.5C12.8,103.7,14.2,105,16,105z M16,99c1.4,0,2.5,1.1,2.5,2.5c0,0.2,0,0.3-0.1,0.5c-0.2,1.1-1.2,2-2.4,2
			s-2.2-0.9-2.4-2c0-0.2-0.1-0.3-0.1-0.5C13.5,100.1,14.6,99,16,99z"/>
		<circle class="st49" cx="16" cy="107.5" r="0.5"/>
		<circle class="st49" cx="16" cy="110.5" r="0.5"/>
		<path class="st49" d="M16,119c-1.8,0-3.2,1.3-3.4,3c0,0.2-0.1,0.3-0.1,0.5c0,1.9,1.6,3.5,3.5,3.5s3.5-1.6,3.5-3.5
			c0-0.2,0-0.3-0.1-0.5C19.2,120.3,17.8,119,16,119z M16,125c-1.4,0-2.5-1.1-2.5-2.5c0-0.2,0-0.3,0.1-0.5c0.2-1.1,1.2-2,2.4-2
			s2.2,0.9,2.4,2c0,0.2,0.1,0.3,0.1,0.5C18.5,123.9,17.4,125,16,125z"/>
		<circle class="st49" cx="16" cy="113.5" r="0.5"/>
		<circle class="st49" cx="16" cy="116.5" r="0.5"/>
	</g>
	<g>
		<g>
			<defs>
				<path id="SVGID_114_" d="M43.7,17.6c-0.2,0-0.3,0.1-0.4,0.2l-2.1,2.4v-2.1c0-0.3-0.2-0.5-0.5-0.5h-1c-0.5,0-0.9-0.4-0.9-0.9V9.1
					c0-0.5,0.4-0.9,0.9-0.9h12.8c0.5,0,0.9,0.4,0.9,0.9v7.5c0,0.5-0.4,0.9-0.9,0.9H43.7z M54.3,16.7V9.1c0-1-0.9-1.9-1.9-1.9H39.6
					c-1,0-1.9,0.9-1.9,1.9v7.5c0,1,0.9,1.9,1.9,1.9h0.5v2.3c0,0.4,0.3,0.8,0.8,0.8c0.2,0,0.4-0.1,0.6-0.3l2.4-2.8h8.5
					C53.5,18.6,54.3,17.7,54.3,16.7z"/>
			</defs>
			<use xlink:href="#SVGID_114_"  style="overflow:visible;fill-rule:evenodd;clip-rule:evenodd;fill:#FA5400;"/>
			<clipPath id="SVGID_115_">
				<use xlink:href="#SVGID_114_"  style="overflow:visible;"/>
			</clipPath>
			<rect x="32.7" y="2.2" class="st58" width="26.6" height="24.4"/>
		</g>
		<g>
			<defs>
				<path id="SVGID_116_" d="M54.5,24.5c0.1,0.2,0.4,0.3,0.6,0.3c0.1,0,0.2,0,0.3-0.1c0.3-0.1,0.5-0.4,0.5-0.7v-2.3h0.5
					c1,0,1.9-0.9,1.9-1.9v-7.5c0-1-0.9-1.9-1.9-1.9c-0.3,0-0.5,0.2-0.5,0.5c0,0.3,0.2,0.5,0.5,0.5c0.5,0,0.9,0.4,0.9,0.9v7.5
					c0,0.5-0.4,0.9-0.9,0.9h-1.1c-0.3,0-0.5,0.2-0.5,0.5v2.1l-2.1-2.4c-0.1-0.1-0.2-0.2-0.4-0.2h-7.7c-0.3,0-0.5,0.2-0.5,0.5
					c0,0.3,0.2,0.5,0.5,0.5h7.5L54.5,24.5z"/>
			</defs>
			<use xlink:href="#SVGID_116_"  style="overflow:visible;fill-rule:evenodd;clip-rule:evenodd;fill:#FA5400;"/>
			<clipPath id="SVGID_117_">
				<use xlink:href="#SVGID_116_"  style="overflow:visible;"/>
			</clipPath>
			<rect x="39.1" y="5.3" class="st59" width="24.2" height="24.4"/>
		</g>
		<g>
			<defs>
				<circle id="SVGID_118_" cx="46" cy="13.1" r="0.6"/>
			</defs>
			<use xlink:href="#SVGID_118_"  style="overflow:visible;fill-rule:evenodd;clip-rule:evenodd;fill:#FA5400;"/>
			<clipPath id="SVGID_119_">
				<use xlink:href="#SVGID_118_"  style="overflow:visible;"/>
			</clipPath>
			<rect x="40.4" y="7.5" class="st60" width="11.2" height="11.2"/>
		</g>
		<g>
			<defs>
				<circle id="SVGID_120_" cx="48.1" cy="13.1" r="0.6"/>
			</defs>
			<use xlink:href="#SVGID_120_"  style="overflow:visible;fill-rule:evenodd;clip-rule:evenodd;fill:#FA5400;"/>
			<clipPath id="SVGID_121_">
				<use xlink:href="#SVGID_120_"  style="overflow:visible;"/>
			</clipPath>
			<rect x="42.5" y="7.5" class="st61" width="11.2" height="11.2"/>
		</g>
		<g>
			<defs>
				<circle id="SVGID_122_" cx="44" cy="13.1" r="0.6"/>
			</defs>
			<use xlink:href="#SVGID_122_"  style="overflow:visible;fill-rule:evenodd;clip-rule:evenodd;fill:#FA5400;"/>
			<clipPath id="SVGID_123_">
				<use xlink:href="#SVGID_122_"  style="overflow:visible;"/>
			</clipPath>
			<rect x="38.4" y="7.5" class="st62" width="11.2" height="11.2"/>
		</g>
	</g>
	<g>
		<g>
			<defs>
				<path id="SVGID_124_" d="M23.8,44.3h-2.6l-2.8-2.8c-0.1-0.1-0.3-0.2-0.5-0.2h-3.7c-0.2,0-0.4,0.1-0.5,0.2l-2.8,2.8H8.2
					c-0.4,0-0.7,0.3-0.7,0.7V54c0,0.4,0.3,0.7,0.7,0.7h15.5c0.4,0,0.7-0.3,0.7-0.7V45C24.5,44.6,24.2,44.3,23.8,44.3z"/>
			</defs>
			<clipPath id="SVGID_125_">
				<use xlink:href="#SVGID_124_"  style="overflow:visible;"/>
			</clipPath>
			<path class="st63" d="M23.8,44.3h-2.6l-2.8-2.8c-0.1-0.1-0.3-0.2-0.5-0.2h-3.7c-0.2,0-0.4,0.1-0.5,0.2l-2.8,2.8H8.2
				c-0.4,0-0.7,0.3-0.7,0.7V54c0,0.4,0.3,0.7,0.7,0.7h15.5c0.4,0,0.7-0.3,0.7-0.7V45C24.5,44.6,24.2,44.3,23.8,44.3z"/>
		</g>
		<path class="st64" d="M16.5,45.3c-0.2,0-0.3,0-0.5,0c-1,0-2,0.4-2.6,1.2c-0.7,0.8-1,1.8-0.8,2.8c0.2,1.6,1.5,2.8,3,3
			c0.2,0,0.3,0,0.5,0c1,0,2-0.4,2.6-1.2c0.7-0.8,1-1.8,0.8-2.8C19.3,46.8,18,45.5,16.5,45.3"/>
	</g>
	<g>
		<g>
			<defs>
				<path id="SVGID_126_" d="M48.6,46.7c-0.2,0.2-0.2,0.6,0,0.8c0.9,0.9,0.9,2.3,0,3.2L44,55.2c-0.9,0.9-2.3,0.9-3.2,0l-0.7-0.7
					c-0.9-0.9-0.9-2.3,0-3.2l4.6-4.6c0.2-0.2,0.2-0.6,0-0.8c-0.2-0.2-0.6-0.2-0.8,0l-4.6,4.6c-0.6,0.6-1,1.5-1,2.3s0.3,1.7,1,2.3
					L40,56c0.6,0.6,1.5,1,2.3,1c0.9,0,1.7-0.3,2.3-1l4.6-4.6c1.3-1.3,1.3-3.4,0-4.7C49.1,46.5,48.8,46.5,48.6,46.7z"/>
			</defs>
			<clipPath id="SVGID_127_">
				<use xlink:href="#SVGID_126_"  style="overflow:visible;"/>
			</clipPath>
			<rect x="33.4" y="40.9" class="st65" width="21.9" height="21.1"/>
		</g>
		<g>
			<defs>
				<path id="SVGID_128_" d="M56.7,40.7L56,40c-1.3-1.3-3.4-1.3-4.7,0l-4.6,4.6c-1.3,1.3-1.3,3.4,0,4.7c0.2,0.2,0.6,0.2,0.8,0
					c0.2-0.2,0.2-0.6,0-0.8c-0.9-0.9-0.9-2.3,0-3.2l4.6-4.6c0.9-0.9,2.3-0.9,3.2,0l0.7,0.7c0.9,0.9,0.9,2.3,0,3.2l-4.6,4.6
					c-0.2,0.2-0.2,0.6,0,0.8c0.1,0.1,0.2,0.2,0.4,0.2c0.1,0,0.3-0.1,0.4-0.2l4.6-4.6c0.6-0.6,1-1.5,1-2.3
					C57.6,42.1,57.3,41.3,56.7,40.7z"/>
			</defs>
			<clipPath id="SVGID_129_">
				<use xlink:href="#SVGID_128_"  style="overflow:visible;"/>
			</clipPath>
			<rect x="40.7" y="34" class="st66" width="21.9" height="21.1"/>
		</g>
	</g>
	<g>
		<g>
			<defs>
				<path id="SVGID_130_" d="M80,46.7c-0.9,0-1.6-0.7-1.6-1.6s0.7-1.6,1.6-1.6s1.6,0.7,1.6,1.6S80.9,46.7,80,46.7z M67.4,32.5h25.3
					v25.3H67.4V32.5z"/>
			</defs>
			<clipPath id="SVGID_131_">
				<use xlink:href="#SVGID_130_"  style="overflow:visible;"/>
			</clipPath>
			<circle class="st67" cx="80" cy="45.1" r="1.6"/>
		</g>
		<g>
			<defs>
				<path id="SVGID_132_" d="M84.4,40.7c-1.2-1.2-2.8-1.8-4.4-1.8c-1.7,0-3.3,0.7-4.4,1.8c-2.2,2.2-2.5,6.3-0.6,8.8l5,7.3l5-7.3
					C86.8,47,86.6,42.9,84.4,40.7z"/>
			</defs>
			<clipPath id="SVGID_133_">
				<use xlink:href="#SVGID_132_"  style="overflow:visible;"/>
			</clipPath>
			<path class="st68" d="M84.4,40.7c-1.2-1.2-2.8-1.8-4.4-1.8c-1.7,0-3.3,0.7-4.4,1.8c-2.2,2.2-2.5,6.3-0.6,8.8l5,7.3l5-7.3
				C86.8,47,86.6,42.9,84.4,40.7z"/>
		</g>
	</g>
	<g>
		<g>
			<defs>
				<circle id="SVGID_134_" cx="48" cy="432" r="2.9"/>
			</defs>
			<clipPath id="SVGID_135_">
				<use xlink:href="#SVGID_134_"  style="overflow:visible;"/>
			</clipPath>
			<rect x="40.9" y="424.9" class="st69" width="14.2" height="14.2"/>
		</g>
		<g>
			<defs>
				<path id="SVGID_136_" d="M48,438.1c-3.4,0-6.1-2.8-6.1-6.1c0-3.4,2.8-6.1,6.1-6.1s6.1,2.8,6.1,6.1
					C54.1,435.4,51.4,438.1,48,438.1z M57.4,431.4h-2.2c-0.3-3.6-3.1-6.4-6.7-6.7v-2.2c0-0.3-0.2-0.6-0.6-0.6s-0.6,0.2-0.6,0.6v2.2
					c-3.6,0.3-6.4,3.1-6.7,6.7h-2.2c-0.3,0-0.6,0.2-0.6,0.6c0,0.3,0.2,0.6,0.6,0.6h2.2c0.3,3.6,3.1,6.4,6.7,6.7v2.2
					c0,0.3,0.2,0.6,0.6,0.6s0.6-0.2,0.6-0.6v-2.2c3.6-0.3,6.4-3.1,6.7-6.7h2.2c0.3,0,0.6-0.2,0.6-0.6
					C58,431.7,57.8,431.4,57.4,431.4z"/>
			</defs>
			<clipPath id="SVGID_137_">
				<use xlink:href="#SVGID_136_"  style="overflow:visible;"/>
			</clipPath>
			<rect x="33.8" y="417.8" class="st70" width="28.3" height="28.3"/>
		</g>
	</g>
	<g>
		<path class="st71" d="M40.9,408.4c0,0,3.8,0,6.3-2.9s1.5-7.1,3.8-10.5c2.3-3.3,4-3.1,4-3.1"/>
		<g>
			<defs>
				<path id="SVGID_138_" d="M54.7,392.9c-0.6,0-1.1-0.5-1.1-1.1c0-0.6,0.5-1.1,1.1-1.1s1.1,0.5,1.1,1.1
					C55.9,392.4,55.4,392.9,54.7,392.9z M54.7,393.7c1.1,0,1.9-0.9,1.9-1.9c0-1.1-0.9-1.9-1.9-1.9s-1.9,0.9-1.9,1.9
					C52.8,392.8,53.7,393.7,54.7,393.7z M36.5,373.5H73V410H36.5V373.5z"/>
			</defs>
			<clipPath id="SVGID_139_">
				<use xlink:href="#SVGID_138_"  style="overflow:visible;"/>
			</clipPath>
			<g class="st72">
				<defs>
					<circle id="SVGID_140_" cx="54.7" cy="391.7" r="1.5"/>
				</defs>
				<clipPath id="SVGID_141_">
					<use xlink:href="#SVGID_140_"  style="overflow:visible;"/>
				</clipPath>
				<circle class="st73" cx="54.7" cy="391.7" r="1.5"/>
			</g>
		</g>
		<g>
			<defs>
				<circle id="SVGID_142_" cx="54.7" cy="391.7" r="1.5"/>
			</defs>
			<clipPath id="SVGID_143_">
				<use xlink:href="#SVGID_142_"  style="overflow:visible;"/>
			</clipPath>
			<circle class="st74" cx="54.7" cy="391.7" r="1.5"/>
		</g>
		<g>
			<defs>
				<path id="SVGID_144_" d="M41.3,409.4c-0.6,0-1.1-0.5-1.1-1.1c0-0.6,0.5-1.1,1.1-1.1s1.1,0.5,1.1,1.1
					C42.4,408.9,41.9,409.4,41.3,409.4z M41.3,410.2c1.1,0,1.9-0.9,1.9-1.9c0-1.1-0.9-1.9-1.9-1.9c-1.1,0-1.9,0.9-1.9,1.9
					C39.3,409.3,40.2,410.2,41.3,410.2z M23,390h36.5v36.5H23V390z"/>
			</defs>
			<clipPath id="SVGID_145_">
				<use xlink:href="#SVGID_144_"  style="overflow:visible;"/>
			</clipPath>
			<g class="st75">
				<defs>
					<circle id="SVGID_146_" cx="41.3" cy="408.3" r="1.5"/>
				</defs>
				<clipPath id="SVGID_147_">
					<use xlink:href="#SVGID_146_"  style="overflow:visible;"/>
				</clipPath>
				<circle class="st76" cx="41.3" cy="408.3" r="1.5"/>
			</g>
		</g>
		<g>
			<defs>
				<circle id="SVGID_148_" cx="41.3" cy="408.3" r="1.5"/>
			</defs>
			<clipPath id="SVGID_149_">
				<use xlink:href="#SVGID_148_"  style="overflow:visible;"/>
			</clipPath>
			<circle class="st77" cx="41.3" cy="408.3" r="1.5"/>
		</g>
	</g>
	<g>
		<g>
			<defs>
				<rect id="SVGID_150_" x="-689" y="-2125" width="1440" height="5174"/>
			</defs>
			<clipPath id="SVGID_151_">
				<use xlink:href="#SVGID_150_"  style="overflow:visible;"/>
			</clipPath>
		</g>
	</g>
	<g class="st78">
		<g>
			<defs>
				<rect id="SVGID_152_" x="38" y="454" width="20" height="20"/>
			</defs>
			<clipPath id="SVGID_153_">
				<use xlink:href="#SVGID_152_"  style="overflow:visible;"/>
			</clipPath>
			<g class="st79">
				<defs>
					<path id="SVGID_154_" d="M45.1,469.1h5.6V468h-5.6V469.1z M55.6,467.2l-1.2-0.5l0.1-0.4l1.2,0.5c0.3-0.8,0.5-1.7,0.5-2.6h-1.3
						v-0.8h1.3c0-0.9-0.2-1.9-0.6-2.7l-1.2,0.5l-0.1-0.4l1.2-0.5c-0.9-1.9-2.4-3.4-4.3-4.3l-0.5,1.2l-0.4-0.1l0.5-1.2
						c-0.8-0.3-1.7-0.5-2.6-0.5v1.3h-0.8v-1.3c-0.9,0-1.9,0.2-2.7,0.6l0.5,1.2l-0.4,0.1l-0.5-1.2c-0.8,0.4-1.6,0.9-2.2,1.5l0.9,0.9
						l-0.5,0.5l-0.9-0.9c-0.6,0.7-1.1,1.5-1.5,2.3l1.2,0.5l-0.1,0.4l-1.2-0.5c-0.3,0.8-0.5,1.7-0.5,2.6h1.3v0.8h-1.3
						c0,0.9,0.2,1.9,0.6,2.7l1.2-0.5l0.1,0.4l-1.2,0.5c0.4,0.8,0.9,1.6,1.5,2.2l0.9-0.9l0.5,0.5l-0.9,0.9c1.5,1.4,3.5,2.2,5.6,2.2
						c2.2,0,4.2-0.8,5.6-2.2l-0.9-0.9l0.5-0.5l0.9,0.9C54.7,468.8,55.2,468,55.6,467.2z M57.7,463.9c0,5.4-4.4,9.9-9.9,9.9
						s-9.9-4.4-9.9-9.9s4.4-9.9,9.9-9.9S57.7,458.4,57.7,463.9z M48.7,462.6l4.6-4.1l-4,4.6c0.1,0.2,0.2,0.5,0.2,0.7
						c0,0.8-0.7,1.5-1.5,1.5c-0.8,0-1.5-0.7-1.5-1.5c0-0.8,0.7-1.5,1.5-1.5C48.2,462.3,48.4,462.4,48.7,462.6z"/>
				</defs>
				<clipPath id="SVGID_155_">
					<use xlink:href="#SVGID_154_"  style="overflow:visible;"/>
				</clipPath>
				<g class="st80">
					<defs>
						<rect id="SVGID_156_" x="38" y="454" width="20" height="20"/>
					</defs>
					<clipPath id="SVGID_157_">
						<use xlink:href="#SVGID_156_"  style="overflow:visible;"/>
					</clipPath>
					<rect x="32.5" y="448.4" class="st81" width="30.8" height="30.8"/>
				</g>
			</g>
		</g>
	</g>
	<path class="st82" d="M24.3,21.2l-3.1-1.3l1.7,0c0.2,0,1,0.1,1.7-0.2c0.3-0.1,0.5-0.4,0.6-0.7c0.1-0.3,0-0.7-0.2-0.9
		c-0.6-0.8-2-3-2-5.3c0,0-0.1-4-4.1-4.1c-0.5,0-1,0.1-1.5,0.2c-0.1-0.3-0.3-0.5-0.4-0.7c-0.7-0.8-1.8-1.2-3.3-1.2
		c-1.5,0-2.6,0.4-3.3,1.2c-0.8,0.9-0.7,2-0.7,2.2v1.7c-0.2,0.3-0.3,0.6-0.3,0.9v1.3c0,0.4,0.2,0.8,0.5,1.1c0.3,1.1,0.8,1.9,1.1,2.3
		v1c0,0.3-0.1,0.5-0.4,0.6l-2.9,1.6c-1,0.5-1.6,1.6-1.6,2.7v1.5h19.6v-1.3C25.8,22.7,25.2,21.7,24.3,21.2z M19.6,20.9l-2.1-1
		c0-0.1,0-0.3,0-0.4c-0.1-0.3-0.4-0.5-0.7-0.5h-0.6l0,0c0,0,0,0,0-0.1c0-0.1,0-0.1,0-0.2v-1c0.1-0.1,0.1-0.2,0.2-0.3
		c0.4-0.6,0.7-1.2,0.9-1.8c0.5-0.2,0.8-0.7,0.8-1.3V13c0-0.3-0.1-0.6-0.3-0.9l0-1.6c0,0,0-0.3,0-0.6c0.4-0.1,0.8-0.2,1.2-0.2
		c3,0,3.1,3,3.1,3.1c0,2.5,1.5,4.9,2.2,5.8c0,0,0,0.1,0,0.1c0,0,0,0.1-0.1,0.1C23.9,19,23.5,19,23,19h-2.2c-0.3,0-0.5,0.1-0.6,0.4
		s-0.1,0.5,0,0.7c0.2,0.3,0.4,0.6,0.6,0.7l3.1,1.4c0.6,0.3,1,0.9,1,1.6v0.4h-3.6v-0.5C21.3,22.4,20.6,21.4,19.6,20.9z M12,18.7v-1.3
		l-0.1-0.1c0,0-0.8-1-1.1-2.2l0-0.2l-0.2-0.1c-0.1-0.1-0.2-0.2-0.2-0.4V13c0-0.1,0.1-0.3,0.2-0.4l0.2-0.1l0-2.1l0,0
		c0,0-0.1-0.8,0.5-1.5C11.7,8.3,12.5,8,13.8,8c1.2,0,2.1,0.3,2.6,0.9c0.2,0.2,0.4,0.5,0.4,0.9l0,0.2c0,0,0,0.1,0,0.1l0,0.2
		c0,0.1,0,0.1,0,0.1l0,2.1l0.2,0.1c0.1,0.1,0.2,0.2,0.2,0.4v1.3c0,0.2-0.1,0.4-0.4,0.5l-0.2,0.1l-0.1,0.2c-0.2,0.7-0.5,1.3-0.9,1.8
		c-0.1,0.1-0.2,0.2-0.3,0.3l-0.1,0.1v1.4c0,0.1,0,0.2,0,0.3l0,0.1c0,0.1,0,0.1,0.1,0.2l0,0c0,0.1,0.1,0.1,0.1,0.2
		c0.1,0.1,0.1,0.2,0.2,0.3l0.1,0.1h0c0.1,0.1,0.2,0.2,0.4,0.3l3.1,1.5c0.7,0.4,1.2,1.1,1.2,1.9v0.5H7.1v-0.6c0-0.8,0.4-1.5,1.1-1.8
		l2.9-1.6C11.6,19.8,12,19.3,12,18.7z"/>
	<g>
		<path class="st83" d="M76.6,153.5c-0.1,0-0.3,0-0.4-0.1c-2.9-1.5-4.6-4.2-4.6-7.3c0-4.6,3.8-8.3,8.5-8.3h0.4l0,0.1h0.2l0-0.1
			l-0.1,0v-2.3c0-0.4,0.2-0.7,0.6-0.9c0.3-0.1,0.7-0.1,1,0.2l6,6c0.2,0.2,0.3,0.4,0.3,0.7c0,0.2-0.1,0.5-0.3,0.7l-6,6
			c-0.3,0.3-0.7,0.4-1,0.2c-0.3-0.1-0.6-0.5-0.6-0.9v-2.5c-0.1,0-0.2,0-0.3,0l-0.2,0c-2.2,0.3-3.8,2.2-3.8,4.4c0,1,0.3,1.8,1,2.7
			c0.3,0.4,0.3,0.8,0,1.2C77.1,153.4,76.9,153.5,76.6,153.5z M79.7,138.8c-3.9,0.2-7.1,3.4-7.1,7.3c0,2.6,1.4,4.9,3.7,6.2
			c-0.7-0.9-1.1-1.9-1.1-3.1c0-2.7,2-5,4.8-5.4l0.2,0c0.2,0,0.6,0,0.9,0l0.4,0.1v3.2l5.8-5.8l-5.8-5.8v1.3l0.2,0l-0.3,1.9
			L79.7,138.8L79.7,138.8z"/>
	</g>
	<g>
		<g>
			<defs>
				<path id="SVGID_158_" d="M10.6,151.6C10.6,151.6,10.6,151.6,10.6,151.6l-3,0c0,0,0,0,0,0v-8.7c0,0,0,0,0,0h3c0,0,0,0,0,0
					L10.6,151.6L10.6,151.6z M24.4,141.6c-0.5-0.4-1.1-0.6-1.7-0.6h-0.6H20h-1.2v-2.9c0-1.2-0.4-2.1-1.1-2.6
					c-1.1-0.8-2.6-0.4-2.7-0.3c-0.2,0.1-0.3,0.2-0.3,0.4v3.2c0,1.1-0.5,2-1.5,2.7c-0.7,0.5-1.5,0.8-1.6,0.8l-0.1,0
					c-0.2-0.3-0.5-0.5-0.8-0.5h-3c-0.5,0-0.9,0.4-0.9,0.9v8.7c0,0.5,0.4,0.9,0.9,0.9h3c0.3,0,0.6-0.1,0.7-0.3
					c0.5,0.5,1.2,0.8,1.9,0.8h2.5H16h5.2c1.8,0,2.9-0.9,3.1-2.5l1-6.4C25.4,143.2,25.1,142.2,24.4,141.6z"/>
			</defs>
			<clipPath id="SVGID_159_">
				<use xlink:href="#SVGID_158_"  style="overflow:visible;"/>
			</clipPath>
			<path class="st84" d="M10.6,151.6C10.6,151.6,10.6,151.6,10.6,151.6l-3,0c0,0,0,0,0,0v-8.7c0,0,0,0,0,0h3c0,0,0,0,0,0L10.6,151.6
				L10.6,151.6z M24.4,141.6c-0.5-0.4-1.1-0.6-1.7-0.6h-0.6H20h-1.2v-2.9c0-1.2-0.4-2.1-1.1-2.6c-1.1-0.8-2.6-0.4-2.7-0.3
				c-0.2,0.1-0.3,0.2-0.3,0.4v3.2c0,1.1-0.5,2-1.5,2.7c-0.7,0.5-1.5,0.8-1.6,0.8l-0.1,0c-0.2-0.3-0.5-0.5-0.8-0.5h-3
				c-0.5,0-0.9,0.4-0.9,0.9v8.7c0,0.5,0.4,0.9,0.9,0.9h3c0.3,0,0.6-0.1,0.7-0.3c0.5,0.5,1.2,0.8,1.9,0.8h2.5H16h5.2
				c1.8,0,2.9-0.9,3.1-2.5l1-6.4C25.4,143.2,25.1,142.2,24.4,141.6z"/>
		</g>
	</g>
	<g>
		<defs>
			<path id="SVGID_160_" d="M42.9,141.9c-0.1,0-0.2-0.1-0.3-0.1h-3c-0.5,0-0.9,0.4-0.9,0.9v8.7c0,0.5,0.4,0.9,0.9,0.9h3
				c0.1,0,0.2,0,0.3-0.1V141.9z M43.9,142.2c0.3-0.1,0.7-0.3,1.2-0.6c1-0.7,1.5-1.6,1.5-2.7v-3.3c0-0.2,0.1-0.4,0.3-0.4
				c0.1,0,1.6-0.5,2.7,0.3c0.7,0.5,1.1,1.4,1.1,2.6v2.9H52h2.2h0.6c0.6,0,1.2,0.2,1.7,0.6c0.7,0.6,1,1.5,0.9,2.5l-1,6.4
				c-0.2,1.6-1.3,2.5-3.1,2.5H48h-0.3h-2.5c-0.5,0-0.9-0.1-1.3-0.3V142.2z"/>
		</defs>
		<clipPath id="SVGID_161_">
			<use xlink:href="#SVGID_160_"  style="overflow:visible;"/>
		</clipPath>
		<rect x="33.7" y="130" class="st85" width="28.6" height="28"/>
	</g>
	<g>
		<g>
			<defs>
				<path id="SVGID_162_" d="M43,116.5h-0.9h-2c-0.6,0-1.1-0.5-1.1-1.1v-9.7c0-0.6,0.5-1.1,1.1-1.1h15.8c0.6,0,1.1,0.5,1.1,1.1v9.7
					c0,0.6-0.5,1.1-1.1,1.1H45.8l-2.8,2.8l0-2L43,116.5z"/>
			</defs>
			<clipPath id="SVGID_163_">
				<use xlink:href="#SVGID_162_"  style="overflow:visible;"/>
			</clipPath>
			<path class="st86" d="M43,116.5h-0.9h-2c-0.6,0-1.1-0.5-1.1-1.1v-9.7c0-0.6,0.5-1.1,1.1-1.1h15.8c0.6,0,1.1,0.5,1.1,1.1v9.7
				c0,0.6-0.5,1.1-1.1,1.1H45.8l-2.8,2.8l0-2L43,116.5z"/>
		</g>
	</g>
	<g>
		<g>
			<defs>
				<path id="SVGID_164_" d="M75.1,116.5h-0.9h-2c-0.6,0-1.1-0.5-1.1-1.1v-9.7c0-0.6,0.5-1.1,1.1-1.1H88c0.6,0,1.1,0.5,1.1,1.1v9.7
					c0,0.6-0.5,1.1-1.1,1.1H77.9l-2.8,2.8l0-2L75.1,116.5z"/>
			</defs>
			<clipPath id="SVGID_165_">
				<use xlink:href="#SVGID_164_"  style="overflow:visible;"/>
			</clipPath>
			<path class="st87" d="M75.1,116.5h-0.9h-2c-0.6,0-1.1-0.5-1.1-1.1v-9.7c0-0.6,0.5-1.1,1.1-1.1H88c0.6,0,1.1,0.5,1.1,1.1v9.7
				c0,0.6-0.5,1.1-1.1,1.1H77.9l-2.8,2.8l0-2L75.1,116.5z"/>
		</g>
	</g>
	<g>
		<defs>
			<path id="SVGID_166_" d="M61.7,565.3c-0.9-1-1.9-2-2.9-3c-0.9-0.9-1-1.4-0.2-2.4c0.8-1.1,1.6-2.2,2.4-3.3c0.8-1,1.4-2.1,1.9-3.3
				c0.2-0.3,0.2-0.6,0-0.9c-0.2-0.3-0.5-0.4-0.8-0.4c-0.1,0-0.3,0-0.4,0l-4.7,0c-0.5,0-1,0.3-1.1,0.8c-0.3,0.7-0.6,1.4-0.9,2.1
				c-0.7,1.6-1.6,3-2.8,4.3c-0.2,0.4-0.6,0.5-1,0.5c-0.5-0.3-0.7-0.8-0.7-1.4l0-5.5c0.1-0.6-0.4-1.2-1.1-1.3h-4.9
				c-0.5,0-1,0.2-1.3,0.7c-0.2,0.2-0.3,0.4,0.2,0.5c0.8,0.1,1.3,0.7,1.4,1.5c0.2,1.3,0.2,2.6,0.1,4c0,0.4-0.1,0.8-0.3,1.1
				c0,0.2-0.2,0.4-0.5,0.5c-0.2,0.1-0.5,0-0.7-0.2c-0.4-0.3-0.8-0.7-1.1-1.2c-1.2-1.7-2.1-3.5-2.9-5.4c-0.2-0.5-0.6-0.9-1.2-0.9
				c-1.4,0-2.9,0-4.3,0c-0.9,0-1.1,0.4-0.8,1.2c1.5,3.5,3.3,6.8,5.5,9.9c1.1,1.6,2.5,2.9,4.2,4c1.9,1.1,4.1,1.5,6.2,1.4
				c1,0,1.3-0.3,1.4-1.4c0-0.7,0.2-1.4,0.5-2.1c0.1-0.3,0.3-0.5,0.6-0.6c0.3-0.1,0.6,0,0.8,0.2c0.3,0.2,0.6,0.4,0.8,0.7
				c0.6,0.6,1.1,1.3,1.7,1.9c0.7,0.8,1.7,1.2,2.8,1.1h4.4c0.4-0.1,0.7-0.3,0.8-0.7c0.1-0.3,0.1-0.7-0.1-1
				C62.5,566.3,62.1,565.8,61.7,565.3z"/>
		</defs>
		<clipPath id="SVGID_167_">
			<use xlink:href="#SVGID_166_"  style="overflow:visible;"/>
		</clipPath>
		<g class="st88">
			<defs>
				<rect id="SVGID_168_" x="-552" y="-135.5" width="1920" height="1080"/>
			</defs>
			<clipPath id="SVGID_169_">
				<use xlink:href="#SVGID_168_"  style="overflow:visible;"/>
			</clipPath>
			<rect x="28" y="546.5" class="st89" width="40" height="27.1"/>
		</g>
	</g>
	<g>
		<defs>
			<path id="SVGID_170_" d="M17.9,572h-4.5v-12h-3v-4.1h3l0-2.4c0-3.4,0.9-5.4,4.9-5.4h3.3v4.1h-2.1c-1.6,0-1.6,0.6-1.6,1.7l0,2.1
				h3.7l-0.4,4.1h-3.3L17.9,572z"/>
		</defs>
		<clipPath id="SVGID_171_">
			<use xlink:href="#SVGID_170_"  style="overflow:visible;"/>
		</clipPath>
		<g class="st90">
			<defs>
				<rect id="SVGID_172_" x="-526.6" y="-136" width="1920" height="1080"/>
			</defs>
			<clipPath id="SVGID_173_">
				<use xlink:href="#SVGID_172_"  style="overflow:visible;"/>
			</clipPath>
			<rect x="5.4" y="543" class="st91" width="21.3" height="34"/>
		</g>
	</g>
	<g>
		<defs>
			<path id="SVGID_174_" d="M81.2,562.5h5.9c-1,2.9-3.8,5-7.1,5c-4,0-7.2-3.2-7.4-7.1c-0.2-4.2,3.2-7.7,7.4-7.7c1.9,0,3.7,0.7,5,1.9
				c0.3,0.3,0.8,0.3,1.1,0l2.2-2c0.3-0.3,0.3-0.9,0-1.2c-2.1-2-4.9-3.2-8-3.3c-6.6-0.1-12.2,5.3-12.2,11.9c0,6.7,5.3,12.1,12,12.1
				c6.4,0,11.6-5,12-11.3c0-0.1,0-2.8,0-2.8H81.2c-0.4,0-0.8,0.4-0.8,0.8v2.9C80.4,562.1,80.8,562.5,81.2,562.5z"/>
		</defs>
		<clipPath id="SVGID_175_">
			<use xlink:href="#SVGID_174_"  style="overflow:visible;"/>
		</clipPath>
		<g class="st92">
			<defs>
				<rect id="SVGID_176_" x="-575" y="-136" width="1920" height="1080"/>
			</defs>
			<clipPath id="SVGID_177_">
				<use xlink:href="#SVGID_176_"  style="overflow:visible;"/>
			</clipPath>
			<rect x="63" y="543" class="st93" width="34" height="34"/>
		</g>
	</g>
</g>
<g id="Layer_6">
	<g>
		<path class="st94" d="M121,53.7v0.5V57h-18V39h18V53.7z"/>
		<path class="st95" d="M117,49.7l3.5-1.1c0.2-0.1,0.4-0.3,0.4-0.6c0-0.3-0.1-0.5-0.3-0.6l-16.7-8.3c-0.2-0.1-0.5-0.1-0.7,0.1
			c-0.2,0.2-0.2,0.5-0.1,0.7l8.1,16.7c0.1,0.2,0.3,0.4,0.6,0.4h0c0.3,0,0.5-0.2,0.6-0.4l1.3-3.8l4.1,4.1c0.2,0.2,0.7,0.2,0.9,0
			l2.3-2.3c0.1-0.1,0.1-0.1,0.1-0.2v-0.5c0-0.1-0.1-0.1-0.1-0.2L117,49.7z M118.1,55.4l-4.3-4.3c-0.1-0.1-0.3-0.2-0.4-0.2
			c0,0-0.1,0-0.1,0c-0.2,0-0.4,0.2-0.4,0.4l-1.1,3.3L105,41l13.6,6.8l-3,1c-0.2,0.1-0.4,0.2-0.4,0.5c0,0.2,0,0.4,0.2,0.6l4.1,4.1
			L118.1,55.4z"/>
	</g>
	<g>
		<g>
			<g>
				<g class="st78">
					<g>
						<defs>
							<rect id="SVGID_178_" x="102" y="70" width="20" height="20"/>
						</defs>
						<clipPath id="SVGID_179_">
							<use xlink:href="#SVGID_178_"  style="overflow:visible;"/>
						</clipPath>
						<g class="st96">
							<defs>
								<path id="SVGID_180_" d="M118.6,87.3c0.1,0.1,0.2,0.1,0.4,0.1c0.1,0,0.3,0,0.4-0.1c0.2-0.2,0.2-0.5,0-0.7l-13.4-13.4
									c-0.2-0.2-0.5-0.2-0.7,0c-0.2,0.2-0.2,0.5,0,0.7L118.6,87.3z"/>
							</defs>
							<clipPath id="SVGID_181_">
								<use xlink:href="#SVGID_180_"  style="overflow:visible;"/>
							</clipPath>
							<g class="st97">
								<defs>
									<rect id="SVGID_182_" x="102" y="70" width="20" height="20"/>
								</defs>
								<clipPath id="SVGID_183_">
									<use xlink:href="#SVGID_182_"  style="overflow:visible;"/>
								</clipPath>
								<path class="st98" d="M118.6,87.3c0.1,0.1,0.2,0.1,0.4,0.1c0.1,0,0.3,0,0.4-0.1c0.2-0.2,0.2-0.5,0-0.7l-13.4-13.4
									c-0.2-0.2-0.5-0.2-0.7,0c-0.2,0.2-0.2,0.5,0,0.7L118.6,87.3z"/>
							</g>
						</g>
						<g class="st96">
							<defs>
								<circle id="SVGID_184_" cx="105" cy="73" r="2.2"/>
							</defs>
							<clipPath id="SVGID_185_">
								<use xlink:href="#SVGID_184_"  style="overflow:visible;"/>
							</clipPath>
							<g class="st99">
								<defs>
									<rect id="SVGID_186_" x="102" y="70" width="20" height="20"/>
								</defs>
								<clipPath id="SVGID_187_">
									<use xlink:href="#SVGID_186_"  style="overflow:visible;"/>
								</clipPath>
								<rect x="98" y="66" class="st100" width="14" height="14"/>
							</g>
						</g>
						<g class="st96">
							<defs>
								<path id="SVGID_188_" d="M105,75c1.1,0,2-0.9,2-2s-0.9-2-2-2s-2,0.9-2,2S103.9,75,105,75z M92,60h26v26H92V60z"/>
							</defs>
							<clipPath id="SVGID_189_">
								<use xlink:href="#SVGID_188_"  style="overflow:visible;"/>
							</clipPath>
							<g class="st101">
								<defs>
									<rect id="SVGID_190_" x="102" y="70" width="20" height="20"/>
								</defs>
								<clipPath id="SVGID_191_">
									<use xlink:href="#SVGID_190_"  style="overflow:visible;"/>
								</clipPath>
								<circle class="st102" cx="105" cy="73" r="2"/>
							</g>
						</g>
						<g class="st96">
							<defs>
								<circle id="SVGID_192_" cx="119" cy="87" r="2.2"/>
							</defs>
							<clipPath id="SVGID_193_">
								<use xlink:href="#SVGID_192_"  style="overflow:visible;"/>
							</clipPath>
							<g class="st103">
								<defs>
									<rect id="SVGID_194_" x="102" y="70" width="20" height="20"/>
								</defs>
								<clipPath id="SVGID_195_">
									<use xlink:href="#SVGID_194_"  style="overflow:visible;"/>
								</clipPath>
								<rect x="112" y="80" class="st104" width="14" height="14"/>
							</g>
						</g>
						<g class="st96">
							<defs>
								<path id="SVGID_196_" d="M119,89c1.1,0,2-0.9,2-2s-0.9-2-2-2s-2,0.9-2,2S117.9,89,119,89z M106,74h26v26h-26V74z"/>
							</defs>
							<clipPath id="SVGID_197_">
								<use xlink:href="#SVGID_196_"  style="overflow:visible;"/>
							</clipPath>
							<g class="st105">
								<defs>
									<rect id="SVGID_198_" x="102" y="70" width="20" height="20"/>
								</defs>
								<clipPath id="SVGID_199_">
									<use xlink:href="#SVGID_198_"  style="overflow:visible;"/>
								</clipPath>
								<circle class="st106" cx="119" cy="87" r="2"/>
							</g>
						</g>
					</g>
				</g>
			</g>
		</g>
	</g>
	<g>
		<g>
			<g class="st78">
				<g>
					<defs>
						<rect id="SVGID_200_" x="103" y="103" width="18" height="18"/>
					</defs>
					<clipPath id="SVGID_201_">
						<use xlink:href="#SVGID_200_"  style="overflow:visible;"/>
					</clipPath>
					<g class="st107">
						<defs>
							<path id="SVGID_202_" d="M103.2,107.5L103.2,107.5C103.2,107.5,103.2,107.5,103.2,107.5c-0.1-0.1-0.1-0.1-0.1-0.2
								c0,0,0,0,0-0.1c0-0.1,0-0.1,0-0.2c0,0,0,0,0-0.1c0,0,0,0,0,0c0-0.1,0-0.1,0-0.2c0,0,0,0,0,0c0-0.1,0.1-0.1,0.1-0.2
								c0,0,0,0,0,0l2.9-3.4c0.2-0.3,0.6-0.3,0.8,0c0.2,0.3,0.2,0.7,0,0.9l-1.6,1.8c2.3-0.3,4.5,0.2,4.6,0.2
								c6.9,1.3,11.8,7.7,10.9,14.3c0,0.3-0.3,0.6-0.6,0.6c0,0-0.1,0-0.1,0c-0.3-0.1-0.5-0.4-0.5-0.8c0.8-5.9-3.7-11.6-10-12.8
								c0,0-2.3-0.5-4.5-0.2l2.4,1.4c0.3,0.2,0.4,0.6,0.2,0.9c-0.1,0.3-0.5,0.5-0.8,0.3l-3.8-2.3
								C103.3,107.6,103.2,107.6,103.2,107.5z"/>
						</defs>
						<clipPath id="SVGID_203_">
							<use xlink:href="#SVGID_202_"  style="overflow:visible;"/>
						</clipPath>
						<g class="st108">
							<defs>
								<rect id="SVGID_204_" x="103" y="103" width="18" height="18"/>
							</defs>
							<clipPath id="SVGID_205_">
								<use xlink:href="#SVGID_204_"  style="overflow:visible;"/>
							</clipPath>
							<rect x="98" y="98" class="st109" width="28" height="28"/>
						</g>
					</g>
				</g>
			</g>
		</g>
	</g>
	<g>
		<g>
			<g class="st78">
				<g>
					<defs>
						<rect id="SVGID_206_" x="103" y="135" width="18" height="18"/>
					</defs>
					<clipPath id="SVGID_207_">
						<use xlink:href="#SVGID_206_"  style="overflow:visible;"/>
					</clipPath>
					<g class="st110">
						<defs>
							<path id="SVGID_208_" d="M120.8,139.5L120.8,139.5C120.8,139.5,120.8,139.5,120.8,139.5c0.1-0.1,0.1-0.1,0.1-0.2
								c0,0,0,0,0-0.1c0-0.1,0-0.1,0-0.2c0,0,0,0,0-0.1c0,0,0,0,0,0c0-0.1,0-0.1,0-0.2c0,0,0,0,0,0c0-0.1-0.1-0.1-0.1-0.2
								c0,0,0,0,0,0l-2.9-3.4c-0.2-0.3-0.6-0.3-0.8,0c-0.2,0.3-0.2,0.7,0,0.9l1.6,1.8c-2.3-0.3-4.5,0.2-4.6,0.2
								c-6.9,1.3-11.8,7.7-10.9,14.3c0,0.3,0.3,0.6,0.6,0.6c0,0,0.1,0,0.1,0c0.3-0.1,0.5-0.4,0.5-0.8c-0.8-5.9,3.7-11.6,10-12.8
								c0,0,2.3-0.5,4.5-0.2l-2.4,1.4c-0.3,0.2-0.4,0.6-0.2,0.9c0.1,0.3,0.5,0.5,0.8,0.3l3.8-2.3
								C120.7,139.6,120.8,139.6,120.8,139.5z"/>
						</defs>
						<clipPath id="SVGID_209_">
							<use xlink:href="#SVGID_208_"  style="overflow:visible;"/>
						</clipPath>
						<g class="st111">
							<defs>
								<rect id="SVGID_210_" x="103" y="135" width="18" height="18"/>
							</defs>
							<clipPath id="SVGID_211_">
								<use xlink:href="#SVGID_210_"  style="overflow:visible;"/>
							</clipPath>
							<rect x="98" y="130" class="st112" width="28" height="28"/>
						</g>
					</g>
				</g>
			</g>
		</g>
	</g>
	<g>
		<g>
			<g class="st78">
				<g>
					<defs>
						<rect id="SVGID_212_" x="103" y="167" width="18" height="18"/>
					</defs>
					<clipPath id="SVGID_213_">
						<use xlink:href="#SVGID_212_"  style="overflow:visible;"/>
					</clipPath>
					<g class="st113">
						<defs>
							<path id="SVGID_214_" d="M103.2,184.8c0.1,0.1,0.3,0.2,0.4,0.2c0.2,0,0.3-0.1,0.4-0.2l7.9-7.9l7.9,7.9
								c0.1,0.1,0.3,0.2,0.4,0.2c0.2,0,0.3-0.1,0.4-0.2c0.2-0.2,0.2-0.7,0-0.9l-7.9-7.9l7.9-7.9c0.2-0.2,0.2-0.7,0-0.9
								c-0.2-0.2-0.7-0.2-0.9,0l-7.9,7.9l-7.9-7.9c-0.2-0.2-0.7-0.2-0.9,0c-0.2,0.2-0.2,0.7,0,0.9l7.9,7.9l-7.9,7.9
								C102.9,184.2,102.9,184.6,103.2,184.8z"/>
						</defs>
						<clipPath id="SVGID_215_">
							<use xlink:href="#SVGID_214_"  style="overflow:visible;"/>
						</clipPath>
						<g class="st114">
							<defs>
								<rect id="SVGID_216_" x="103" y="167" width="18" height="18"/>
							</defs>
							<clipPath id="SVGID_217_">
								<use xlink:href="#SVGID_216_"  style="overflow:visible;"/>
							</clipPath>
							<rect x="98" y="162" class="st115" width="28" height="28"/>
						</g>
					</g>
				</g>
			</g>
		</g>
	</g>
	<g>
		<g>
			<g class="st78">
				<g>
					<defs>
						<rect id="SVGID_218_" x="103.5" y="231.1" width="17" height="18"/>
					</defs>
					<clipPath id="SVGID_219_">
						<use xlink:href="#SVGID_218_"  style="overflow:visible;"/>
					</clipPath>
					<g class="st116">
						<defs>
							<path id="SVGID_220_" d="M112.5,238.4H108V235h4.5V238.4z M113.6,234.4c0-0.3-0.3-0.6-0.6-0.6h-5.6c-0.3,0-0.6,0.3-0.6,0.6
								v4.5c0,0.3,0.3,0.6,0.6,0.6h5.6c0.3,0,0.6-0.3,0.6-0.6V234.4z"/>
						</defs>
						<clipPath id="SVGID_221_">
							<use xlink:href="#SVGID_220_"  style="overflow:visible;"/>
						</clipPath>
						<g class="st117">
							<defs>
								<rect id="SVGID_222_" x="103.5" y="231.1" width="17" height="18"/>
							</defs>
							<clipPath id="SVGID_223_">
								<use xlink:href="#SVGID_222_"  style="overflow:visible;"/>
							</clipPath>
							<rect x="101.9" y="228.9" class="st118" width="16.8" height="15.6"/>
						</g>
					</g>
					<g class="st116">
						<defs>
							<path id="SVGID_224_" d="M115.9,247.9h-11.2v-0.8l0.8-0.4c0.2-0.1,0.3-0.3,0.3-0.5v-12.9c0-0.6,0.5-1.1,1.2-1.1h6.8
								c0.6,0,1.1,0.5,1.1,1.1v12.9c0,0.2,0.1,0.4,0.3,0.5l0.8,0.4V247.9z M120.1,235.1l-2.2-1.1c-0.3-0.1-0.6,0-0.8,0.3
								c-0.1,0.3,0,0.6,0.3,0.8l0.9,0.4c0,0.1-0.1,0.1-0.1,0.2c0,0.7,0.5,1.4,1.1,1.6v6.9c0,0.3-0.3,0.6-0.6,0.6s-0.6-0.3-0.6-0.6
								v-4.5c0-1.4-1.1-2.5-2.2-2.8v-3.4c0-1.2-1-2.2-2.2-2.2h-6.8c-1.2,0-2.3,1-2.3,2.2v12.6l-0.8,0.4c-0.2,0.1-0.3,0.3-0.3,0.5
								v1.7c0,0.3,0.3,0.6,0.6,0.6h12.4c0.3,0,0.5-0.3,0.5-0.6v-1.7c0-0.2-0.1-0.4-0.3-0.5l-0.8-0.4v-8c0.6,0.2,1.1,0.9,1.1,1.6v4.5
								c0,0.9,0.8,1.7,1.7,1.7s1.7-0.8,1.7-1.7v-8.4C120.4,235.4,120.3,235.2,120.1,235.1z"/>
						</defs>
						<clipPath id="SVGID_225_">
							<use xlink:href="#SVGID_224_"  style="overflow:visible;"/>
						</clipPath>
						<g class="st119">
							<defs>
								<rect id="SVGID_226_" x="103.5" y="231.1" width="17" height="18"/>
							</defs>
							<clipPath id="SVGID_227_">
								<use xlink:href="#SVGID_226_"  style="overflow:visible;"/>
							</clipPath>
							<rect x="98.5" y="226.1" class="st120" width="26.9" height="28"/>
						</g>
					</g>
				</g>
			</g>
		</g>
	</g>
	<g>
		<g>
			<g class="st78">
				<g>
					<defs>
						<rect id="SVGID_228_" x="103" y="263" width="18" height="18"/>
					</defs>
					<clipPath id="SVGID_229_">
						<use xlink:href="#SVGID_228_"  style="overflow:visible;"/>
					</clipPath>
					<g class="st121">
						<defs>
							<path id="SVGID_230_" d="M119.6,269.1l-1,1c-0.6,0.6-1.5,0.6-2.2,0.1c-0.2-0.2-0.4-0.1-0.6,0l-5.7,5.7
								c-0.2,0.2-0.2,0.4,0,0.6c0.6,0.6,0.5,1.6-0.1,2.2l-1,1c-0.6,0.6-1.5,0.7-2.1,0.3l2.1-2.1c0.1-0.1,0.1-0.2,0.1-0.3
								s0-0.2-0.1-0.3l-2.2-2.2c-0.1-0.1-0.2-0.1-0.3-0.1c-0.1,0-0.2,0-0.3,0.1l-2.1,2.1c-0.4-0.7-0.3-1.6,0.3-2.1l1-1
								c0.6-0.6,1.5-0.6,2.1-0.1c0.2,0.2,0.4,0.1,0.6,0l5.7-5.7c0.2-0.2,0.2-0.4,0-0.6c-0.5-0.6-0.5-1.6,0.1-2.1l1-1
								c0.6-0.6,1.5-0.7,2.1-0.3l-2.1,2.1c-0.1,0.1-0.1,0.2-0.1,0.3c0,0.1,0,0.2,0.1,0.3l2.2,2.2c0.1,0.1,0.2,0.1,0.3,0.1
								c0.1,0,0.2,0,0.3-0.1l2.1-2.1C120.3,267.6,120.2,268.5,119.6,269.1z M120.2,266L120.2,266c-0.2-0.2-0.5-0.2-0.6,0l-2.1,2.1
								l-1.6-1.6l2.1-2.1c0.2-0.2,0.2-0.5,0-0.6l0,0c-1-1-2.7-1-3.7,0l-1,1c-0.8,0.8-0.9,2.1-0.4,3l-5.1,5.1c-0.9-0.6-2.2-0.4-3,0.4
								l-1,1c-1,1-1,2.7,0,3.7l0,0c0.2,0.2,0.5,0.2,0.6,0l2.1-2.1l1.6,1.6l-2.1,2.1c-0.2,0.2-0.2,0.5,0,0.6l0,0
								c0.5,0.5,1.2,0.8,1.9,0.8c0.7,0,1.4-0.3,1.9-0.8l1-1c0.8-0.8,0.9-2.1,0.3-3l5.1-5.1c1,0.6,2.2,0.5,3-0.3l1-1
								C121.3,268.7,121.3,267,120.2,266z"/>
						</defs>
						<clipPath id="SVGID_231_">
							<use xlink:href="#SVGID_230_"  style="overflow:visible;"/>
						</clipPath>
						<g class="st122">
							<defs>
								<rect id="SVGID_232_" x="103" y="263" width="18" height="18"/>
							</defs>
							<clipPath id="SVGID_233_">
								<use xlink:href="#SVGID_232_"  style="overflow:visible;"/>
							</clipPath>
							<rect x="98" y="258" class="st123" width="28" height="28"/>
						</g>
					</g>
					<g class="st121">
						<defs>
							<path id="SVGID_234_" d="M114.8,269.2c-0.2-0.2-0.5-0.2-0.6,0l-5,5c-0.2,0.2-0.2,0.5,0,0.6c0.1,0.1,0.2,0.1,0.3,0.1
								s0.2,0,0.3-0.1l5-5C115,269.7,115,269.4,114.8,269.2z"/>
						</defs>
						<clipPath id="SVGID_235_">
							<use xlink:href="#SVGID_234_"  style="overflow:visible;"/>
						</clipPath>
						<g class="st124">
							<defs>
								<rect id="SVGID_236_" x="103" y="263" width="18" height="18"/>
							</defs>
							<clipPath id="SVGID_237_">
								<use xlink:href="#SVGID_236_"  style="overflow:visible;"/>
							</clipPath>
							<rect x="104.1" y="264.1" class="st125" width="15.8" height="15.8"/>
						</g>
					</g>
				</g>
			</g>
		</g>
	</g>
	<g>
		<g>
			<g class="st78">
				<g>
					<defs>
						<rect id="SVGID_238_" x="103" y="296.5" width="18" height="15"/>
					</defs>
					<clipPath id="SVGID_239_">
						<use xlink:href="#SVGID_238_"  style="overflow:visible;"/>
					</clipPath>
					<g class="st126">
						<defs>
							<path id="SVGID_240_" d="M119.8,308.2H118h-12.1h-1.8v-2.9c0-0.3,0.3-0.6,0.6-0.6h2.3h3.5h2.7h3.5h2.3c0.3,0,0.6,0.3,0.6,0.6
								V308.2z M119.8,310.6h-1.2v-1.2h1.2V310.6z M105.3,310.6h-1.2v-1.2h1.2L105.3,310.6L105.3,310.6z M110,302.4v1.2h-2.3v-1.2
								H110z M116.3,302.4v1.2h-2.3v-1.2H116.3z M105.3,299.4c0-1,0.8-1.8,1.8-1.8h9.8c1,0,1.8,0.8,1.8,1.8v4.1h-1.2v-1.8
								c0-0.3-0.3-0.6-0.6-0.6h-3.5c-0.3,0-0.6,0.3-0.6,0.6v1.8h-1.6v-1.8c0-0.3-0.3-0.6-0.6-0.6h-3.5c-0.3,0-0.6,0.3-0.6,0.6v1.8
								h-1.2V299.4z M119.8,303.6v-4.2c0-1.6-1.3-2.9-2.9-2.9h-9.8c-1.6,0-2.9,1.3-2.9,2.9v4.2c-0.7,0.2-1.2,0.9-1.2,1.7v3.5v2.3
								c0,0.3,0.3,0.6,0.6,0.6h2.3c0.3,0,0.6-0.3,0.6-0.6v-1.8h10.9v1.8c0,0.3,0.3,0.6,0.6,0.6h2.3c0.3,0,0.6-0.3,0.6-0.6v-2.3v-3.5
								C121,304.5,120.5,303.9,119.8,303.6z"/>
						</defs>
						<clipPath id="SVGID_241_">
							<use xlink:href="#SVGID_240_"  style="overflow:visible;"/>
						</clipPath>
						<g class="st127">
							<defs>
								<rect id="SVGID_242_" x="103" y="296.5" width="18" height="15"/>
							</defs>
							<clipPath id="SVGID_243_">
								<use xlink:href="#SVGID_242_"  style="overflow:visible;"/>
							</clipPath>
							<rect x="98" y="291.5" class="st128" width="28" height="25.2"/>
						</g>
					</g>
				</g>
			</g>
		</g>
	</g>
	<g>
		<g>
			<g class="st78">
				<g>
					<defs>
						<rect id="SVGID_244_" x="103" y="331.5" width="18" height="9"/>
					</defs>
					<clipPath id="SVGID_245_">
						<use xlink:href="#SVGID_244_"  style="overflow:visible;"/>
					</clipPath>
					<g class="st129">
						<defs>
							<path id="SVGID_246_" d="M115.1,334.3l1.1,1.6h-8.5l1.1-1.6H115.1z M105.5,332.4h13v1h-13V332.4z M120.1,337.8h-16.2v-0.9
								h16.2V337.8z M120.5,335.9h-3.2l-1.1-1.6h2.7c0.3,0,0.5-0.2,0.5-0.5V332c0-0.3-0.2-0.5-0.5-0.5H105c-0.3,0-0.5,0.2-0.5,0.5
								v1.9c0,0.3,0.2,0.5,0.5,0.5h2.7l-1.1,1.6h-3.2c-0.3,0-0.5,0.2-0.5,0.5v1.8c0,0.3,0.2,0.5,0.5,0.5h1.4l-0.7,1.1
								c-0.1,0.2-0.1,0.5,0.1,0.6c0.1,0.1,0.2,0.1,0.3,0.1c0.1,0,0.3-0.1,0.4-0.2l1.1-1.6h12.1l1.1,1.6c0.1,0.1,0.2,0.2,0.4,0.2
								c0.1,0,0.2,0,0.3-0.1c0.2-0.1,0.3-0.4,0.1-0.6l-0.7-1.1h1.4c0.3,0,0.5-0.2,0.5-0.5v-1.8C121,336.1,120.8,335.9,120.5,335.9z"
								/>
						</defs>
						<clipPath id="SVGID_247_">
							<use xlink:href="#SVGID_246_"  style="overflow:visible;"/>
						</clipPath>
						<g class="st130">
							<defs>
								<rect id="SVGID_248_" x="103" y="331.5" width="18" height="9"/>
							</defs>
							<clipPath id="SVGID_249_">
								<use xlink:href="#SVGID_248_"  style="overflow:visible;"/>
							</clipPath>
							<rect x="98" y="326.5" class="st131" width="28" height="19"/>
						</g>
					</g>
				</g>
			</g>
		</g>
	</g>
	<g>
		<defs>
			<path id="SVGID_250_" d="M118.9,457.1l-6.5,13.5l-1.6-4.7c-0.1-0.2-0.2-0.3-0.4-0.4l-5-1.6L118.9,457.1z M109.7,466.6l2,5.9
				c0.1,0.2,0.3,0.4,0.6,0.4h0c0.2,0,0.5-0.1,0.6-0.4l8-16.6c0.1-0.2,0.1-0.5-0.1-0.7c-0.2-0.2-0.5-0.2-0.7-0.1l-16.6,8.3
				c-0.2,0.1-0.4,0.4-0.3,0.6c0,0.3,0.2,0.5,0.4,0.6L109.7,466.6z"/>
		</defs>
		<clipPath id="SVGID_251_">
			<use xlink:href="#SVGID_250_"  style="overflow:visible;"/>
		</clipPath>
		<g class="st132">
			<defs>
				<rect id="SVGID_252_" x="-615.9" y="-385.9" width="768" height="1024"/>
			</defs>
			<clipPath id="SVGID_253_">
				<use xlink:href="#SVGID_252_"  style="overflow:visible;"/>
			</clipPath>
			<rect x="98.1" y="450.1" class="st133" width="27.8" height="27.8"/>
		</g>
	</g>
	<g>
		<defs>
			<path id="SVGID_254_" d="M103,432c0-0.4,0.3-0.7,0.7-0.7h16.6c0.4,0,0.7,0.3,0.7,0.7c0,0.4-0.3,0.7-0.7,0.7h-16.6
				C103.3,432.7,103,432.4,103,432z"/>
		</defs>
		<clipPath id="SVGID_255_">
			<use xlink:href="#SVGID_254_"  style="overflow:visible;"/>
		</clipPath>
		<g class="st134">
			<defs>
				<rect id="SVGID_256_" x="-616" y="-57.7" width="768" height="1024"/>
			</defs>
			<clipPath id="SVGID_257_">
				<use xlink:href="#SVGID_256_"  style="overflow:visible;"/>
			</clipPath>
			<rect x="98" y="426.3" class="st135" width="28" height="11.4"/>
		</g>
	</g>
	<g>
		<defs>
			<path id="SVGID_258_" d="M111.3,399.3h-7.6c-0.4,0-0.7,0.3-0.7,0.7c0,0.4,0.3,0.7,0.7,0.7h7.6v7.6c0,0.4,0.3,0.7,0.7,0.7
				c0.4,0,0.7-0.3,0.7-0.7v-7.6h7.6c0.4,0,0.7-0.3,0.7-0.7c0-0.4-0.3-0.7-0.7-0.7h-7.6v-7.6c0-0.4-0.3-0.7-0.7-0.7
				c-0.4,0-0.7,0.3-0.7,0.7V399.3z"/>
		</defs>
		<clipPath id="SVGID_259_">
			<use xlink:href="#SVGID_258_"  style="overflow:visible;"/>
		</clipPath>
		<g class="st136">
			<defs>
				<rect id="SVGID_260_" x="-616" y="-30" width="768" height="1024"/>
			</defs>
			<clipPath id="SVGID_261_">
				<use xlink:href="#SVGID_260_"  style="overflow:visible;"/>
			</clipPath>
			<rect x="98" y="386" class="st137" width="28" height="28"/>
		</g>
	</g>
	<g>
		<g>
			<defs>
				<path id="SVGID_262_" d="M112,360.2l6.8,3.6l-6.8,3.6l-6.8-3.6L112,360.2z M103.9,364.2l7.9,4.2c0.1,0,0.2,0.1,0.2,0.1
					s0.2,0,0.2-0.1l7.9-4.2c0.2-0.1,0.3-0.3,0.3-0.5s-0.1-0.4-0.3-0.5l-7.9-4.2c-0.2-0.1-0.3-0.1-0.5,0l-7.9,4.2
					c-0.2,0.1-0.3,0.3-0.3,0.5S103.7,364.2,103.9,364.2z"/>
			</defs>
			<clipPath id="SVGID_263_">
				<use xlink:href="#SVGID_262_"  style="overflow:visible;"/>
			</clipPath>
			<g class="st138">
				<defs>
					<rect id="SVGID_264_" x="-616.5" y="185" width="768" height="1024"/>
				</defs>
				<clipPath id="SVGID_265_">
					<use xlink:href="#SVGID_264_"  style="overflow:visible;"/>
				</clipPath>
				<rect x="98.6" y="354" class="st139" width="26.9" height="19.5"/>
			</g>
		</g>
		<g>
			<defs>
				<path id="SVGID_266_" d="M120.1,367.5l-2.3-1.2c-0.3-0.1-0.6,0-0.7,0.2c-0.1,0.3,0,0.6,0.2,0.7l1.4,0.8l-6.8,3.6l-6.8-3.6
					l1.4-0.8c0.3-0.1,0.4-0.5,0.2-0.7c-0.1-0.3-0.5-0.4-0.7-0.2l-2.3,1.2c-0.2,0.1-0.3,0.3-0.3,0.5s0.1,0.4,0.3,0.5l7.9,4.2
					c0.1,0,0.2,0.1,0.2,0.1s0.2,0,0.2-0.1l7.9-4.2c0.2-0.1,0.3-0.3,0.3-0.5S120.3,367.6,120.1,367.5z"/>
			</defs>
			<clipPath id="SVGID_267_">
				<use xlink:href="#SVGID_266_"  style="overflow:visible;"/>
			</clipPath>
			<g class="st140">
				<defs>
					<rect id="SVGID_268_" x="-616.5" y="185" width="768" height="1024"/>
				</defs>
				<clipPath id="SVGID_269_">
					<use xlink:href="#SVGID_268_"  style="overflow:visible;"/>
				</clipPath>
				<rect x="98.6" y="361.2" class="st141" width="26.9" height="16.5"/>
			</g>
		</g>
		<g>
			<defs>
				<path id="SVGID_270_" d="M120.1,371.8l-2.2-1.2c-0.3-0.1-0.6,0-0.7,0.2c-0.1,0.3,0,0.6,0.2,0.7l1.4,0.7l-6.8,3.6l-6.8-3.6
					l1.3-0.7c0.3-0.1,0.4-0.5,0.2-0.7s-0.5-0.4-0.7-0.2l-2.2,1.2c-0.2,0.1-0.3,0.3-0.3,0.5s0.1,0.4,0.3,0.5l7.9,4.2
					c0.1,0,0.2,0.1,0.2,0.1s0.2,0,0.2-0.1l7.9-4.2c0.2-0.1,0.3-0.3,0.3-0.5S120.3,371.8,120.1,371.8z"/>
			</defs>
			<clipPath id="SVGID_271_">
				<use xlink:href="#SVGID_270_"  style="overflow:visible;"/>
			</clipPath>
			<g class="st142">
				<defs>
					<rect id="SVGID_272_" x="-616.5" y="185" width="768" height="1024"/>
				</defs>
				<clipPath id="SVGID_273_">
					<use xlink:href="#SVGID_272_"  style="overflow:visible;"/>
				</clipPath>
				<rect x="98.6" y="365.5" class="st143" width="26.9" height="16.5"/>
			</g>
		</g>
	</g>
	<g>
		<g>
			<g class="st78">
				<g>
					<defs>
						<rect id="SVGID_274_" x="107" y="199.5" width="10" height="17"/>
					</defs>
					<clipPath id="SVGID_275_">
						<use xlink:href="#SVGID_274_"  style="overflow:visible;"/>
					</clipPath>
					<g class="st144">
						<defs>
							<path id="SVGID_276_" d="M115.4,204.9c0,2.5-1.3,3.7-3.4,3.7h-3.4V201h3.4c2.1,0,3.4,1.1,3.4,3.6V204.9z M112.1,199.5h-4.4
								c-0.4,0-0.7,0.3-0.7,0.6h0v16.3c0,0.4,0.4,0.6,0.8,0.6c0.4,0,0.8-0.2,0.8-0.6v-6.5h3.4c2.8,0,5-1.4,5-5.1v-0.2
								C117,200.9,114.9,199.5,112.1,199.5z"/>
						</defs>
						<clipPath id="SVGID_277_">
							<use xlink:href="#SVGID_276_"  style="overflow:visible;"/>
						</clipPath>
						<g class="st145">
							<defs>
								<rect id="SVGID_278_" x="107" y="199.5" width="10" height="17"/>
							</defs>
							<clipPath id="SVGID_279_">
								<use xlink:href="#SVGID_278_"  style="overflow:visible;"/>
							</clipPath>
							<rect x="102" y="194.5" class="st146" width="20" height="27.5"/>
						</g>
					</g>
				</g>
			</g>
		</g>
	</g>
	<g>
		<g>
			<g>
				<g class="st78">
					<g>
						<defs>
							<rect id="SVGID_280_" x="101" y="519" width="22" height="18"/>
						</defs>
						<clipPath id="SVGID_281_">
							<use xlink:href="#SVGID_280_"  style="overflow:visible;"/>
						</clipPath>
						<g class="st147">
							<defs>
								<path id="SVGID_282_" d="M110.1,525l5.2,5.1l1.3-1.3c0.1-0.1,0.3-0.2,0.4-0.2c0.2,0,0.3,0.1,0.4,0.2l5.2,7.3
									c0.1,0.2,0.1,0.4,0,0.5c-0.1,0.2-0.3,0.3-0.5,0.3h-20.7c-0.3,0-0.5-0.2-0.5-0.5c0-0.1,0-0.2,0.1-0.3l7.9-11
									c0,0,0.2-0.3,0.5-0.3C109.9,524.8,110.1,525,110.1,525z"/>
							</defs>
							<clipPath id="SVGID_283_">
								<use xlink:href="#SVGID_282_"  style="overflow:visible;"/>
							</clipPath>
							<g class="st148">
								<defs>
									<rect id="SVGID_284_" x="101" y="519" width="22" height="18"/>
								</defs>
								<clipPath id="SVGID_285_">
									<use xlink:href="#SVGID_284_"  style="overflow:visible;"/>
								</clipPath>
								<path class="st149" d="M110.1,525l5.2,5.1l1.3-1.3c0.1-0.1,0.3-0.2,0.4-0.2c0.2,0,0.3,0.1,0.4,0.2l5.2,7.3
									c0.1,0.2,0.1,0.4,0,0.5c-0.1,0.2-0.3,0.3-0.5,0.3h-20.7c-0.3,0-0.5-0.2-0.5-0.5c0-0.1,0-0.2,0.1-0.3l7.9-11
									c0,0,0.2-0.3,0.5-0.3C109.9,524.8,110.1,525,110.1,525z"/>
							</g>
						</g>
						<g class="st147">
							<defs>
								<path id="SVGID_286_" d="M119.6,529.3C119.6,529.3,119.6,529.3,119.6,529.3C119.6,529.3,119.6,529.3,119.6,529.3
									c0.2,0,0.3-0.1,0.5-0.2c0,0,0.1-0.1,0.1-0.2l2.5-2.5c0.2-0.2,0.2-0.6,0-0.9c-0.2-0.2-0.6-0.2-0.9,0l-1.5,1.5v-7.5
									c0-0.4-0.3-0.6-0.6-0.6c-0.4,0-0.6,0.3-0.6,0.6v7.5l-1.5-1.5c-0.2-0.2-0.6-0.2-0.9,0c-0.2,0.2-0.2,0.6,0,0.9l2.5,2.5
									c0,0.1,0.1,0.1,0.1,0.2C119.3,529.2,119.5,529.3,119.6,529.3z"/>
							</defs>
							<clipPath id="SVGID_287_">
								<use xlink:href="#SVGID_286_"  style="overflow:visible;"/>
							</clipPath>
							<g class="st150">
								<defs>
									<rect id="SVGID_288_" x="101" y="519" width="22" height="18"/>
								</defs>
								<clipPath id="SVGID_289_">
									<use xlink:href="#SVGID_288_"  style="overflow:visible;"/>
								</clipPath>
								<rect x="111.4" y="514" class="st151" width="16.4" height="20.3"/>
							</g>
						</g>
					</g>
				</g>
			</g>
		</g>
	</g>
	<g>
		<g>
			<g>
				<g class="st78">
					<g>
						<defs>
							<rect id="SVGID_290_" x="101" y="487" width="22" height="18"/>
						</defs>
						<clipPath id="SVGID_291_">
							<use xlink:href="#SVGID_290_"  style="overflow:visible;"/>
						</clipPath>
						<g class="st152">
							<defs>
								<path id="SVGID_292_" d="M110.1,493l5.2,5.1l1.3-1.3c0.1-0.1,0.3-0.2,0.4-0.2c0.2,0,0.3,0.1,0.4,0.2l5.2,7.3
									c0.1,0.2,0.1,0.4,0,0.5c-0.1,0.2-0.3,0.3-0.5,0.3h-20.7c-0.3,0-0.5-0.2-0.5-0.5c0-0.1,0-0.2,0.1-0.3l7.9-11
									c0,0,0.2-0.3,0.5-0.3S110.1,493,110.1,493z"/>
							</defs>
							<clipPath id="SVGID_293_">
								<use xlink:href="#SVGID_292_"  style="overflow:visible;"/>
							</clipPath>
							<g class="st153">
								<defs>
									<rect id="SVGID_294_" x="101" y="487" width="22" height="18"/>
								</defs>
								<clipPath id="SVGID_295_">
									<use xlink:href="#SVGID_294_"  style="overflow:visible;"/>
								</clipPath>
								<path class="st154" d="M110.1,493l5.2,5.1l1.3-1.3c0.1-0.1,0.3-0.2,0.4-0.2c0.2,0,0.3,0.1,0.4,0.2l5.2,7.3
									c0.1,0.2,0.1,0.4,0,0.5c-0.1,0.2-0.3,0.3-0.5,0.3h-20.7c-0.3,0-0.5-0.2-0.5-0.5c0-0.1,0-0.2,0.1-0.3l7.9-11
									c0,0,0.2-0.3,0.5-0.3C109.9,492.8,110.1,493,110.1,493z"/>
							</g>
						</g>
						<g class="st152">
							<defs>
								<path id="SVGID_296_" d="M119.6,487C119.6,487,119.6,487,119.6,487C119.6,487,119.6,487,119.6,487c0.2,0,0.3,0.1,0.5,0.2
									c0,0,0.1,0.1,0.1,0.2l2.5,2.5c0.2,0.2,0.2,0.6,0,0.9c-0.2,0.2-0.6,0.2-0.9,0l-1.5-1.5v7.5c0,0.4-0.3,0.6-0.6,0.6
									c-0.4,0-0.6-0.3-0.6-0.6v-7.5l-1.5,1.5c-0.2,0.2-0.6,0.2-0.9,0c-0.2-0.2-0.2-0.6,0-0.9l2.5-2.5c0-0.1,0.1-0.1,0.1-0.2
									C119.3,487.1,119.5,487,119.6,487z"/>
							</defs>
							<clipPath id="SVGID_297_">
								<use xlink:href="#SVGID_296_"  style="overflow:visible;"/>
							</clipPath>
							<g class="st155">
								<defs>
									<rect id="SVGID_298_" x="101" y="487" width="22" height="18"/>
								</defs>
								<clipPath id="SVGID_299_">
									<use xlink:href="#SVGID_298_"  style="overflow:visible;"/>
								</clipPath>
								<rect x="111.4" y="482" class="st156" width="16.4" height="20.3"/>
							</g>
						</g>
					</g>
				</g>
			</g>
		</g>
	</g>
</g>
<g id="Layer_5">
	<g>
		<g>
			<g>
				<g class="st78">
					<g>
						<defs>
							<rect id="SVGID_300_" x="106" y="6.5" width="12" height="19"/>
						</defs>
						<clipPath id="SVGID_301_">
							<use xlink:href="#SVGID_300_"  style="overflow:visible;"/>
						</clipPath>
						<g class="st157">
							<defs>
								<path id="SVGID_302_" d="M111.6,16.1c0,0,0.1,0.1,0.1,0.1h0c0,0,0.1,0,0.2,0s0.1,0,0.2,0h0c0,0,0.1,0,0.1-0.1l5.4-5.4
									c0.2-0.2,0.2-0.4,0-0.6c-0.2-0.2-0.4-0.2-0.6,0l-4.8,4.7V6.9c0-0.2-0.2-0.4-0.4-0.4c-0.2,0-0.4,0.2-0.4,0.4v7.9l-4.7-4.7
									c-0.2-0.2-0.4-0.2-0.6,0c-0.2,0.2-0.2,0.4,0,0.6L111.6,16.1z"/>
							</defs>
							<clipPath id="SVGID_303_">
								<use xlink:href="#SVGID_302_"  style="overflow:visible;"/>
							</clipPath>
							<g class="st158">
								<defs>
									<rect id="SVGID_304_" x="106" y="6.5" width="12" height="19"/>
								</defs>
								<clipPath id="SVGID_305_">
									<use xlink:href="#SVGID_304_"  style="overflow:visible;"/>
								</clipPath>
								<rect x="101" y="1.5" class="st159" width="21.7" height="19.7"/>
							</g>
						</g>
						<g class="st157">
							<defs>
								<path id="SVGID_306_" d="M106.4,17.7h10.9c0.2,0,0.4-0.2,0.4-0.4s-0.2-0.4-0.4-0.4h-10.9c-0.2,0-0.4,0.2-0.4,0.4
									C106,17.5,106.2,17.7,106.4,17.7z"/>
							</defs>
							<clipPath id="SVGID_307_">
								<use xlink:href="#SVGID_306_"  style="overflow:visible;"/>
							</clipPath>
							<g class="st160">
								<defs>
									<rect id="SVGID_308_" x="106" y="6.5" width="12" height="19"/>
								</defs>
								<clipPath id="SVGID_309_">
									<use xlink:href="#SVGID_308_"  style="overflow:visible;"/>
								</clipPath>
								<rect x="101" y="11.9" class="st161" width="21.7" height="10.8"/>
							</g>
						</g>
						<g class="st157">
							<defs>
								<rect id="SVGID_310_" x="106" y="6.5" width="12" height="19"/>
							</defs>
							<clipPath id="SVGID_311_">
								<use xlink:href="#SVGID_310_"  style="overflow:visible;"/>
							</clipPath>
							<g class="st162">
								<text transform="matrix(1 0 0 1 106.0225 24.4875)" class="st163 st164 st165">GPX</text>
							</g>
						</g>
					</g>
				</g>
			</g>
		</g>
	</g>
	<g>
		<g>
			<g class="st78">
				<g>
					<defs>
						<rect id="SVGID_312_" x="71" y="231" width="18" height="18"/>
					</defs>
					<clipPath id="SVGID_313_">
						<use xlink:href="#SVGID_312_"  style="overflow:visible;"/>
					</clipPath>
					<g class="st166">
						<defs>
							<path id="SVGID_314_" d="M80,247.7c-4.2,0-7.7-3.4-7.7-7.7s3.4-7.7,7.7-7.7c4.2,0,7.7,3.4,7.7,7.7S84.2,247.7,80,247.7z
								 M80,231.1c-4.9,0-8.9,4-8.9,8.9s4,8.9,8.9,8.9c4.9,0,8.9-4,8.9-8.9S84.9,231.1,80,231.1z"/>
						</defs>
						<clipPath id="SVGID_315_">
							<use xlink:href="#SVGID_314_"  style="overflow:visible;"/>
						</clipPath>
						<g class="st167">
							<defs>
								<rect id="SVGID_316_" x="71" y="231" width="18" height="18"/>
							</defs>
							<clipPath id="SVGID_317_">
								<use xlink:href="#SVGID_316_"  style="overflow:visible;"/>
							</clipPath>
							<rect x="66.1" y="226.1" class="st168" width="27.9" height="27.8"/>
						</g>
					</g>
					<g class="st166">
						<defs>
							<path id="SVGID_318_" d="M84.1,239.3h-3.5v-3.5c0-0.4-0.3-0.6-0.6-0.6s-0.6,0.3-0.6,0.6v3.5h-3.5c-0.4,0-0.6,0.3-0.6,0.6
								c0,0.4,0.3,0.6,0.6,0.6h3.5v3.5c0,0.4,0.3,0.6,0.6,0.6s0.6-0.3,0.6-0.6v-3.5h3.5c0.4,0,0.6-0.3,0.6-0.6
								C84.7,239.6,84.5,239.3,84.1,239.3z"/>
						</defs>
						<clipPath id="SVGID_319_">
							<use xlink:href="#SVGID_318_"  style="overflow:visible;"/>
						</clipPath>
						<g class="st169">
							<defs>
								<rect id="SVGID_320_" x="71" y="231" width="18" height="18"/>
							</defs>
							<clipPath id="SVGID_321_">
								<use xlink:href="#SVGID_320_"  style="overflow:visible;"/>
							</clipPath>
							<rect x="70.3" y="230.2" class="st170" width="19.5" height="19.5"/>
						</g>
					</g>
				</g>
			</g>
		</g>
	</g>
	<g>
		<g>
			<g class="st78">
				<g>
					<defs>
						<rect id="SVGID_322_" x="71" y="263" width="18" height="18"/>
					</defs>
					<clipPath id="SVGID_323_">
						<use xlink:href="#SVGID_322_"  style="overflow:visible;"/>
					</clipPath>
					<g class="st171">
						<defs>
							<path id="SVGID_324_" d="M72.3,265.5c0-0.6,0.5-1.1,1.1-1.1s1.1,0.5,1.1,1.1s-0.5,1.1-1.1,1.1S72.3,266.1,72.3,265.5z
								 M72.8,280.3c0,0.4,0.3,0.6,0.6,0.6c0.4,0,0.6-0.3,0.6-0.6v-12.5c1-0.3,1.8-1.2,1.8-2.3c0-1.3-1.1-2.4-2.4-2.4
								c-1.3,0-2.4,1.1-2.4,2.4c0,1.1,0.7,2,1.7,2.3L72.8,280.3L72.8,280.3z"/>
						</defs>
						<clipPath id="SVGID_325_">
							<use xlink:href="#SVGID_324_"  style="overflow:visible;"/>
						</clipPath>
						<g class="st172">
							<defs>
								<rect id="SVGID_326_" x="71" y="263" width="18" height="18"/>
							</defs>
							<clipPath id="SVGID_327_">
								<use xlink:href="#SVGID_326_"  style="overflow:visible;"/>
							</clipPath>
							<rect x="66.1" y="258.1" class="st173" width="14.8" height="27.8"/>
						</g>
					</g>
					<g class="st171">
						<defs>
							<path id="SVGID_328_" d="M81.1,272.5c0,0.6-0.5,1.1-1.1,1.1c-0.6,0-1.1-0.5-1.1-1.1s0.5-1.1,1.1-1.1
								C80.6,271.4,81.1,271.9,81.1,272.5z M80,263.1c-0.4,0-0.6,0.3-0.6,0.6v6.5c-1,0.3-1.7,1.2-1.7,2.3s0.7,2,1.7,2.3v5.5
								c0,0.4,0.3,0.6,0.6,0.6c0.4,0,0.6-0.3,0.6-0.6v-5.5c1-0.3,1.8-1.2,1.8-2.3s-0.8-2-1.8-2.3v-6.5
								C80.6,263.4,80.3,263.1,80,263.1z"/>
						</defs>
						<clipPath id="SVGID_329_">
							<use xlink:href="#SVGID_328_"  style="overflow:visible;"/>
						</clipPath>
						<g class="st174">
							<defs>
								<rect id="SVGID_330_" x="71" y="263" width="18" height="18"/>
							</defs>
							<clipPath id="SVGID_331_">
								<use xlink:href="#SVGID_330_"  style="overflow:visible;"/>
							</clipPath>
							<rect x="72.6" y="258.1" class="st175" width="14.8" height="27.8"/>
						</g>
					</g>
					<g class="st171">
						<defs>
							<path id="SVGID_332_" d="M86.6,279.6c-0.6,0-1.1-0.5-1.1-1.1s0.5-1.1,1.1-1.1c0.6,0,1.1,0.5,1.1,1.1S87.2,279.6,86.6,279.6z
								 M87.2,276.2v-12.5c0-0.4-0.3-0.6-0.6-0.6c-0.4,0-0.6,0.3-0.6,0.6v12.5c-1,0.3-1.8,1.2-1.8,2.3c0,1.3,1.1,2.4,2.4,2.4
								s2.4-1.1,2.4-2.4C88.9,277.4,88.2,276.5,87.2,276.2z"/>
						</defs>
						<clipPath id="SVGID_333_">
							<use xlink:href="#SVGID_332_"  style="overflow:visible;"/>
						</clipPath>
						<g class="st176">
							<defs>
								<rect id="SVGID_334_" x="71" y="263" width="18" height="18"/>
							</defs>
							<clipPath id="SVGID_335_">
								<use xlink:href="#SVGID_334_"  style="overflow:visible;"/>
							</clipPath>
							<rect x="79.2" y="258.1" class="st177" width="14.8" height="27.8"/>
						</g>
					</g>
				</g>
			</g>
		</g>
	</g>
</g>
</svg>
