<svg id="586cfb36-514d-4e26-b72c-3758869ba1df" data-name="Layer 3" xmlns="http://www.w3.org/2000/svg" xmlns:xlink="http://www.w3.org/1999/xlink" viewBox="0 0 96 576"><defs><style>.\30 da9da62-85ba-4b56-a248-49a80fcde14c,.\31 2bdbf83-d01b-432c-8730-2d247ba1c300,.\34 861ae59-7281-42e7-9223-806447430147,.\37 23be2c4-5cce-4e3d-ac65-49408a16590e,.a3d15524-41df-476c-9dec-e569c2a05930,.b3bb3b29-b406-4cd5-8bd5-78b89fb04bb1,.c2cbef30-adb6-48c5-bba6-6369b5e793b3,.c8c1d437-eeb9-4a14-8ebe-0396bffa5ecc,.d6e9b3aa-d20d-461e-9bb8-a19681065669,.ec0bcda2-8ab8-46f6-bcc3-3e4d2a62ace1{fill:none;}.\31 0486262-d274-4c34-8184-baa609b5b38f,.\38 6d190b3-d777-4bb7-98ef-0f522478a803,.ec0bcda2-8ab8-46f6-bcc3-3e4d2a62ace1{clip-rule:evenodd;}.\30 2252fa7-990c-4291-9982-118dbfd7dfdc,.\36 30b3244-5f48-466d-b27d-204ce1d6123e,.\38 6d190b3-d777-4bb7-98ef-0f522478a803{fill:#fff;}.\31 0486262-d274-4c34-8184-baa609b5b38f,.\34 2a2a386-7ecd-4e0a-a257-46e73ea03c9a,.\39 64c4cef-22d7-43ff-9919-9d561cd3ba61,.e8de1dc7-9186-44b3-941e-7859be1b1dbd{fill:#fa5400;}.\38 777c299-076d-43e8-b73c-87f1612eddc2{clip-path:url(#e1d3dc90-675b-4290-b933-d147219a25f5);}.\36 52bb332-f80f-4a5f-9793-90b0d75f9cfe{fill:#999;}.e0e924c4-59c4-413a-a27d-87d8ac6f64eb{clip-path:url(#1d993f50-7638-4546-b789-23a2784f3b5b);}.de924aab-bd6b-44f5-9f40-c9042f5cebee{clip-path:url(#ee70bf30-ed5b-40a0-afaf-25d4c0a13725);}.\31 2bdbf83-d01b-432c-8730-2d247ba1c300,.c2cbef30-adb6-48c5-bba6-6369b5e793b3{stroke:#999;}.\30 da9da62-85ba-4b56-a248-49a80fcde14c,.\31 2bdbf83-d01b-432c-8730-2d247ba1c300,.\34 861ae59-7281-42e7-9223-806447430147,.\37 23be2c4-5cce-4e3d-ac65-49408a16590e,.b3bb3b29-b406-4cd5-8bd5-78b89fb04bb1,.c2cbef30-adb6-48c5-bba6-6369b5e793b3,.c8c1d437-eeb9-4a14-8ebe-0396bffa5ecc,.d6e9b3aa-d20d-461e-9bb8-a19681065669,.e8de1dc7-9186-44b3-941e-7859be1b1dbd{stroke-miterlimit:10;}.\30 da9da62-85ba-4b56-a248-49a80fcde14c,.\31 2bdbf83-d01b-432c-8730-2d247ba1c300,.\34 861ae59-7281-42e7-9223-806447430147,.\37 23be2c4-5cce-4e3d-ac65-49408a16590e,.c2cbef30-adb6-48c5-bba6-6369b5e793b3,.c8c1d437-eeb9-4a14-8ebe-0396bffa5ecc{stroke-width:2px;}.a5cb7a02-9f84-4179-bc8a-2d49b5f4cd30{clip-path:url(#675737a7-d0a7-4ecb-9c8f-4d45d57e8f56);}.\32 55901fd-f166-4536-b3ec-3b72e577ac44{clip-path:url(#59db1af5-4e12-46b5-9ad3-03eacf315977);}.\39 8e9c847-3e02-4a9d-a628-83ed9a248c0a{clip-path:url(#4eebeb40-176a-455b-ba48-ff67d06ca6da);}.\37 d47379e-3505-4994-afc5-71f8e9d1ae13{clip-path:url(#11aa8a6e-379b-47a9-b12d-655eded36948);}.\32 be392f0-42fd-4a56-a309-0f5362b1f2a5{clip-path:url(#3e528f4f-98d5-40fb-b7ab-d146a8b3a322);}.a97ef5f2-f40a-4bee-8cc9-090f42a8f8d9{clip-path:url(#0f9d1139-fac3-40cf-ac66-2c0a7d41bacf);}.f3a291bb-4371-4967-a06f-2f3cc345a127{clip-path:url(#2b5e5692-6445-49d0-b806-af9f137cfde3);}.a9c22d90-d02a-4a7f-a66c-1114f0578e55{clip-path:url(#947ef051-5e9b-45ce-ab76-c5f51ce1b165);}.df9137ba-233b-4272-8bb2-eff8a2785e76{clip-path:url(#0d10884f-7855-4eb5-b327-999f741c75b3);}.\32 277db35-c54d-41de-87c8-d33405b72398{clip-path:url(#a646fa6b-e5a2-4930-93ff-d7d152150394);}.\35 a2132ba-fb84-477a-9b4e-d79868c5d3ac{clip-path:url(#e7d539ec-9ab9-443a-9fcd-6f0316680a61);}.a076362e-c65d-4523-91ca-8e639ee85227{clip-path:url(#2aad320e-411f-48a8-97c7-53e48c425f91);}.\31 2109cbb-ae95-41d4-8185-5aa57e14143b{clip-path:url(#7cc6bd28-c49d-464e-9420-01690968238a);}.c8be682e-98be-45fd-a47d-ec70cf462617{clip-path:url(#043522f8-b25d-46a6-8886-47b415a567c4);}.e569f5cb-cd3b-40b2-b2ba-d52050e98f1f{clip-path:url(#84dc4f3f-7210-41cf-8c70-4cef2b9f9558);}.\36 194d91e-c633-4365-a40b-e99c8722b7ce{clip-path:url(#ee360f58-2a0e-424f-9154-135a32910ed8);}.\39 fc8238b-f57f-4746-9ee0-d10a081f4c0b{clip-path:url(#1469ab2c-1070-4492-956b-c7184d43bf93);}.b7550544-9c51-4e27-aeae-fde83ed9d66f{clip-path:url(#7b47a4a9-b557-4c58-b3b1-a4520bb55419);}.\30 4c51ac1-b573-40aa-bc93-10e87f37aa36{clip-path:url(#a6784d5c-ed8b-4493-b96d-55616c972ec2);}.c2cbef30-adb6-48c5-bba6-6369b5e793b3{opacity:0.99;}.a231eb34-0088-437d-8eab-0165d25c7cb0{clip-path:url(#c7a24edc-d8bc-43b9-935c-9cc6fddaac1a);}.\34 954dd8a-0d99-474d-b9c5-5d3fc2d03281{clip-path:url(#0c860f90-e084-4b41-b9c2-a0817124a0de);}.cd9d9dca-7410-437e-a0ef-cf84c6d8d790{clip-path:url(#d0247666-be87-417a-9b68-fed3b2c1fa06);}.\34 e8b7814-767f-430e-80ac-0e106bb41484{clip-path:url(#ad1ce0cf-4f4f-489d-b7c6-c7fb0c0ea3c0);}.\38 fabae15-d5f7-4f0e-a36c-05ecdf92d4a1{clip-path:url(#1cbef9e5-c605-4421-8e2d-f72a3ff8d98f);}.\31 e65d179-4d81-4604-9c7d-4e2ee36cff8f{clip-path:url(#c66d6a46-d3f7-44d2-9ae2-4497f2bda39b);}.\35 3ae3d4d-a61e-4dc1-b399-39302093c75a{clip-path:url(#841968eb-48d2-4b59-b293-143becee0ed3);}.ef3f5a45-d370-4a91-99f6-3ea04bcc1f34{clip-path:url(#35e4a3fa-3b2f-45b6-9d7f-14392dc20566);}.cb71e335-fcc6-4f12-b8d1-10b78a1977b0{clip-path:url(#e59902bc-31da-4258-8875-71d70b783f97);}.\30 da9da62-85ba-4b56-a248-49a80fcde14c,.d6e9b3aa-d20d-461e-9bb8-a19681065669,.e8de1dc7-9186-44b3-941e-7859be1b1dbd{stroke:#fa5400;}.\31 c4170ec-5430-4678-918b-54d33d728c5e{clip-path:url(#59c2858f-0464-4a3c-ae50-cf2851e4b122);}.\32 c9515bf-e1bd-4865-9ec5-cdefe973bfea{clip-path:url(#ab37c1da-b648-470e-940b-12724a6ce123);}.\30 323eef2-a00f-4a83-9bf9-71f6e6f3f3e9{fill:#666;}.\34 71e5865-e55b-4c35-b17b-839e90c52d17{clip-path:url(#298007b7-d8b9-46ba-aa1b-7c997b215d4f);}.b9a67945-3780-492e-8bc9-bc6f632ba305{clip-path:url(#862e849d-9478-4b66-9ae8-3f640730dc10);}.\35 0df6fa0-9a88-45bb-98b3-198591058941{clip-path:url(#2f7a776b-087c-407b-a6a2-19f386249cb0);}.\37 a58602d-f38f-41be-a08b-2a7258a8cc5b{fill:#4c4c4c;}.\33 f51932d-81df-4acf-aa45-ed8c30eda2c9{clip-path:url(#61f11e89-6fb2-48f5-bfe8-6d653ac9a212);}.cd34bd6c-ef2c-475c-a89b-2012e6fddddf{clip-path:url(#17a3f574-7395-44b2-8c5e-4a23fb0fa373);}.\31 458fc69-6c1b-4fb5-b1d8-67ce7efc46a6{clip-path:url(#1a5c1fe9-1e1c-48a5-8cd0-35a06837c022);}.fbc40c30-29d0-45c6-ba5e-157448a49d35{clip-path:url(#73355231-cbdf-4abd-bceb-5f0174d71b3d);}.\30 2252fa7-990c-4291-9982-118dbfd7dfdc,.\39 64c4cef-22d7-43ff-9919-9d561cd3ba61{fill-rule:evenodd;}.b9be18c0-8b25-40c1-9bfa-ac9da84841a9{clip-path:url(#39b5ad84-a387-409a-9e7b-026f6d75f944);}.f15bdf5f-b651-451f-af67-0a9bc6bcb1ff{clip-path:url(#9921726d-7a20-4436-aef0-f3c1acc59dc4);}.\39 13cbe23-66e2-4ed6-a663-3af58bf2384c{clip-path:url(#f6c48404-e4fa-48f2-add1-b07c03d12147);}.\32 debaca0-d98d-42ec-9b22-d03b7268bcf6{clip-path:url(#0dc9218b-bfd4-4b17-bd02-15f2636764cc);}.\39 93aa87f-3b96-43eb-9253-9579f2433645{clip-path:url(#1a57471c-6504-4993-a573-b7e1e3515ce4);}.\30 dad4eac-f0b8-449c-8ecd-1d269205f78f{clip-path:url(#e5bc50cf-16fc-4807-82c5-ea9ed971f9c6);}.f8fa9284-7661-4833-b3a3-27ebbf4bc7a9{clip-path:url(#eca65731-c24e-4bf7-81d3-3cd5e870557d);}.\39 0bf348a-e3b2-423d-8213-905c36f85b85{clip-path:url(#c337ad0c-a86f-4e4b-8f60-ba7aba3c9b40);}.d7d24444-c875-46b6-a509-099a7dd25461{clip-path:url(#e4f6e225-3744-4845-af7a-ea0b039b57e0);}.\38 97e2db8-4f43-4b86-bd17-dcae9b008ce2{clip-path:url(#6994b19e-8252-4457-b9a9-aec0040ed75b);}.db72825b-7d00-40e9-a179-2cbe8dbd0279{clip-path:url(#1b1da539-c77a-42df-9844-6c1ef5476ec7);}.\33 d30bf8f-af37-4a08-89d6-b4863cfd84d8{clip-path:url(#df8e24c6-5c7d-4d11-8ced-692ce8340c01);}.\36 a2f7d42-5139-4413-a9c8-64f2c2380ada{clip-path:url(#a2c23edb-20ef-4d84-9822-647c1e799468);}.\30 86bb57e-30f8-4e1f-ad7d-13e0e74a4f52{clip-path:url(#8417fbea-4bd0-40d1-a8c7-7fee5fadc34a);}.\36 47c158f-e576-4727-8046-0d3449f0cf3a{clip-path:url(#1a7feb8e-c33c-4bf9-a7d8-19619c7fbf39);}.\39 0ca8be2-a2b8-4170-bec0-ff4f583f3806{clip-path:url(#f52e863d-57ed-4a27-9647-324478bc31b6);}.\35 6009d88-7fc4-4c61-b09c-66d3ed400052{clip-path:url(#461c08fd-2e45-49b4-977b-0afda1e7aaa4);}.\35 cb6b6b5-7c25-494e-9643-c9fdcc7fdbaa{clip-path:url(#856146fc-60e2-45cf-9505-c3ac3556dc67);}.\36 edbbd53-f333-422a-b88e-412db824f4ae{clip-path:url(#2cbf32d9-2b16-4ad9-a813-15f548a8815b);}.\37 0110070-e788-4740-94f7-b759ad10130b{clip-path:url(#21d2d9a9-19c5-47b3-a750-fc720468e114);}.b3bb3b29-b406-4cd5-8bd5-78b89fb04bb1,.c8c1d437-eeb9-4a14-8ebe-0396bffa5ecc{stroke:#3cba54;}.edd8483e-5a87-4c92-ba4f-a4fbed15ca35{clip-path:url(#0351ba84-c351-40a0-9074-23913e3ec229);}.\33 2243fd4-651a-4797-8054-6797ec085cff{fill:#4080ff;}.ccf093e0-f58c-4410-a440-25f9b046347b{clip-path:url(#3f290677-a5f3-4dd4-8b3a-84cf0373f3ad);}.\36 6b4489c-f981-4079-8a74-8ec8a070cc5a{clip-path:url(#d78dc5bf-c53e-4d57-80f4-093d1172b7c9);}.\37 23be2c4-5cce-4e3d-ac65-49408a16590e{stroke:#db3236;}.\32 2fbbf70-6342-49bf-9d7b-fde5f65ddaa4{clip-path:url(#4cba038f-dbdc-45ca-a3fc-60da23a42922);}.\33 93d64ad-0ef2-4997-b044-857a0e3d80a2{clip-path:url(#b15c5a88-b6c4-4b8d-a485-3391734c5be7);}.e57b95d2-6072-442e-9a20-bfb491d61284{clip-path:url(#1375c088-87b5-4a65-96cd-580ffe1ffbe5);}.d6e9b3aa-d20d-461e-9bb8-a19681065669{stroke-linecap:square;}.\37 1276c83-6c2c-4a44-b8a2-3b2231661942{clip-path:url(#a911015e-fba7-4a24-aca6-420ee855f1bc);}.\35 301aef4-f291-40dc-ab2d-c6edfab90a40{clip-path:url(#32b4ea59-4299-4895-9cbf-de3e684ff43b);}.\39 f1c2b9e-faca-4552-81b8-b1964f56591a{clip-path:url(#2051121c-78f1-460f-88b5-24fe6ab12f41);}.\39 bfed1f7-65ef-477c-a8d7-26af330e2fe3{clip-path:url(#55bcd160-68a8-4fcc-bdc3-b7be1577bbe6);}.\33 9850eb9-d4b8-4fdf-8965-4f452c41b691{isolation:isolate;}.\31 6eba7d6-499a-464f-930e-0e1bd1141394{clip-path:url(#037d24dc-b89c-4c50-9bc0-fda50c325b5d);}.db8c3282-461d-4368-a59a-66d26e8ff8ef{clip-path:url(#fa53e9f7-2456-47f2-8362-e5f9aa0cf18f);}.e8de1dc7-9186-44b3-941e-7859be1b1dbd{stroke-width:0.4px;}.bc5452b5-5c80-40e9-ab6f-a6362bef1021{fill:#979797;}.\37 e357ecf-adda-48de-b50b-db603d38dc79{clip-path:url(#7eb29fc3-1b31-4349-82ea-0849b0dd5778);}.\34 861ae59-7281-42e7-9223-806447430147{stroke:#979797;}.\33 e065177-3852-49ea-976f-9b1bfe68cd07{clip-path:url(#091fa2dd-8549-4370-9ddc-b97c2f52125c);}.\39 2760770-bbb9-434f-9559-33ca9d14cb8c{clip-path:url(#13adf830-f586-4889-b156-ac6dbfdc57ad);}.f018a629-179b-40d1-96e5-9b77757d3342{clip-path:url(#b712948f-7e71-4e51-8784-e488afb34274);}.\30 a11ef40-40a1-4403-9126-d383d5cd74bc{clip-path:url(#cd4c4d92-09e9-4dd0-bc20-232957398e45);}.\33 c84df61-dd25-4c75-8f6d-ff38cb7352d1{clip-path:url(#73567bcc-0564-413b-b073-cc132d0d530e);}.b1c2240f-592f-4ad3-abde-8efd8ca7b4ed{fill:#44678d;}.\39 680037b-8035-4edd-bbf0-d04cbc599de6{clip-path:url(#55877144-74f0-4fdc-a163-7222c47f5dae);}.\30 771c272-cfdf-4321-a741-7d5149bb2962{clip-path:url(#7f365286-9304-4c02-bf94-0319bb8b5ae4);}.\31 97a895b-f0a8-40eb-9aae-4e632cfc6579{fill:#3b5998;}.\34 267fb07-7b95-4261-bb04-024d64d52291{clip-path:url(#528f5c56-dd0d-42ec-b58b-33bed480b4c3);}.\32 4c68a4c-4f40-451e-a175-d8a613893987{clip-path:url(#35f01561-cab2-4f62-9f81-10f4620d3073);}.\37 78b7c27-325c-4181-956b-3ef1eae86223{fill:#4885ed;}</style><clipPath id="e1d3dc90-675b-4290-b933-d147219a25f5"><path class="a3d15524-41df-476c-9dec-e569c2a05930" d="M7.25,278.64a2.52,2.52,0,1,1,2.52-2.52A2.52,2.52,0,0,1,7.25,278.64Zm0,1a3.5,3.5,0,1,0-3.5-3.5A3.5,3.5,0,0,0,7.25,279.62Z"/></clipPath><clipPath id="1d993f50-7638-4546-b789-23a2784f3b5b"><path class="a3d15524-41df-476c-9dec-e569c2a05930" d="M24.75,279a2.52,2.52,0,1,1,2.52-2.52A2.52,2.52,0,0,1,24.75,279Zm0,1a3.5,3.5,0,1,0-3.5-3.5A3.5,3.5,0,0,0,24.75,279.94Z"/></clipPath><clipPath id="ee70bf30-ed5b-40a0-afaf-25d4c0a13725"><path class="ec0bcda2-8ab8-46f6-bcc3-3e4d2a62ace1" d="M19,264.94H17.25v-1h2l0.48,0.14,1.18,2.54,0.92-.17,2.61,1.25,3.24,4.84-3-1.45-1.54.31,1.06,2.17L23.3,274l-1.16-2.39L20.06,274v1.9H12.23l-0.31-.85-1.77.35-0.5-.87,1.93-.44-0.33-.91-0.66-.68-5.34-3.74,0.57-.82L8,269.48l-0.24-.35L6.67,267.7v-1.42l6,1.73s6.59-1.16,6.59-1.08l0.67-.12Z"/></clipPath><clipPath id="675737a7-d0a7-4ecb-9c8f-4d45d57e8f56"><path class="a3d15524-41df-476c-9dec-e569c2a05930" d="M39.25,278.7a2.52,2.52,0,1,1,2.52-2.52A2.52,2.52,0,0,1,39.25,278.7Zm0,1a3.5,3.5,0,1,0-3.5-3.5A3.5,3.5,0,0,0,39.25,279.68Z"/></clipPath><clipPath id="59db1af5-4e12-46b5-9ad3-03eacf315977"><path class="a3d15524-41df-476c-9dec-e569c2a05930" d="M56.75,279a2.52,2.52,0,1,1,2.52-2.52A2.52,2.52,0,0,1,56.75,279Zm0,1a3.5,3.5,0,1,0-3.5-3.5A3.5,3.5,0,0,0,56.75,280Z"/></clipPath><clipPath id="4eebeb40-176a-455b-ba48-ff67d06ca6da"><path class="ec0bcda2-8ab8-46f6-bcc3-3e4d2a62ace1" d="M51,265H49.25v-1h2l0.48,0.14,1.18,2.54,0.92-.17,2.61,1.25,3.24,4.84-3-1.45-1.54.31,1.06,2.17-0.91.42-1.16-2.39-2.07,2.39V276H44.23l-0.31-.85-1.77.35-0.5-.87,1.93-.44-0.33-.91-0.66-.68-5.34-3.74,0.57-.82,2.2,1.54-0.24-.35-1.12-1.43v-1.42l6,1.73s6.59-1.16,6.59-1.08l0.67-.12Z"/></clipPath><clipPath id="11aa8a6e-379b-47a9-b12d-655eded36948"><path class="a3d15524-41df-476c-9dec-e569c2a05930" d="M23.4,309.89A2.58,2.58,0,1,1,26,307.31,2.58,2.58,0,0,1,23.4,309.89Zm0,1a3.58,3.58,0,1,0-3.58-3.58A3.58,3.58,0,0,0,23.4,310.89Z"/></clipPath><clipPath id="3e528f4f-98d5-40fb-b7ab-d146a8b3a322"><path class="a3d15524-41df-476c-9dec-e569c2a05930" d="M8.48,309.75A2.52,2.52,0,1,1,11,307.23,2.52,2.52,0,0,1,8.48,309.75Zm0,1a3.5,3.5,0,1,0-3.5-3.5A3.5,3.5,0,0,0,8.48,310.73Z"/></clipPath><clipPath id="0f9d1139-fac3-40cf-ac66-2c0a7d41bacf"><polygon class="ec0bcda2-8ab8-46f6-bcc3-3e4d2a62ace1" points="22.38 301.03 25.34 301.4 25.15 302.51 22.66 302.23 23.17 303.99 22.21 304.25 21.75 302.56 19.46 304.16 18.93 306.38 13.72 307.71 13.28 307.01 11.65 307.3 11.48 306.31 12.69 306.1 12.14 305.24 10.69 303.87 6.1 302.16 6.44 301.22 9.9 302.51 10.14 302.33 9.13 301.4 6.61 300 12.14 300.64 14.26 301.71 15.79 301.71 16.44 300.64 19.7 298.75 20.77 298.87 20.55 298.05 19.48 298.05 19.48 297.05 21.48 297.05 21.48 297.66 22.38 301.03"/></clipPath><clipPath id="2b5e5692-6445-49d0-b806-af9f137cfde3"><path class="a3d15524-41df-476c-9dec-e569c2a05930" d="M55.42,309.92A2.58,2.58,0,1,1,58,307.34,2.58,2.58,0,0,1,55.42,309.92Zm0,1a3.58,3.58,0,1,0-3.58-3.58A3.58,3.58,0,0,0,55.42,310.92Z"/></clipPath><clipPath id="947ef051-5e9b-45ce-ab76-c5f51ce1b165"><path class="a3d15524-41df-476c-9dec-e569c2a05930" d="M40.5,309.78A2.52,2.52,0,1,1,43,307.26,2.52,2.52,0,0,1,40.5,309.78Zm0,1a3.5,3.5,0,1,0-3.5-3.5A3.5,3.5,0,0,0,40.5,310.76Z"/></clipPath><clipPath id="0d10884f-7855-4eb5-b327-999f741c75b3"><polygon class="ec0bcda2-8ab8-46f6-bcc3-3e4d2a62ace1" points="54.4 301.06 57.37 301.43 57.17 302.54 54.68 302.26 55.2 304.02 54.23 304.28 53.78 302.59 51.48 304.19 50.95 306.41 45.74 307.74 45.3 307.04 43.67 307.33 43.5 306.34 44.71 306.13 44.17 305.27 42.71 303.9 38.12 302.19 38.46 301.25 41.92 302.54 42.16 302.36 41.16 301.43 38.63 300.04 44.17 300.67 46.29 301.75 47.81 301.75 48.46 300.67 51.72 298.78 52.79 298.9 52.57 298.08 51.5 298.08 51.5 297.08 53.5 297.08 53.5 297.69 54.4 301.06"/></clipPath><clipPath id="a646fa6b-e5a2-4930-93ff-d7d152150394"><path class="ec0bcda2-8ab8-46f6-bcc3-3e4d2a62ace1" d="M25.49,340.86H27.6l0.4-.4v-1.32l-0.39-.39H27.06l-0.17-2.41-0.83-1.18-4.57-.56-2.35-3-1.67-.82H8.13l-1.91,1.94-0.3,2.94-0.19-1.86L5.56,332H4.4l-0.4.4v4.25l0.4,0.4H5.24l0.11,1.67H4.74v2.11H7s0-.08,0-0.12a3,3,0,0,1,6,0s0,0.08,0,.11h6s0-.08,0-0.11a3,3,0,0,1,6,0s0,0.09,0,.14Z"/></clipPath><clipPath id="e7d539ec-9ab9-443a-9fcd-6f0316680a61"><path class="a3d15524-41df-476c-9dec-e569c2a05930" d="M10,343.25a2.5,2.5,0,1,1,2.5-2.5A2.5,2.5,0,0,1,10,343.25Zm0-1a1.5,1.5,0,1,0-1.5-1.5A1.5,1.5,0,0,0,10,342.25Z"/></clipPath><clipPath id="2aad320e-411f-48a8-97c7-53e48c425f91"><path class="a3d15524-41df-476c-9dec-e569c2a05930" d="M22,343.25a2.5,2.5,0,1,1,2.5-2.5A2.5,2.5,0,0,1,22,343.25Zm0-1a1.5,1.5,0,1,0-1.5-1.5A1.5,1.5,0,0,0,22,342.25Z"/></clipPath><clipPath id="7cc6bd28-c49d-464e-9420-01690968238a"><rect class="a3d15524-41df-476c-9dec-e569c2a05930" x="8" y="328.75" width="9" height="1"/></clipPath><clipPath id="043522f8-b25d-46a6-8886-47b415a567c4"><path class="ec0bcda2-8ab8-46f6-bcc3-3e4d2a62ace1" d="M57.49,340.86H59.6l0.4-.4v-1.32l-0.39-.39H59.06l-0.17-2.41-0.83-1.18-4.57-.56-2.35-3-1.67-.82H40.13l-1.91,1.94-0.3,2.94-0.19-1.86L37.56,332H36.4l-0.4.4v4.25l0.4,0.4h0.84l0.11,1.67h-0.6v2.11H39s0-.08,0-0.12a3,3,0,0,1,6,0s0,0.08,0,.11h6s0-.08,0-0.11a3,3,0,0,1,6,0s0,0.09,0,.14Z"/></clipPath><clipPath id="84dc4f3f-7210-41cf-8c70-4cef2b9f9558"><path class="a3d15524-41df-476c-9dec-e569c2a05930" d="M42,343.25a2.5,2.5,0,1,1,2.5-2.5A2.5,2.5,0,0,1,42,343.25Zm0-1a1.5,1.5,0,1,0-1.5-1.5A1.5,1.5,0,0,0,42,342.25Z"/></clipPath><clipPath id="ee360f58-2a0e-424f-9154-135a32910ed8"><path class="a3d15524-41df-476c-9dec-e569c2a05930" d="M54,343.25a2.5,2.5,0,1,1,2.5-2.5A2.5,2.5,0,0,1,54,343.25Zm0-1a1.5,1.5,0,1,0-1.5-1.5A1.5,1.5,0,0,0,54,342.25Z"/></clipPath><clipPath id="1469ab2c-1070-4492-956b-c7184d43bf93"><rect class="a3d15524-41df-476c-9dec-e569c2a05930" x="40" y="328.75" width="9" height="1"/></clipPath><clipPath id="7b47a4a9-b557-4c58-b3b1-a4520bb55419"><path class="ec0bcda2-8ab8-46f6-bcc3-3e4d2a62ace1" d="M46,373.09l-0.29.17h-8L37.45,373l1.12-1.11h8.61Zm13.3-1.24-0.64.65-0.66.69H54.26L53,371.9h2.25l2.11-2.14-0.62-1.5-4.79-2.54L50,362.81,48.52,362l-1,.3-0.48,2.43,1.66,2.48-1.89,1.12H45.45l0.11-.6L43.81,366H39l-1.75,1.72,0.13,0.65-1.34,1.72,1.22,1.77-0.94,1v0.26L37.07,374h9.1l2-2,3.81,0,1.28,1.28H48.17L48.73,374h9.83l1.39-1.47Z"/></clipPath><clipPath id="a6784d5c-ed8b-4493-b96d-55616c972ec2"><path class="ec0bcda2-8ab8-46f6-bcc3-3e4d2a62ace1" d="M14,373.09l-0.29.17h-8L5.45,373l1.12-1.11h8.61Zm13.3-1.24-0.64.65-0.66.69H22.26L21,371.91h2.25l2.11-2.14-0.62-1.5-4.79-2.54L18,362.81,16.52,362l-1,.3-0.48,2.43,1.66,2.48-1.89,1.12H13.45l0.11-.6L11.81,366H7l-1.75,1.72,0.13,0.65-1.34,1.72,1.22,1.77-0.94,1v0.26L5.07,374h9.1l2-2,3.81,0,1.28,1.28H16.17L16.73,374h9.83l1.39-1.47Z"/></clipPath><clipPath id="c7a24edc-d8bc-43b9-935c-9cc6fddaac1a"><path class="ec0bcda2-8ab8-46f6-bcc3-3e4d2a62ace1" d="M47.94,497.66a0.62,0.62,0,0,1,.25-0.46l3.16-2.29-2.28,3.16A0.63,0.63,0,0,1,47.94,497.66Zm0.73,1.47a1.42,1.42,0,0,0,1-.58l3.75-5.18a0.4,0.4,0,0,0-.56-0.56l-5.18,3.75a1.43,1.43,0,0,0,.84,2.58h0.11Z"/></clipPath><clipPath id="0c860f90-e084-4b41-b9c2-a0817124a0de"><path class="ec0bcda2-8ab8-46f6-bcc3-3e4d2a62ace1" d="M47.94,486.35v-1.21h-1.4a0.2,0.2,0,0,1,0-.4h3.6a0.2,0.2,0,0,1,0,.4h-1.4v1.21h-0.8Zm9.67,0.89,0.57,0.57-0.57.57L57,487.8Zm0,4.53v0l0,0a10.87,10.87,0,0,0-1.43-1.92l0.86-.86,0.57,0.57,1.7-1.7-1.7-1.7-1.7,1.7,0.57,0.57-0.86.86a10.86,10.86,0,0,0-1.92-1.43l0,0h0a10.72,10.72,0,0,0-4.11-1.36v-0.48h0.6a1,1,0,1,0,0-2h-3.6a1,1,0,0,0,0,2h0.6v0.46a11,11,0,0,0-1.29.21,0.4,0.4,0,0,0,.18.78,10.17,10.17,0,0,1,1.11-.19l0.43,0,0.37,0v0.79a0.4,0.4,0,0,0,.8,0v-0.79a9.92,9.92,0,0,1,4.18,1.14l-0.39.68a0.4,0.4,0,1,0,.69.4l0.39-.68a10.08,10.08,0,0,1,3.11,3.11l-0.68.39a0.4,0.4,0,0,0,.4.69l0.68-.39a9.93,9.93,0,0,1,1.14,4.25H57.47a0.4,0.4,0,0,0,0,.8h0.79a9.93,9.93,0,0,1-1.14,4.25l-0.68-.39a0.4,0.4,0,1,0-.4.69l0.68,0.39a10.08,10.08,0,0,1-3.11,3.11l-0.39-.68a0.4,0.4,0,1,0-.69.4L52.92,506a9.92,9.92,0,0,1-4.18,1.14v-0.79a0.4,0.4,0,0,0-.8,0v0.79a10.09,10.09,0,0,1-1.91-.25,0.4,0.4,0,1,0-.18.78,10.81,10.81,0,0,0,2.42.28h0.07a10.73,10.73,0,0,0,5.29-1.43l0,0,0,0a10.88,10.88,0,0,0,3.91-3.9l0,0v0A10.76,10.76,0,0,0,57.64,491.76Z"/></clipPath><clipPath id="d0247666-be87-417a-9b68-fed3b2c1fa06"><path class="ec0bcda2-8ab8-46f6-bcc3-3e4d2a62ace1" d="M44.74,489.54h-2a0.4,0.4,0,1,0,0,.8h2A0.4,0.4,0,1,0,44.74,489.54Z"/></clipPath><clipPath id="ad1ce0cf-4f4f-489d-b7c6-c7fb0c0ea3c0"><path class="ec0bcda2-8ab8-46f6-bcc3-3e4d2a62ace1" d="M44.74,492.34h-4a0.4,0.4,0,0,0,0,.8h4A0.4,0.4,0,1,0,44.74,492.34Z"/></clipPath><clipPath id="1cbef9e5-c605-4421-8e2d-f72a3ff8d98f"><path class="ec0bcda2-8ab8-46f6-bcc3-3e4d2a62ace1" d="M44.74,495.14h-6a0.4,0.4,0,0,0,0,.8h6A0.4,0.4,0,1,0,44.74,495.14Z"/></clipPath><clipPath id="c66d6a46-d3f7-44d2-9ae2-4497f2bda39b"><path class="ec0bcda2-8ab8-46f6-bcc3-3e4d2a62ace1" d="M44.74,497.94h-7.6a0.4,0.4,0,0,0,0,.8h7.6A0.4,0.4,0,1,0,44.74,497.94Z"/></clipPath><clipPath id="841968eb-48d2-4b59-b293-143becee0ed3"><path class="ec0bcda2-8ab8-46f6-bcc3-3e4d2a62ace1" d="M44.74,500.74h-5.2a0.4,0.4,0,1,0,0,.8h5.2A0.4,0.4,0,1,0,44.74,500.74Z"/></clipPath><clipPath id="35e4a3fa-3b2f-45b6-9d7f-14392dc20566"><path class="ec0bcda2-8ab8-46f6-bcc3-3e4d2a62ace1" d="M44.74,503.54h-2.8a0.4,0.4,0,0,0,0,.8h2.8A0.4,0.4,0,1,0,44.74,503.54Z"/></clipPath><clipPath id="e59902bc-31da-4258-8875-71d70b783f97"><path class="ec0bcda2-8ab8-46f6-bcc3-3e4d2a62ace1" d="M43.29,540a0.36,0.36,0,0,1-.18,0,0.36,0.36,0,0,1-.16-0.44l3.8-10.44-4.59-1.31a0.36,0.36,0,0,1-.18-0.58l9.31-11.06a0.36,0.36,0,0,1,.63.34l-2.68,9.31,4.61,1.32a0.36,0.36,0,0,1,.18.59l-10.45,12.2A0.37,0.37,0,0,1,43.29,540Z"/></clipPath><clipPath id="59c2858f-0464-4a3c-ae50-cf2851e4b122"><path class="ec0bcda2-8ab8-46f6-bcc3-3e4d2a62ace1" d="M24.42,87.63H7.58a0.63,0.63,0,0,0-.63.63,0.64,0.64,0,0,0,.63.63H24.43a0.63,0.63,0,0,0,.63-0.63A0.65,0.65,0,0,0,24.42,87.63Z"/></clipPath><clipPath id="ab37c1da-b648-470e-940b-12724a6ce123"><rect class="a3d15524-41df-476c-9dec-e569c2a05930" x="-357.15" y="-11.03" width="1440" height="5174"/></clipPath><clipPath id="298007b7-d8b9-46ba-aa1b-7c997b215d4f"><path class="ec0bcda2-8ab8-46f6-bcc3-3e4d2a62ace1" d="M8.23,82.32l7.6-7.6,2.08,2.08-7.6,7.58-2.09,0Zm9.68-9.68L20,74.72l-1.17,1.17-2.08-2.08ZM7,82l0,3a0.65,0.65,0,0,0,.18.46,0.62,0.62,0,0,0,.45.18l3,0A0.62,0.62,0,0,0,11,85.49L21.31,75.18a0.65,0.65,0,0,0,0-.91l-3-3a0.65,0.65,0,0,0-.91,0l-2.06,2.08L7.14,81.6A0.69,0.69,0,0,0,7,82Z"/></clipPath><clipPath id="862e849d-9478-4b66-9ae8-3f640730dc10"><path class="ec0bcda2-8ab8-46f6-bcc3-3e4d2a62ace1" d="M40.26,78.69a6.43,6.43,0,1,1,6.43,6.43A6.44,6.44,0,0,1,40.26,78.69Zm11.4,5.86,4.26,4.26a0.63,0.63,0,0,0,.89-0.89l-4.26-4.26A7.66,7.66,0,1,0,51.66,84.55Z"/></clipPath><clipPath id="2f7a776b-087c-407b-a6a2-19f386249cb0"><path class="ec0bcda2-8ab8-46f6-bcc3-3e4d2a62ace1" d="M11.71,174.73a0.59,0.59,0,0,0,0,.83l2.79,2.81a0.58,0.58,0,0,0,.42.17,0.6,0.6,0,0,0,.42-0.17l8.5-8.45a0.59,0.59,0,1,0-.83-0.84l-3,3a6.75,6.75,0,1,0-5.74,11l0.49,0a6.76,6.76,0,0,0,6.68-5.72,6.86,6.86,0,0,0,.08-1,0.59,0.59,0,0,0-1.18,0,5.82,5.82,0,0,1-.07.86,5.58,5.58,0,0,1-11.07-.45,5.53,5.53,0,0,1,1.48-4.21,5.58,5.58,0,0,1,8.48.38l-4.24,4.22-2.38-2.39A0.59,0.59,0,0,0,11.71,174.73Z"/></clipPath><clipPath id="61f11e89-6fb2-48f5-bfe8-6d653ac9a212"><path class="ec0bcda2-8ab8-46f6-bcc3-3e4d2a62ace1" d="M50.21,175.49H45.79a0.51,0.51,0,1,0,0,1h4.42A0.51,0.51,0,1,0,50.21,175.49Z"/></clipPath><clipPath id="17a3f574-7395-44b2-8c5e-4a23fb0fa373"><path class="ec0bcda2-8ab8-46f6-bcc3-3e4d2a62ace1" d="M54.49,175.49H52.23a0.51,0.51,0,0,0,0,1h1.72a6,6,0,1,1-.95-3.78,0.51,0.51,0,0,0,.86-0.56A7,7,0,1,0,55,176,0.52,0.52,0,0,0,54.49,175.49Z"/></clipPath><clipPath id="1a5c1fe9-1e1c-48a5-8cd0-35a06837c022"><path class="ec0bcda2-8ab8-46f6-bcc3-3e4d2a62ace1" d="M82,174.88a0.51,0.51,0,0,0,0-.73,0.52,0.52,0,0,0-.73,0l-1.2,1.2-1.2-1.2a0.51,0.51,0,1,0-.73.73l1.2,1.2-1.2,1.2a0.51,0.51,0,1,0,.72.73l1.2-1.2,1.2,1.2a0.51,0.51,0,0,0,.72-0.73l-1.2-1.2Z"/></clipPath><clipPath id="73355231-cbdf-4abd-bceb-5f0174d71b3d"><path class="ec0bcda2-8ab8-46f6-bcc3-3e4d2a62ace1" d="M84.94,171.06a0.51,0.51,0,0,0-.72,0l-1.6,1.59a0.51,0.51,0,0,0,.73.73l1.22-1.22a6,6,0,1,1-3.34-2,0.51,0.51,0,1,0,.21-1A7,7,0,1,0,84.94,171.06Z"/></clipPath><clipPath id="39b5ad84-a387-409a-9e7b-026f6d75f944"><path class="86d190b3-d777-4bb7-98ef-0f522478a803" d="M11.71,206.73a0.59,0.59,0,0,0,0,.83l2.79,2.81a0.58,0.58,0,0,0,.42.17,0.6,0.6,0,0,0,.42-0.17l8.5-8.45a0.59,0.59,0,1,0-.83-0.84l-3,3a6.75,6.75,0,1,0-5.74,11l0.49,0a6.76,6.76,0,0,0,6.68-5.72,6.86,6.86,0,0,0,.08-1,0.59,0.59,0,0,0-1.18,0,5.82,5.82,0,0,1-.07.86,5.58,5.58,0,0,1-11.07-.45,5.53,5.53,0,0,1,1.48-4.21,5.58,5.58,0,0,1,8.48.38l-4.24,4.22-2.38-2.39A0.59,0.59,0,0,0,11.71,206.73Z"/></clipPath><clipPath id="9921726d-7a20-4436-aef0-f3c1acc59dc4"><path class="86d190b3-d777-4bb7-98ef-0f522478a803" d="M50.21,207.49H45.79a0.51,0.51,0,1,0,0,1h4.42A0.51,0.51,0,1,0,50.21,207.49Z"/></clipPath><clipPath id="f6c48404-e4fa-48f2-add1-b07c03d12147"><path class="86d190b3-d777-4bb7-98ef-0f522478a803" d="M54.49,207.49H52.23a0.51,0.51,0,0,0,0,1h1.72a6,6,0,1,1-.95-3.78,0.51,0.51,0,0,0,.86-0.56A7,7,0,1,0,55,208,0.52,0.52,0,0,0,54.49,207.49Z"/></clipPath><clipPath id="0dc9218b-bfd4-4b17-bd02-15f2636764cc"><path class="86d190b3-d777-4bb7-98ef-0f522478a803" d="M82,206.88a0.51,0.51,0,0,0,0-.73,0.52,0.52,0,0,0-.73,0l-1.2,1.2-1.2-1.2a0.51,0.51,0,1,0-.73.73l1.2,1.2-1.2,1.2a0.51,0.51,0,1,0,.72.73l1.2-1.2,1.2,1.2a0.51,0.51,0,0,0,.72-0.73l-1.2-1.2Z"/></clipPath><clipPath id="1a57471c-6504-4993-a573-b7e1e3515ce4"><path class="86d190b3-d777-4bb7-98ef-0f522478a803" d="M84.94,203.06a0.51,0.51,0,0,0-.72,0l-1.6,1.59a0.51,0.51,0,0,0,.73.73l1.22-1.22a6,6,0,1,1-3.34-2,0.51,0.51,0,1,0,.21-1A7,7,0,1,0,84.94,203.06Z"/></clipPath><clipPath id="e5bc50cf-16fc-4807-82c5-ea9ed971f9c6"><path class="ec0bcda2-8ab8-46f6-bcc3-3e4d2a62ace1" d="M74,82a2,2,0,1,0-2-2A2,2,0,0,0,74,82Zm6,0a2,2,0,1,0-2-2A2,2,0,0,0,80,82Zm6,0a2,2,0,1,0-2-2A2,2,0,0,0,86,82Z"/></clipPath><clipPath id="eca65731-c24e-4bf7-81d3-3cd5e870557d"><path class="a3d15524-41df-476c-9dec-e569c2a05930" d="M80,24a7.63,7.63,0,0,1-4.2-1.2l0.2-1.3a1.14,1.14,0,0,0-.3-0.8l-1-.9-1-1.6a1,1,0,0,0-.8-0.5H72a11.08,11.08,0,0,1-.2-1.9v-0.2l1.7-2.5,0.3-.3,0.9-.6a1.76,1.76,0,0,0,.8-1.5V9A7.07,7.07,0,0,1,78,7.94l0.1,0.5v0.1l-0.7,1.3a1,1,0,0,1-.1.3,0.78,0.78,0,0,0,.2.8,0.91,0.91,0,0,0,.7.3,1.08,1.08,0,0,0,.7-0.3l1.5-1.7h0l1-.4a1,1,0,0,0,.4-0.3l0.3-.6a13.36,13.36,0,0,1,1.8.7l-0.5,1.9h0l-1.8.2a1.06,1.06,0,0,0-.5.2L80,12h0l-1,.3a0.86,0.86,0,0,0-.6.7,0.91,0.91,0,0,0,.4.8,0.37,0.37,0,0,0,.3.1l3.3,0.2h0l0.1,0.2h0l-1.2.8h0l-1.8-.2-1.3-.5a0.75,0.75,0,0,0-.8.1l-1.3,1a0.55,0.55,0,0,0-.3.5l-0.2,1.4a0.75,0.75,0,0,0,.1.5l0.8,1.5a0.82,0.82,0,0,0,.6.4l1.5,0.1h0l0.3,0.9,0.3,1.6a0.66,0.66,0,0,0,.4.5l0.7,0.4a0.6,0.6,0,0,0,.4.1,1.42,1.42,0,0,0,.6-0.2l1.1-1.1a0.76,0.76,0,0,0,.2-0.5l0.1-1.9h0l0.9-1.3a0.76,0.76,0,0,0-.1-1l-0.3-.5h0l0.1-.5h0l1,0.6a0.91,0.91,0,0,0,1.1-.1l0.4-.4a1,1,0,0,0,.2-0.7,1,1,0,0,0-.5-0.6h0l0.5-.3h0l0.5,0.4a0.75,0.75,0,0,0,.8.1,0.77,0.77,0,0,0,.5-0.6l0.1-.3h0.2a6.6,6.6,0,0,1,.1,1.4A8.15,8.15,0,0,1,80,24Zm-4.8-2.6-0.2,1a7.87,7.87,0,0,1-2.8-3.9h0.5a0.2,0.2,0,0,1,.2.1l1,1.6a0.38,0.38,0,0,0,.2.2l1,0.9ZM74.6,9.64v1.2a1.23,1.23,0,0,1-.4.8l-0.9.6a1.21,1.21,0,0,0-.5.5L72,13.94A8.64,8.64,0,0,1,74.6,9.64ZM78.1,10l0.7-1.3a1.27,1.27,0,0,0,.1-0.6l-0.1-.4a7.25,7.25,0,0,1,2.4,0l-0.1.1-1,.4a1,1,0,0,0-.4.3l-1.5,1.7H78A0.31,0.31,0,0,0,78.1,10Zm6.1,0.7,0.4-1.6a8.11,8.11,0,0,1,3.3,4.6H87.7a0.74,0.74,0,0,0-.6.6l-0.1.3h0l-0.5-.4a0.94,0.94,0,0,0-.9-0.1l-0.6.4a0.68,0.68,0,0,0-.4.8,0.75,0.75,0,0,0,.5.7h0l-0.4.4h0l-1-.6a1.06,1.06,0,0,0-.8-0.1,0.77,0.77,0,0,0-.5.6l-0.1.5a0.84,0.84,0,0,0,.2.7L83,18h0l-0.9,1.3a0.6,0.6,0,0,0-.1.4l-0.1,1.9h0L81,22.74h0l-0.7-.4h0s-0.4-1.6-.4-1.7l-0.3-.9a0.75,0.75,0,0,0-.7-0.5l-1.5-.1h0l-0.8-1.5h0l0.2-1.4h0l1.3-1h0l1.3,0.5a0.2,0.2,0,0,1,.2.1L81.3,16a1.27,1.27,0,0,0,.6-0.1l1.2-.8a0.91,0.91,0,0,0,.3-1l-0.1-.2a0.75,0.75,0,0,0-.7-0.5l-3.3-.2h0l1-.3a0.53,0.53,0,0,0,.3-0.2l1.2-1.1h0l1.8-.2A1.41,1.41,0,0,0,84.2,10.74Zm2.2-1.2a9.18,9.18,0,1,0,2.6,6.4A8.83,8.83,0,0,0,86.4,9.54Z"/></clipPath><clipPath id="c337ad0c-a86f-4e4b-8f60-ba7aba3c9b40"><circle class="a3d15524-41df-476c-9dec-e569c2a05930" cx="7" cy="243.07" r="3"/></clipPath><clipPath id="e4f6e225-3744-4845-af7a-ea0b039b57e0"><circle class="a3d15524-41df-476c-9dec-e569c2a05930" cx="25" cy="243.07" r="3"/></clipPath><clipPath id="6994b19e-8252-4457-b9a9-aec0040ed75b"><path class="ec0bcda2-8ab8-46f6-bcc3-3e4d2a62ace1" d="M26,239l-5-1-4.38-3.42L11,234l-2.93,4-3.08.3v1.17a5,5,0,0,1,2-.43,4,4,0,0,1,3.87,5H21.17a4,4,0,0,1,3.87-5C25.29,239.07,26,239,26,239Zm-7.27-.24,1.31-.25-4-3.18-4.65-.51L12,240.07l0.95-.18-0.46-3.75,1-.12L14,239.69l3.55-.69,0.48-.94,0.89,0.45Z"/></clipPath><clipPath id="1b1da539-c77a-42df-9844-6c1ef5476ec7"><circle class="a3d15524-41df-476c-9dec-e569c2a05930" cx="39" cy="243.09" r="3"/></clipPath><clipPath id="df8e24c6-5c7d-4d11-8ced-692ce8340c01"><circle class="a3d15524-41df-476c-9dec-e569c2a05930" cx="57" cy="243.09" r="3"/></clipPath><clipPath id="a2c23edb-20ef-4d84-9822-647c1e799468"><path class="ec0bcda2-8ab8-46f6-bcc3-3e4d2a62ace1" d="M58,239l-5-1-4.38-3.42L43,234.05l-2.93,4-3,.28v1.26a4.83,4.83,0,0,1,2-.51,4,4,0,0,1,3.87,5H53.12a4,4,0,0,1,3.87-5C57.24,239.09,58,239,58,239Zm-7.27-.24,1.31-.25-4-3.18-4.65-.51L44,240.09l0.95-.18-0.46-3.75,1-.12,0.45,3.68,3.55-.69,0.48-.94,0.89,0.45Z"/></clipPath><clipPath id="8417fbea-4bd0-40d1-a8c7-7fee5fadc34a"><path class="ec0bcda2-8ab8-46f6-bcc3-3e4d2a62ace1" d="M261-2397a4,4,0,0,1,4-4H487a4,4,0,0,1,4,4"/></clipPath><clipPath id="1a7feb8e-c33c-4bf9-a7d8-19619c7fbf39"><path class="10486262-d274-4c34-8184-baa609b5b38f" d="M43.68,17.56a0.52,0.52,0,0,0-.39.18l-2.08,2.41V18.07a0.52,0.52,0,0,0-.52-0.52h-1a0.87,0.87,0,0,1-.87-0.87V9.14a0.87,0.87,0,0,1,.87-0.87H52.42a0.87,0.87,0,0,1,.87.87v7.55a0.87,0.87,0,0,1-.87.87H43.68Zm10.64-.87V9.14a1.9,1.9,0,0,0-1.9-1.9H39.64a1.9,1.9,0,0,0-1.9,1.9v7.55a1.9,1.9,0,0,0,1.9,1.9h0.54v2.28a0.76,0.76,0,0,0,1.34.5l2.4-2.78h8.51A1.89,1.89,0,0,0,54.32,16.69Z"/></clipPath><clipPath id="f52e863d-57ed-4a27-9647-324478bc31b6"><path class="10486262-d274-4c34-8184-baa609b5b38f" d="M54.53,24.47a0.75,0.75,0,0,0,.57.26,0.76,0.76,0,0,0,.27-0.05,0.75,0.75,0,0,0,.5-0.71V21.69H56.4a1.9,1.9,0,0,0,1.9-1.9V12.25a1.9,1.9,0,0,0-1.9-1.9,0.51,0.51,0,1,0,0,1,0.87,0.87,0,0,1,.87.87V19.8a0.87,0.87,0,0,1-.87.87H55.35a0.52,0.52,0,0,0-.52.52v2.07l-2.08-2.41a0.51,0.51,0,0,0-.39-0.18H44.63a0.52,0.52,0,0,0,0,1h7.49Z"/></clipPath><clipPath id="461c08fd-2e45-49b4-977b-0afda1e7aaa4"><circle class="42a2a386-7ecd-4e0a-a257-46e73ea03c9a" cx="46.03" cy="13.09" r="0.61"/></clipPath><clipPath id="856146fc-60e2-45cf-9505-c3ac3556dc67"><circle class="42a2a386-7ecd-4e0a-a257-46e73ea03c9a" cx="48.09" cy="13.09" r="0.61"/></clipPath><clipPath id="2cbf32d9-2b16-4ad9-a813-15f548a8815b"><circle class="42a2a386-7ecd-4e0a-a257-46e73ea03c9a" cx="43.98" cy="13.09" r="0.61"/></clipPath><clipPath id="21d2d9a9-19c5-47b3-a750-fc720468e114"><path class="ec0bcda2-8ab8-46f6-bcc3-3e4d2a62ace1" d="M23.76,44.32h-2.6l-2.79-2.81a0.73,0.73,0,0,0-.51-0.21H14.15a0.73,0.73,0,0,0-.51.21l-2.79,2.81H8.24a0.72,0.72,0,0,0-.72.72V54a0.72,0.72,0,0,0,.72.72H23.76A0.72,0.72,0,0,0,24.49,54V45A0.72,0.72,0,0,0,23.76,44.32Z"/></clipPath><clipPath id="0351ba84-c351-40a0-9074-23913e3ec229"><path class="ec0bcda2-8ab8-46f6-bcc3-3e4d2a62ace1" d="M48.55,46.72a0.54,0.54,0,0,0,0,.76,2.24,2.24,0,0,1,0,3.17L44,55.24a2.24,2.24,0,0,1-3.17,0l-0.69-.69a2.24,2.24,0,0,1,0-3.17l4.59-4.59A0.54,0.54,0,0,0,43.93,46l-4.59,4.59a3.31,3.31,0,0,0,0,4.69L40,56a3.32,3.32,0,0,0,4.69,0l4.59-4.59a3.32,3.32,0,0,0,0-4.69A0.54,0.54,0,0,0,48.55,46.72Z"/></clipPath><clipPath id="3f290677-a5f3-4dd4-8b3a-84cf0373f3ad"><path class="ec0bcda2-8ab8-46f6-bcc3-3e4d2a62ace1" d="M56.66,40.69L56,40a3.32,3.32,0,0,0-4.69,0l-4.59,4.59a3.32,3.32,0,0,0,0,4.69,0.54,0.54,0,0,0,.76-0.76,2.24,2.24,0,0,1,0-3.17L52,40.76a2.24,2.24,0,0,1,3.17,0l0.69,0.69a2.24,2.24,0,0,1,0,3.17l-4.59,4.59a0.54,0.54,0,0,0,.38.92A0.53,0.53,0,0,0,52.07,50l4.59-4.59A3.32,3.32,0,0,0,56.66,40.69Z"/></clipPath><clipPath id="d78dc5bf-c53e-4d57-80f4-093d1172b7c9"><path class="ec0bcda2-8ab8-46f6-bcc3-3e4d2a62ace1" d="M80,46.75a1.64,1.64,0,1,1,1.64-1.64A1.64,1.64,0,0,1,80,46.75ZM67.36,32.47H92.64V57.75H67.36V32.47Z"/></clipPath><clipPath id="4cba038f-dbdc-45ca-a3fc-60da23a42922"><path class="ec0bcda2-8ab8-46f6-bcc3-3e4d2a62ace1" d="M84.38,40.73a6.28,6.28,0,0,0-8.88,0,7.15,7.15,0,0,0-.59,8.82l5,7.26,5-7.25A7.15,7.15,0,0,0,84.38,40.73Z"/></clipPath><clipPath id="b15c5a88-b6c4-4b8d-a485-3391734c5be7"><path class="ec0bcda2-8ab8-46f6-bcc3-3e4d2a62ace1" d="M48,428.49a3.5,3.5,0,1,0,3.5,3.5A3.51,3.51,0,0,0,48,428.49Z"/></clipPath><clipPath id="1375c088-87b5-4a65-96cd-580ffe1ffbe5"><path class="ec0bcda2-8ab8-46f6-bcc3-3e4d2a62ace1" d="M48,439.36A7.37,7.37,0,1,1,55.37,432,7.38,7.38,0,0,1,48,439.36Zm11.33-8H56.69a8.73,8.73,0,0,0-8-8v-2.64a0.67,0.67,0,1,0-1.34,0v2.64a8.73,8.73,0,0,0-8,8H36.67a0.67,0.67,0,0,0,0,1.34h2.64a8.73,8.73,0,0,0,8,8v2.64a0.67,0.67,0,0,0,1.34,0v-2.64a8.73,8.73,0,0,0,8-8h2.64A0.67,0.67,0,1,0,59.33,431.32Z"/></clipPath><clipPath id="a911015e-fba7-4a24-aca6-420ee855f1bc"><path class="ec0bcda2-8ab8-46f6-bcc3-3e4d2a62ace1" d="M56.25,391.25a1.38,1.38,0,1,1,1.38-1.37A1.38,1.38,0,0,1,56.25,391.25Zm0,1a2.38,2.38,0,1,0-2.37-2.37A2.37,2.37,0,0,0,56.25,392.25ZM33.87,367.5H78.62v44.75H33.87V367.5Z"/></clipPath><clipPath id="32b4ea59-4299-4895-9cbf-de3e684ff43b"><circle class="a3d15524-41df-476c-9dec-e569c2a05930" cx="56.25" cy="389.88" r="1.88"/></clipPath><clipPath id="2051121c-78f1-460f-88b5-24fe6ab12f41"><path class="ec0bcda2-8ab8-46f6-bcc3-3e4d2a62ace1" d="M39.75,411.5a1.38,1.38,0,1,1,1.38-1.37A1.37,1.37,0,0,1,39.75,411.5Zm0,1a2.38,2.38,0,1,0-2.37-2.37A2.38,2.38,0,0,0,39.75,412.5ZM17.37,387.75H62.12V432.5H17.37V387.75Z"/></clipPath><clipPath id="55bcd160-68a8-4fcc-bdc3-b7be1577bbe6"><circle class="a3d15524-41df-476c-9dec-e569c2a05930" cx="39.75" cy="410.13" r="1.88"/></clipPath><clipPath id="037d24dc-b89c-4c50-9bc0-fda50c325b5d"><rect class="a3d15524-41df-476c-9dec-e569c2a05930" x="36.52" y="452.5" width="23" height="23"/></clipPath><clipPath id="fa53e9f7-2456-47f2-8362-e5f9aa0cf18f"><path class="ec0bcda2-8ab8-46f6-bcc3-3e4d2a62ace1" d="M44.65,469.88h6.4v-1.26h-6.4v1.26Zm12.05-2.21-1.42-.58,0.17-.41,1.42,0.58a9.57,9.57,0,0,0,.62-3H56v-0.89h1.52a9.56,9.56,0,0,0-.66-3.1l-1.41.6-0.17-.41,1.41-.6a9.71,9.71,0,0,0-5-4.9l-0.58,1.42-0.41-.17,0.58-1.42a9.56,9.56,0,0,0-3-.62v1.52H47.41V454.2a9.57,9.57,0,0,0-3.1.66l0.6,1.41-0.41.17L43.91,455a9.67,9.67,0,0,0-2.55,1.68l1.07,1.07-0.63.63-1.07-1.07A9.67,9.67,0,0,0,39,460l1.42,0.58-0.17.41-1.42-.58a9.56,9.56,0,0,0-.62,3h1.52v0.89H38.22a9.57,9.57,0,0,0,.66,3.1l1.41-.6,0.17,0.41-1.41.6a9.67,9.67,0,0,0,1.68,2.55l1.07-1.07,0.63,0.63L41.36,471a9.59,9.59,0,0,0,13,0l-1.07-1.07,0.63-.63L55,470.33A9.62,9.62,0,0,0,56.71,467.68Zm2.48-3.84A11.33,11.33,0,1,1,47.86,452.5,11.35,11.35,0,0,1,59.19,463.83Zm-10.44-1.48L54,457.68,49.36,463A1.74,1.74,0,1,1,48.75,462.35Z"/></clipPath><clipPath id="7eb29fc3-1b31-4349-82ea-0849b0dd5778"><path class="ec0bcda2-8ab8-46f6-bcc3-3e4d2a62ace1" d="M10.65,151.55a0,0,0,0,1,0,0h-3a0,0,0,0,1,0,0v-8.73a0,0,0,0,1,0,0h3a0,0,0,0,1,0,0v8.73h0Zm13.74-9.92a2.56,2.56,0,0,0-1.65-.62h-4v-2.9a3,3,0,0,0-1.06-2.61,3.32,3.32,0,0,0-2.71-.33,0.46,0.46,0,0,0-.32.44v3.24a3.2,3.2,0,0,1-1.5,2.67,5.93,5.93,0,0,1-1.59.79l-0.11,0a0.94,0.94,0,0,0-.81-0.47h-3a1,1,0,0,0-.94.94v8.73a1,1,0,0,0,.94.94h3a1,1,0,0,0,.73-0.34,2.6,2.6,0,0,0,1.89.83h7.94a2.78,2.78,0,0,0,3.07-2.52l1-6.38A2.69,2.69,0,0,0,24.39,141.63Z"/></clipPath><clipPath id="091fa2dd-8549-4370-9ddc-b97c2f52125c"><path class="ec0bcda2-8ab8-46f6-bcc3-3e4d2a62ace1" d="M42.93,141.94a0.94,0.94,0,0,0-.34-0.06h-3a1,1,0,0,0-.95.95v8.75a1,1,0,0,0,.95.95h3a0.94,0.94,0,0,0,.33-0.06V141.94Zm1,0.23a5.87,5.87,0,0,0,1.18-.65,3.21,3.21,0,0,0,1.51-2.68v-3.25a0.46,0.46,0,0,1,.32-0.44,3.33,3.33,0,0,1,2.72.33,3,3,0,0,1,1.06,2.62V141h4a2.56,2.56,0,0,1,1.66.62,2.7,2.7,0,0,1,.89,2.45l-1,6.39A2.79,2.79,0,0,1,53.18,153h-8a2.57,2.57,0,0,1-1.29-.35V142.16Z"/></clipPath><clipPath id="13adf830-f586-4889-b156-ac6dbfdc57ad"><path class="ec0bcda2-8ab8-46f6-bcc3-3e4d2a62ace1" d="M43,116.54H40.11A1.11,1.11,0,0,1,39,115.43v-9.68a1.11,1.11,0,0,1,1.11-1.11H55.89A1.11,1.11,0,0,1,57,105.75v9.68a1.11,1.11,0,0,1-1.11,1.11H45.81L43,119.36v-2.82Z"/></clipPath><clipPath id="b712948f-7e71-4e51-8784-e488afb34274"><path class="ec0bcda2-8ab8-46f6-bcc3-3e4d2a62ace1" d="M75.08,116.54H72.2a1.11,1.11,0,0,1-1.11-1.11v-9.68a1.11,1.11,0,0,1,1.11-1.11H88a1.11,1.11,0,0,1,1.11,1.11v9.68A1.11,1.11,0,0,1,88,116.54H77.9l-2.82,2.82v-2.82Z"/></clipPath><clipPath id="cd4c4d92-09e9-4dd0-bc20-232957398e45"><path class="ec0bcda2-8ab8-46f6-bcc3-3e4d2a62ace1" d="M61.73,565.29a40.14,40.14,0,0,0-2.94-3c-0.9-.88-1-1.39-0.23-2.4s1.63-2.17,2.43-3.27a11.91,11.91,0,0,0,1.89-3.29,0.83,0.83,0,0,0-.77-1.27,2.43,2.43,0,0,0-.42,0H56.93a1.06,1.06,0,0,0-1.12.77c-0.28.7-.57,1.41-0.9,2.09a17.13,17.13,0,0,1-2.78,4.29,1,1,0,0,1-1,.49,1.61,1.61,0,0,1-.7-1.41v-5.51a1.18,1.18,0,0,0-1.05-1.29H44.46a1.57,1.57,0,0,0-1.34.67c-0.2.24-.26,0.39,0.15,0.47a1.65,1.65,0,0,1,1.4,1.51,17,17,0,0,1,.07,4,3.74,3.74,0,0,1-.25,1.13,0.66,0.66,0,0,1-1.13.33,4.58,4.58,0,0,1-1.09-1.21,26.71,26.71,0,0,1-2.9-5.4,1.25,1.25,0,0,0-1.19-.89c-1.42,0-2.85,0-4.27,0-0.86,0-1.11.43-.76,1.22a53.43,53.43,0,0,0,5.53,9.91,13.73,13.73,0,0,0,4.2,4,11.12,11.12,0,0,0,6.25,1.35,1.16,1.16,0,0,0,1.39-1.35,4.62,4.62,0,0,1,.46-2.05,0.91,0.91,0,0,1,1.45-.35,4.18,4.18,0,0,1,.79.7c0.58,0.64,1.14,1.3,1.75,1.92a3.37,3.37,0,0,0,2.78,1.13h4.36a1.09,1.09,0,0,0,.66-1.7A8.27,8.27,0,0,0,61.73,565.29Z"/></clipPath><clipPath id="73567bcc-0564-413b-b073-cc132d0d530e"><rect class="a3d15524-41df-476c-9dec-e569c2a05930" x="-552" y="-135.52" width="1920" height="1080"/></clipPath><clipPath id="55877144-74f0-4fdc-a163-7222c47f5dae"><path class="ec0bcda2-8ab8-46f6-bcc3-3e4d2a62ace1" d="M17.89,572H13.38V560h-3v-4.14h3v-2.44c0-3.38.92-5.43,4.9-5.43H21.6v4.14H19.53c-1.55,0-1.63.58-1.63,1.66v2.07h3.73L21.19,560H17.9v12Z"/></clipPath><clipPath id="7f365286-9304-4c02-bf94-0319bb8b5ae4"><rect class="a3d15524-41df-476c-9dec-e569c2a05930" x="-526.63" y="-136" width="1920" height="1080"/></clipPath><clipPath id="528f5c56-dd0d-42ec-b58b-33bed480b4c3"><path class="ec0bcda2-8ab8-46f6-bcc3-3e4d2a62ace1" d="M81.2,562.5h5.86a7.45,7.45,0,1,1-2-8,0.81,0.81,0,0,0,1.1,0l2.15-2a0.8,0.8,0,0,0,0-1.17,12,12,0,0,0-8-3.29A12,12,0,1,0,92,560.7c0-.08,0-2.75,0-2.75H81.2a0.8,0.8,0,0,0-.8.8v2.95A0.8,0.8,0,0,0,81.2,562.5Z"/></clipPath><clipPath id="35f01561-cab2-4f62-9f81-10f4620d3073"><rect class="a3d15524-41df-476c-9dec-e569c2a05930" x="-574.96" y="-135.98" width="1920" height="1080"/></clipPath></defs><title>icons-18-01</title><g class="8777c299-076d-43e8-b73c-87f1612eddc2"><rect class="652bb332-f80f-4a5f-9793-90b0d75f9cfe" x="-1.25" y="267.62" width="17" height="17"/></g><g class="e0e924c4-59c4-413a-a27d-87d8ac6f64eb"><rect class="652bb332-f80f-4a5f-9793-90b0d75f9cfe" x="16.25" y="267.94" width="17" height="17"/></g><g class="de924aab-bd6b-44f5-9f40-c9042f5cebee"><path class="12bdbf83-d01b-432c-8730-2d247ba1c300" d="M19,264.94H17.25v-1h2l0.48,0.14,1.18,2.54,0.92-.17,2.61,1.25,3.24,4.84-3-1.45-1.54.31,1.06,2.17L23.3,274l-1.16-2.39L20.06,274v1.9H12.23l-0.31-.85-1.77.35-0.5-.87,1.93-.44-0.33-.91-0.66-.68-5.34-3.74,0.57-.82L8,269.48l-0.24-.35L6.67,267.7v-1.42l6,1.73s6.59-1.16,6.59-1.08l0.67-.12Z"/></g><g class="a5cb7a02-9f84-4179-bc8a-2d49b5f4cd30"><rect class="42a2a386-7ecd-4e0a-a257-46e73ea03c9a" x="30.75" y="267.68" width="17" height="17"/></g><g class="255901fd-f166-4536-b3ec-3b72e577ac44"><rect class="42a2a386-7ecd-4e0a-a257-46e73ea03c9a" x="48.25" y="268" width="17" height="17"/></g><g class="98e9c847-3e02-4a9d-a628-83ed9a248c0a"><rect class="42a2a386-7ecd-4e0a-a257-46e73ea03c9a" x="32.25" y="259" width="32.44" height="21.96"/></g><g class="7d47379e-3505-4994-afc5-71f8e9d1ae13"><rect class="652bb332-f80f-4a5f-9793-90b0d75f9cfe" x="14.82" y="298.73" width="17.15" height="17.15"/></g><g class="2be392f0-42fd-4a56-a309-0f5362b1f2a5"><rect class="652bb332-f80f-4a5f-9793-90b0d75f9cfe" x="-0.02" y="298.73" width="17" height="17"/></g><g class="a97ef5f2-f40a-4bee-8cc9-090f42a8f8d9"><polygon class="12bdbf83-d01b-432c-8730-2d247ba1c300" points="22.38 301.03 25.34 301.4 25.15 302.51 22.66 302.23 23.17 303.99 22.21 304.25 21.75 302.56 19.46 304.16 18.93 306.38 13.72 307.71 13.28 307.01 11.65 307.3 11.48 306.31 12.69 306.1 12.14 305.24 10.69 303.87 6.1 302.16 6.44 301.22 9.9 302.51 10.14 302.33 9.13 301.4 6.61 300 12.14 300.64 14.26 301.71 15.79 301.71 16.44 300.64 19.7 298.75 20.77 298.87 20.55 298.05 19.48 298.05 19.48 297.05 21.48 297.05 21.48 297.66 22.38 301.03"/></g><g class="f3a291bb-4371-4967-a06f-2f3cc345a127"><rect class="42a2a386-7ecd-4e0a-a257-46e73ea03c9a" x="46.85" y="298.76" width="17.15" height="17.15"/></g><g class="a9c22d90-d02a-4a7f-a66c-1114f0578e55"><rect class="42a2a386-7ecd-4e0a-a257-46e73ea03c9a" x="32" y="298.76" width="17" height="17"/></g><g class="df9137ba-233b-4272-8bb2-eff8a2785e76"><rect class="42a2a386-7ecd-4e0a-a257-46e73ea03c9a" x="33.12" y="292.08" width="29.25" height="20.65"/></g><g class="2277db35-c54d-41de-87c8-d33405b72398"><path class="12bdbf83-d01b-432c-8730-2d247ba1c300" d="M25.49,340.86H27.6l0.4-.4v-1.32l-0.39-.39H27.06l-0.17-2.41-0.83-1.18-4.57-.56-2.35-3-1.67-.82H8.13l-1.91,1.94-0.3,2.94-0.19-1.86L5.56,332H4.4l-0.4.4v4.25l0.4,0.4H5.24l0.11,1.67H4.74v2.11H7s0-.08,0-0.12a3,3,0,0,1,6,0s0,0.08,0,.11h6s0-.08,0-0.11a3,3,0,0,1,6,0s0,0.09,0,.14Z"/></g><g class="5a2132ba-fb84-477a-9b4e-d79868c5d3ac"><rect class="652bb332-f80f-4a5f-9793-90b0d75f9cfe" x="2.5" y="333.25" width="15" height="15"/></g><g class="a076362e-c65d-4523-91ca-8e639ee85227"><rect class="652bb332-f80f-4a5f-9793-90b0d75f9cfe" x="14.5" y="333.25" width="15" height="15"/></g><g class="12109cbb-ae95-41d4-8185-5aa57e14143b"><rect class="652bb332-f80f-4a5f-9793-90b0d75f9cfe" x="3" y="323.75" width="19" height="11"/></g><g class="c8be682e-98be-45fd-a47d-ec70cf462617"><rect class="42a2a386-7ecd-4e0a-a257-46e73ea03c9a" x="31" y="325.75" width="34" height="20.14"/></g><g class="e569f5cb-cd3b-40b2-b2ba-d52050e98f1f"><rect class="42a2a386-7ecd-4e0a-a257-46e73ea03c9a" x="34.5" y="333.25" width="15" height="15"/></g><g class="6194d91e-c633-4365-a40b-e99c8722b7ce"><rect class="42a2a386-7ecd-4e0a-a257-46e73ea03c9a" x="46.5" y="333.25" width="15" height="15"/></g><g class="9fc8238b-f57f-4746-9ee0-d10a081f4c0b"><rect class="42a2a386-7ecd-4e0a-a257-46e73ea03c9a" x="35" y="323.75" width="19" height="11"/></g><g class="b7550544-9c51-4e27-aeae-fde83ed9d66f"><rect class="42a2a386-7ecd-4e0a-a257-46e73ea03c9a" x="31.05" y="357.03" width="33.9" height="21.93"/></g><g class="04c51ac1-b573-40aa-bc93-10e87f37aa36"><path class="c2cbef30-adb6-48c5-bba6-6369b5e793b3" d="M14,373.09l-0.29.17h-8L5.45,373l1.12-1.11h8.61Zm13.3-1.24-0.64.65-0.66.69H22.26L21,371.91h2.25l2.11-2.14-0.62-1.5-4.79-2.54L18,362.81,16.52,362l-1,.3-0.48,2.43,1.66,2.48-1.89,1.12H13.45l0.11-.6L11.81,366H7l-1.75,1.72,0.13,0.65-1.34,1.72,1.22,1.77-0.94,1v0.26L5.07,374h9.1l2-2,3.81,0,1.28,1.28H16.17L16.73,374h9.83l1.39-1.47Z"/></g><g class="a231eb34-0088-437d-8eab-0165d25c7cb0"><rect class="42a2a386-7ecd-4e0a-a257-46e73ea03c9a" x="42.14" y="487.74" width="16.4" height="16.4"/></g><g class="4954dd8a-0d99-474d-b9c5-5d3fc2d03281"><rect class="42a2a386-7ecd-4e0a-a257-46e73ea03c9a" x="40.54" y="478.94" width="23.77" height="34"/></g><g class="cd9d9dca-7410-437e-a0ef-cf84c6d8d790"><rect class="42a2a386-7ecd-4e0a-a257-46e73ea03c9a" x="37.34" y="484.54" width="12.8" height="10.8"/></g><g class="4e8b7814-767f-430e-80ac-0e106bb41484"><rect class="42a2a386-7ecd-4e0a-a257-46e73ea03c9a" x="35.34" y="487.34" width="14.8" height="10.8"/></g><g class="8fabae15-d5f7-4f0e-a36c-05ecdf92d4a1"><rect class="42a2a386-7ecd-4e0a-a257-46e73ea03c9a" x="33.34" y="490.14" width="16.8" height="10.8"/></g><g class="1e65d179-4d81-4604-9c7d-4e2ee36cff8f"><rect class="42a2a386-7ecd-4e0a-a257-46e73ea03c9a" x="31.74" y="492.94" width="18.4" height="10.8"/></g><g class="53ae3d4d-a61e-4dc1-b399-39302093c75a"><rect class="42a2a386-7ecd-4e0a-a257-46e73ea03c9a" x="34.14" y="495.74" width="16" height="10.8"/></g><g class="ef3f5a45-d370-4a91-99f6-3ea04bcc1f34"><rect class="42a2a386-7ecd-4e0a-a257-46e73ea03c9a" x="36.54" y="498.54" width="13.6" height="10.8"/></g><g class="cb71e335-fcc6-4f12-b8d1-10b78a1977b0"><path class="0da9da62-85ba-4b56-a248-49a80fcde14c" d="M43.29,540a0.36,0.36,0,0,1-.18,0,0.36,0.36,0,0,1-.16-0.44l3.8-10.44-4.59-1.31a0.36,0.36,0,0,1-.18-0.58l9.31-11.06a0.36,0.36,0,0,1,.63.34l-2.68,9.31,4.61,1.32a0.36,0.36,0,0,1,.18.59l-10.45,12.2A0.37,0.37,0,0,1,43.29,540Z"/></g><g class="1c4170ec-5430-4678-918b-54d33d728c5e"><g class="2c9515bf-e1bd-4865-9ec5-cdefe973bfea"><rect class="0323eef2-a00f-4a83-9bf9-71f6e6f3f3e9" x="1.95" y="82.63" width="28.11" height="11.26"/></g></g><g class="471e5865-e55b-4c35-b17b-839e90c52d17"><g class="2c9515bf-e1bd-4865-9ec5-cdefe973bfea"><rect class="0323eef2-a00f-4a83-9bf9-71f6e6f3f3e9" x="1.94" y="66.11" width="24.55" height="24.58"/></g></g><g class="b9a67945-3780-492e-8bc9-bc6f632ba305"><rect class="0323eef2-a00f-4a83-9bf9-71f6e6f3f3e9" x="34" y="66" width="28" height="28"/></g><g class="50df6fa0-9a88-45bb-98b3-198591058941"><rect class="7a58602d-f38f-41be-a08b-2a7258a8cc5b" x="3" y="163.92" width="26" height="24.17"/></g><g class="3f51932d-81df-4acf-aa45-ed8c30eda2c9"><rect class="7a58602d-f38f-41be-a08b-2a7258a8cc5b" x="40.28" y="170.49" width="15.45" height="11.03"/></g><g class="cd34bd6c-ef2c-475c-a89b-2012e6fddddf"><rect class="7a58602d-f38f-41be-a08b-2a7258a8cc5b" x="36" y="164" width="24" height="24"/></g><g class="1458fc69-6c1b-4fb5-b1d8-67ce7efc46a6"><rect class="7a58602d-f38f-41be-a08b-2a7258a8cc5b" x="73.01" y="169.01" width="14.15" height="14.15"/></g><g class="fbc40c30-29d0-45c6-ba5e-157448a49d35"><rect class="7a58602d-f38f-41be-a08b-2a7258a8cc5b" x="68.01" y="164.01" width="23.98" height="23.98"/></g><path class="02252fa7-990c-4291-9982-118dbfd7dfdc" d="M11.71,206.73a0.59,0.59,0,0,0,0,.83l2.79,2.81a0.58,0.58,0,0,0,.42.17,0.6,0.6,0,0,0,.42-0.17l8.5-8.45a0.59,0.59,0,1,0-.83-0.84l-3,3a6.75,6.75,0,1,0-5.74,11l0.49,0a6.76,6.76,0,0,0,6.68-5.72,6.86,6.86,0,0,0,.08-1,0.59,0.59,0,0,0-1.18,0,5.82,5.82,0,0,1-.07.86,5.58,5.58,0,0,1-11.07-.45,5.53,5.53,0,0,1,1.48-4.21,5.58,5.58,0,0,1,8.48.38l-4.24,4.22-2.38-2.39A0.59,0.59,0,0,0,11.71,206.73Z"/><g class="b9be18c0-8b25-40c1-9bfa-ac9da84841a9"><rect class="630b3244-5f48-466d-b27d-204ce1d6123e" x="3" y="195.92" width="26" height="24.17"/></g><path class="02252fa7-990c-4291-9982-118dbfd7dfdc" d="M50.21,207.49H45.79a0.51,0.51,0,1,0,0,1h4.42A0.51,0.51,0,1,0,50.21,207.49Z"/><g class="f15bdf5f-b651-451f-af67-0a9bc6bcb1ff"><rect class="630b3244-5f48-466d-b27d-204ce1d6123e" x="40.28" y="202.49" width="15.45" height="11.03"/></g><path class="02252fa7-990c-4291-9982-118dbfd7dfdc" d="M54.49,207.49H52.23a0.51,0.51,0,0,0,0,1h1.72a6,6,0,1,1-.95-3.78,0.51,0.51,0,0,0,.86-0.56A7,7,0,1,0,55,208,0.52,0.52,0,0,0,54.49,207.49Z"/><g class="913cbe23-66e2-4ed6-a663-3af58bf2384c"><rect class="630b3244-5f48-466d-b27d-204ce1d6123e" x="36" y="196" width="24" height="24"/></g><path class="02252fa7-990c-4291-9982-118dbfd7dfdc" d="M82,206.88a0.51,0.51,0,0,0,0-.73,0.52,0.52,0,0,0-.73,0l-1.2,1.2-1.2-1.2a0.51,0.51,0,1,0-.73.73l1.2,1.2-1.2,1.2a0.51,0.51,0,1,0,.72.73l1.2-1.2,1.2,1.2a0.51,0.51,0,0,0,.72-0.73l-1.2-1.2Z"/><g class="2debaca0-d98d-42ec-9b22-d03b7268bcf6"><rect class="630b3244-5f48-466d-b27d-204ce1d6123e" x="73.01" y="201.01" width="14.15" height="14.15"/></g><path class="02252fa7-990c-4291-9982-118dbfd7dfdc" d="M84.94,203.06a0.51,0.51,0,0,0-.72,0l-1.6,1.59a0.51,0.51,0,0,0,.73.73l1.22-1.22a6,6,0,1,1-3.34-2,0.51,0.51,0,1,0,.21-1A7,7,0,1,0,84.94,203.06Z"/><g class="993aa87f-3b96-43eb-9253-9579f2433645"><rect class="630b3244-5f48-466d-b27d-204ce1d6123e" x="68.01" y="196.01" width="23.98" height="23.98"/></g><g class="0dad4eac-f0b8-449c-8ecd-1d269205f78f"><rect class="652bb332-f80f-4a5f-9793-90b0d75f9cfe" x="67" y="73" width="26" height="14"/></g><path id="75821a70-b978-4705-b125-a05b12908260" data-name="SVGID" class="42a2a386-7ecd-4e0a-a257-46e73ea03c9a" d="M80,24a7.63,7.63,0,0,1-4.2-1.2l0.2-1.3a1.14,1.14,0,0,0-.3-0.8l-1-.9-1-1.6a1,1,0,0,0-.8-0.5H72a11.08,11.08,0,0,1-.2-1.9v-0.2l1.7-2.5,0.3-.3,0.9-.6a1.76,1.76,0,0,0,.8-1.5V9A7.07,7.07,0,0,1,78,7.94l0.1,0.5v0.1l-0.7,1.3a1,1,0,0,1-.1.3,0.78,0.78,0,0,0,.2.8,0.91,0.91,0,0,0,.7.3,1.08,1.08,0,0,0,.7-0.3l1.5-1.7h0l1-.4a1,1,0,0,0,.4-0.3l0.3-.6a13.36,13.36,0,0,1,1.8.7l-0.5,1.9h0l-1.8.2a1.06,1.06,0,0,0-.5.2L80,12h0l-1,.3a0.86,0.86,0,0,0-.6.7,0.91,0.91,0,0,0,.4.8,0.37,0.37,0,0,0,.3.1l3.3,0.2h0l0.1,0.2h0l-1.2.8h0l-1.8-.2-1.3-.5a0.75,0.75,0,0,0-.8.1l-1.3,1a0.55,0.55,0,0,0-.3.5l-0.2,1.4a0.75,0.75,0,0,0,.1.5l0.8,1.5a0.82,0.82,0,0,0,.6.4l1.5,0.1h0l0.3,0.9,0.3,1.6a0.66,0.66,0,0,0,.4.5l0.7,0.4a0.6,0.6,0,0,0,.4.1,1.42,1.42,0,0,0,.6-0.2l1.1-1.1a0.76,0.76,0,0,0,.2-0.5l0.1-1.9h0l0.9-1.3a0.76,0.76,0,0,0-.1-1l-0.3-.5h0l0.1-.5h0l1,0.6a0.91,0.91,0,0,0,1.1-.1l0.4-.4a1,1,0,0,0,.2-0.7,1,1,0,0,0-.5-0.6h0l0.5-.3h0l0.5,0.4a0.75,0.75,0,0,0,.8.1,0.77,0.77,0,0,0,.5-0.6l0.1-.3h0.2a6.6,6.6,0,0,1,.1,1.4A8.15,8.15,0,0,1,80,24Zm-4.8-2.6-0.2,1a7.87,7.87,0,0,1-2.8-3.9h0.5a0.2,0.2,0,0,1,.2.1l1,1.6a0.38,0.38,0,0,0,.2.2l1,0.9ZM74.6,9.64v1.2a1.23,1.23,0,0,1-.4.8l-0.9.6a1.21,1.21,0,0,0-.5.5L72,13.94A8.64,8.64,0,0,1,74.6,9.64ZM78.1,10l0.7-1.3a1.27,1.27,0,0,0,.1-0.6l-0.1-.4a7.25,7.25,0,0,1,2.4,0l-0.1.1-1,.4a1,1,0,0,0-.4.3l-1.5,1.7H78A0.31,0.31,0,0,0,78.1,10Zm6.1,0.7,0.4-1.6a8.11,8.11,0,0,1,3.3,4.6H87.7a0.74,0.74,0,0,0-.6.6l-0.1.3h0l-0.5-.4a0.94,0.94,0,0,0-.9-0.1l-0.6.4a0.68,0.68,0,0,0-.4.8,0.75,0.75,0,0,0,.5.7h0l-0.4.4h0l-1-.6a1.06,1.06,0,0,0-.8-0.1,0.77,0.77,0,0,0-.5.6l-0.1.5a0.84,0.84,0,0,0,.2.7L83,18h0l-0.9,1.3a0.6,0.6,0,0,0-.1.4l-0.1,1.9h0L81,22.74h0l-0.7-.4h0s-0.4-1.6-.4-1.7l-0.3-.9a0.75,0.75,0,0,0-.7-0.5l-1.5-.1h0l-0.8-1.5h0l0.2-1.4h0l1.3-1h0l1.3,0.5a0.2,0.2,0,0,1,.2.1L81.3,16a1.27,1.27,0,0,0,.6-0.1l1.2-.8a0.91,0.91,0,0,0,.3-1l-0.1-.2a0.75,0.75,0,0,0-.7-0.5l-3.3-.2h0l1-.3a0.53,0.53,0,0,0,.3-0.2l1.2-1.1h0l1.8-.2A1.41,1.41,0,0,0,84.2,10.74Zm2.2-1.2a9.18,9.18,0,1,0,2.6,6.4A8.83,8.83,0,0,0,86.4,9.54Z"/><g class="f8fa9284-7661-4833-b3a3-27ebbf4bc7a9"><rect class="42a2a386-7ecd-4e0a-a257-46e73ea03c9a" x="66" y="1.84" width="28" height="28"/></g><g class="90bf348a-e3b2-423d-8213-905c36f85b85"><circle class="12bdbf83-d01b-432c-8730-2d247ba1c300" cx="7" cy="243.07" r="3"/></g><g class="d7d24444-c875-46b6-a509-099a7dd25461"><circle class="12bdbf83-d01b-432c-8730-2d247ba1c300" cx="25" cy="243.07" r="3"/></g><g class="897e2db8-4f43-4b86-bd17-dcae9b008ce2"><path class="12bdbf83-d01b-432c-8730-2d247ba1c300" d="M26,239l-5-1-4.38-3.42L11,234l-2.93,4-3.08.3v1.17a5,5,0,0,1,2-.43,4,4,0,0,1,3.87,5H21.17a4,4,0,0,1,3.87-5C25.29,239.07,26,239,26,239Zm-7.27-.24,1.31-.25-4-3.18-4.65-.51L12,240.07l0.95-.18-0.46-3.75,1-.12L14,239.69l3.55-.69,0.48-.94,0.89,0.45Z"/></g><g class="db72825b-7d00-40e9-a179-2cbe8dbd0279"><circle class="0da9da62-85ba-4b56-a248-49a80fcde14c" cx="39" cy="243.09" r="3"/></g><g class="3d30bf8f-af37-4a08-89d6-b4863cfd84d8"><circle class="0da9da62-85ba-4b56-a248-49a80fcde14c" cx="57" cy="243.09" r="3"/></g><g class="6a2f7d42-5139-4413-a9c8-64f2c2380ada"><rect class="42a2a386-7ecd-4e0a-a257-46e73ea03c9a" x="32" y="229.05" width="30.99" height="20.04"/></g><path class="42a2a386-7ecd-4e0a-a257-46e73ea03c9a" d="M16,105a3.61,3.61,0,1,0-3.45-3A3.49,3.49,0,0,0,16,105Zm0-6a2.5,2.5,0,1,1-2.5,2.5A2.5,2.5,0,0,1,16,99Z"/><circle class="42a2a386-7ecd-4e0a-a257-46e73ea03c9a" cx="16.01" cy="107.5" r="0.5"/><circle class="42a2a386-7ecd-4e0a-a257-46e73ea03c9a" cx="16.01" cy="110.5" r="0.5"/><path class="42a2a386-7ecd-4e0a-a257-46e73ea03c9a" d="M16,119a3.61,3.61,0,1,0,3.45,3A3.49,3.49,0,0,0,16,119Zm0,6a2.5,2.5,0,1,1,2.5-2.5A2.5,2.5,0,0,1,16,125Z"/><circle class="42a2a386-7ecd-4e0a-a257-46e73ea03c9a" cx="16.01" cy="113.5" r="0.5"/><circle class="42a2a386-7ecd-4e0a-a257-46e73ea03c9a" cx="16.01" cy="116.5" r="0.5"/><path class="964c4cef-22d7-43ff-9919-9d561cd3ba61" d="M43.68,17.56a0.52,0.52,0,0,0-.39.18l-2.08,2.41V18.07a0.52,0.52,0,0,0-.52-0.52h-1a0.87,0.87,0,0,1-.87-0.87V9.14a0.87,0.87,0,0,1,.87-0.87H52.42a0.87,0.87,0,0,1,.87.87v7.55a0.87,0.87,0,0,1-.87.87H43.68Zm10.64-.87V9.14a1.9,1.9,0,0,0-1.9-1.9H39.64a1.9,1.9,0,0,0-1.9,1.9v7.55a1.9,1.9,0,0,0,1.9,1.9h0.54v2.28a0.76,0.76,0,0,0,1.34.5l2.4-2.78h8.51A1.89,1.89,0,0,0,54.32,16.69Z"/><g class="647c158f-e576-4727-8046-0d3449f0cf3a"><rect class="42a2a386-7ecd-4e0a-a257-46e73ea03c9a" x="32.75" y="2.24" width="26.57" height="24.38"/></g><path class="964c4cef-22d7-43ff-9919-9d561cd3ba61" d="M54.53,24.47a0.75,0.75,0,0,0,.57.26,0.76,0.76,0,0,0,.27-0.05,0.75,0.75,0,0,0,.5-0.71V21.69H56.4a1.9,1.9,0,0,0,1.9-1.9V12.25a1.9,1.9,0,0,0-1.9-1.9,0.51,0.51,0,1,0,0,1,0.87,0.87,0,0,1,.87.87V19.8a0.87,0.87,0,0,1-.87.87H55.35a0.52,0.52,0,0,0-.52.52v2.07l-2.08-2.41a0.51,0.51,0,0,0-.39-0.18H44.63a0.52,0.52,0,0,0,0,1h7.49Z"/><g class="90ca8be2-a2b8-4170-bec0-ff4f583f3806"><rect class="42a2a386-7ecd-4e0a-a257-46e73ea03c9a" x="39.12" y="5.35" width="24.18" height="24.38"/></g><circle class="42a2a386-7ecd-4e0a-a257-46e73ea03c9a" cx="46.03" cy="13.09" r="0.61"/><g class="56009d88-7fc4-4c61-b09c-66d3ed400052"><rect class="42a2a386-7ecd-4e0a-a257-46e73ea03c9a" x="40.42" y="7.48" width="11.23" height="11.23"/></g><circle class="42a2a386-7ecd-4e0a-a257-46e73ea03c9a" cx="48.09" cy="13.09" r="0.61"/><g class="5cb6b6b5-7c25-494e-9643-c9fdcc7fdbaa"><rect class="42a2a386-7ecd-4e0a-a257-46e73ea03c9a" x="42.47" y="7.48" width="11.23" height="11.23"/></g><circle class="42a2a386-7ecd-4e0a-a257-46e73ea03c9a" cx="43.98" cy="13.09" r="0.61"/><g class="6edbbd53-f333-422a-b88e-412db824f4ae"><rect class="42a2a386-7ecd-4e0a-a257-46e73ea03c9a" x="38.37" y="7.48" width="11.23" height="11.23"/></g><g class="70110070-e788-4740-94f7-b759ad10130b"><path class="c8c1d437-eeb9-4a14-8ebe-0396bffa5ecc" d="M23.76,44.32h-2.6l-2.79-2.81a0.73,0.73,0,0,0-.51-0.21H14.15a0.73,0.73,0,0,0-.51.21l-2.79,2.81H8.24a0.72,0.72,0,0,0-.72.72V54a0.72,0.72,0,0,0,.72.72H23.76A0.72,0.72,0,0,0,24.49,54V45A0.72,0.72,0,0,0,23.76,44.32Z"/></g><path class="b3bb3b29-b406-4cd5-8bd5-78b89fb04bb1" d="M16.47,45.32L16,45.3a3.5,3.5,0,0,0-.45,7l0.45,0a3.5,3.5,0,0,0,.45-7"/><g class="edd8483e-5a87-4c92-ba4f-a4fbed15ca35"><rect class="32243fd4-651a-4797-8054-6797ec085cff" x="33.37" y="40.87" width="21.92" height="21.1"/></g><g class="ccf093e0-f58c-4410-a440-25f9b046347b"><rect class="32243fd4-651a-4797-8054-6797ec085cff" x="40.72" y="34.03" width="21.91" height="21.1"/></g><g class="66b4489c-f981-4079-8a74-8ec8a070cc5a"><circle class="723be2c4-5cce-4e3d-ac65-49408a16590e" cx="80" cy="45.11" r="1.64"/></g><g class="22fbbf70-6342-49bf-9d7b-fde5f65ddaa4"><path class="723be2c4-5cce-4e3d-ac65-49408a16590e" d="M84.38,40.73a6.28,6.28,0,0,0-8.88,0,7.15,7.15,0,0,0-.59,8.82l5,7.26,5-7.25A7.15,7.15,0,0,0,84.38,40.73Z"/></g><g class="393d64ad-0ef2-4997-b044-857a0e3d80a2"><rect class="42a2a386-7ecd-4e0a-a257-46e73ea03c9a" x="39.5" y="423.49" width="17" height="17"/></g><g class="e57b95d2-6072-442e-9a20-bfb491d61284"><rect class="42a2a386-7ecd-4e0a-a257-46e73ea03c9a" x="31" y="414.99" width="34" height="34"/></g><path class="d6e9b3aa-d20d-461e-9bb8-a19681065669" d="M39.32,410.24A10.75,10.75,0,0,0,47,406.69c3.06-3.6,1.81-8.72,4.61-12.82s4.86-3.81,4.86-3.81"/><g class="71276c83-6c2c-4a44-b8a2-3b2231661942"><g class="5301aef4-f291-40dc-ab2d-c6edfab90a40"><circle class="630b3244-5f48-466d-b27d-204ce1d6123e" cx="56.25" cy="389.88" r="1.88"/></g></g><g class="5301aef4-f291-40dc-ab2d-c6edfab90a40"><circle class="0da9da62-85ba-4b56-a248-49a80fcde14c" cx="56.25" cy="389.88" r="1.88"/></g><g class="9f1c2b9e-faca-4552-81b8-b1964f56591a"><g class="9bfed1f7-65ef-477c-a8d7-26af330e2fe3"><circle class="630b3244-5f48-466d-b27d-204ce1d6123e" cx="39.75" cy="410.13" r="1.88"/></g></g><g class="9bfed1f7-65ef-477c-a8d7-26af330e2fe3"><circle class="0da9da62-85ba-4b56-a248-49a80fcde14c" cx="39.75" cy="410.13" r="1.88"/></g><g class="39850eb9-d4b8-4fdf-8965-4f452c41b691"><g class="16eba7d6-499a-464f-930e-0e1bd1141394"><g class="db8c3282-461d-4368-a59a-66d26e8ff8ef"><g class="16eba7d6-499a-464f-930e-0e1bd1141394"><rect class="42a2a386-7ecd-4e0a-a257-46e73ea03c9a" x="30.13" y="446.11" width="35.44" height="35.44"/></g></g></g></g><path class="e8de1dc7-9186-44b3-941e-7859be1b1dbd" d="M24.27,21.25l-3.06-1.33h1.71a3.8,3.8,0,0,0,1.66-.23A1.1,1.1,0,0,0,25,18a10.5,10.5,0,0,1-2-5.26s-0.15-4-4.08-4.06A4.72,4.72,0,0,0,17.5,9,2.83,2.83,0,0,0,17,8.26a4.19,4.19,0,0,0-3.3-1.19,4.19,4.19,0,0,0-3.3,1.19,3,3,0,0,0-.71,2.2v1.66a1.43,1.43,0,0,0-.32.9v1.29a1.42,1.42,0,0,0,.5,1.08A6.87,6.87,0,0,0,11,17.67v1a0.7,0.7,0,0,1-.36.61L7.8,20.86a3,3,0,0,0-1.59,2.68v1.51H25.79V23.71A2.74,2.74,0,0,0,24.27,21.25Zm-4.66-.37-2.09-1a0.7,0.7,0,0,0,0-.37A0.7,0.7,0,0,0,16.83,19H16.21v0l0-.07a0.69,0.69,0,0,1,0-.18v-1l0.2-.27a7.5,7.5,0,0,0,.95-1.84,1.43,1.43,0,0,0,.78-1.27V13a1.43,1.43,0,0,0-.32-0.9V10.47a2.82,2.82,0,0,0,0-.61A3.77,3.77,0,0,1,19,9.67a3.11,3.11,0,0,1,3.13,3.14,11.44,11.44,0,0,0,2.19,5.78,0.16,0.16,0,0,1,0,.14,0.15,0.15,0,0,1-.09.1A2.88,2.88,0,0,1,23,19H20.75a0.74,0.74,0,0,0-.67,1.07,1.47,1.47,0,0,0,.65.69l3.12,1.35a1.81,1.81,0,0,1,1,1.62v0.39H21.29V23.6A3,3,0,0,0,19.61,20.88ZM12,18.68V17.34l-0.11-.13A6,6,0,0,1,10.8,15l0-.19-0.16-.1a0.49,0.49,0,0,1-.23-0.41V13a0.48,0.48,0,0,1,.17-0.36l0.16-.14V10.38a2.08,2.08,0,0,1,.48-1.5A3.32,3.32,0,0,1,13.75,8a3.32,3.32,0,0,1,2.58.86,1.92,1.92,0,0,1,.43.85l0,0.24s0,0.07,0,.12v0.18c0,0.06,0,.1,0,0.12v2.11L17,12.65a0.48,0.48,0,0,1,.17.36v1.29a0.49,0.49,0,0,1-.35.47l-0.23.07-0.08.23a6.56,6.56,0,0,1-.89,1.8,3.82,3.82,0,0,1-.26.33l-0.12.13v1.38a1.62,1.62,0,0,0,0,.26V19a1.65,1.65,0,0,0,.06.21l0,0a2,2,0,0,0,.11.24,1.7,1.7,0,0,0,.18.25l0.13,0.15h0a1.63,1.63,0,0,0,.37.26l3.07,1.54a2.1,2.1,0,0,1,1.16,1.88v0.51H7.15V23.54a2.11,2.11,0,0,1,1.1-1.85l2.87-1.56A1.64,1.64,0,0,0,12,18.68Z"/><path class="bc5452b5-5c80-40e9-ab6f-a6362bef1021" d="M76.59,153.5a1,1,0,0,1-.43-0.1,8.08,8.08,0,0,1-4.58-7.28A8.41,8.41,0,0,1,80,137.78h0.38l0,0.06h0.2v-0.06H80.57v-2.35a0.92,0.92,0,0,1,1.58-.65l6,6a0.91,0.91,0,0,1,0,1.31l-6,6a0.92,0.92,0,0,1-1.58-.65v-2.54l-0.29,0H80.07a4.47,4.47,0,0,0-3.83,4.38,4.05,4.05,0,0,0,1,2.68,0.94,0.94,0,0,1,0,1.19A0.9,0.9,0,0,1,76.59,153.5Zm3.09-14.71a7.4,7.4,0,0,0-7.1,7.33,7.06,7.06,0,0,0,3.72,6.22,4.92,4.92,0,0,1-1.06-3.05A5.48,5.48,0,0,1,80,143.91h0.24a3.62,3.62,0,0,1,.93,0l0.4,0.08v3.25l5.82-5.82-5.82-5.82v1.29l0.21,0-0.27,1.91H79.7Z"/><g class="7e357ecf-adda-48de-b50b-db603d38dc79"><path class="4861ae59-7281-42e7-9223-806447430147" d="M10.65,151.55a0,0,0,0,1,0,0h-3a0,0,0,0,1,0,0v-8.73a0,0,0,0,1,0,0h3a0,0,0,0,1,0,0v8.73h0Zm13.74-9.92a2.56,2.56,0,0,0-1.65-.62h-4v-2.9a3,3,0,0,0-1.06-2.61,3.32,3.32,0,0,0-2.71-.33,0.46,0.46,0,0,0-.32.44v3.24a3.2,3.2,0,0,1-1.5,2.67,5.93,5.93,0,0,1-1.59.79l-0.11,0a0.94,0.94,0,0,0-.81-0.47h-3a1,1,0,0,0-.94.94v8.73a1,1,0,0,0,.94.94h3a1,1,0,0,0,.73-0.34,2.6,2.6,0,0,0,1.89.83h7.94a2.78,2.78,0,0,0,3.07-2.52l1-6.38A2.69,2.69,0,0,0,24.39,141.63Z"/></g><g class="3e065177-3852-49ea-976f-9b1bfe68cd07"><rect class="32243fd4-651a-4797-8054-6797ec085cff" x="33.68" y="130" width="28.65" height="28"/></g><g class="92760770-bbb9-434f-9559-33ca9d14cb8c"><path class="12bdbf83-d01b-432c-8730-2d247ba1c300" d="M43,116.54H40.11A1.11,1.11,0,0,1,39,115.43v-9.68a1.11,1.11,0,0,1,1.11-1.11H55.89A1.11,1.11,0,0,1,57,105.75v9.68a1.11,1.11,0,0,1-1.11,1.11H45.81L43,119.36v-2.82Z"/></g><g class="f018a629-179b-40d1-96e5-9b77757d3342"><path class="0da9da62-85ba-4b56-a248-49a80fcde14c" d="M75.08,116.54H72.2a1.11,1.11,0,0,1-1.11-1.11v-9.68a1.11,1.11,0,0,1,1.11-1.11H88a1.11,1.11,0,0,1,1.11,1.11v9.68A1.11,1.11,0,0,1,88,116.54H77.9l-2.82,2.82v-2.82Z"/></g><g class="0a11ef40-40a1-4403-9126-d383d5cd74bc"><g class="3c84df61-dd25-4c75-8f6d-ff38cb7352d1"><rect class="b1c2240f-592f-4ad3-abde-8efd8ca7b4ed" x="28" y="546.48" width="40" height="27.06"/></g></g><g class="9680037b-8035-4edd-bbf0-d04cbc599de6"><g class="0771c272-cfdf-4321-a741-7d5149bb2962"><rect class="197a895b-f0a8-40eb-9aae-4e632cfc6579" x="5.37" y="543" width="21.25" height="34"/></g></g><g class="4267fb07-7b95-4261-bb04-024d64d52291"><g class="24c68a4c-4f40-451e-a175-d8a613893987"><rect class="778b7c27-325c-4181-956b-3ef1eae86223" x="63.04" y="543.02" width="34" height="34"/></g></g></svg>