<svg id="11c159e2-0faa-4857-a4f9-7899908a1dbf" data-name="Layer 1" xmlns="http://www.w3.org/2000/svg" viewBox="0 0 26 156"><defs><style>.\32 dcad7e8-438b-4408-a6b8-8df29084f24d{fill:none;}.f4b3fd7d-03f0-4042-bb11-7bda89cc2b0b{fill:#191919;}</style></defs><title>sidebar-nav</title><path class="2dcad7e8-438b-4408-a6b8-8df29084f24d" d="M14.4,136.8a1.4,1.4,0,0,0-2.8,0H11.5v1.4h2.9v-1.4Z"/><path class="2dcad7e8-438b-4408-a6b8-8df29084f24d" d="M15.6,139.5V143a0.6,0.6,0,1,1-1.2,0v-3.5H11.5V143a0.6,0.6,0,1,1-1.2,0v-3.5h-3L5.4,150.7H20.5l-1.9-11.2h-3Z"/><path class="f4b3fd7d-03f0-4042-bb11-7bda89cc2b0b" d="M20.3,91.5v-1a1.61,1.61,0,0,0,.3-0.9V88a2,2,0,0,0-2-2H18.3a2,2,0,0,0-2,2v1.6a1.15,1.15,0,0,0,.6,1.1,0.58,0.58,0,1,0,.6-1c-0.1,0-.1,0-0.1-0.1V88a0.9,0.9,0,0,1,.9-0.9h0.3a0.9,0.9,0,0,1,.9.9v1.6l-0.1.1a0.55,0.55,0,0,0-.3.5v1.5a0.68,0.68,0,0,0,.4.6,9.79,9.79,0,0,1,2.2,1.4,0.2,0.2,0,0,1,.1.2v2.9H18.3V93.6a1.43,1.43,0,0,0-.6-1.2,21.61,21.61,0,0,0-2.6-1.7V89.4a1.28,1.28,0,0,0,.4-1v-2a2.26,2.26,0,0,0-2.3-2.3H12.8a2.26,2.26,0,0,0-2.3,2.3v2a1.28,1.28,0,0,0,.4,1v1.3a13.66,13.66,0,0,0-2.6,1.7,1.43,1.43,0,0,0-.6,1.2v3.2H4.1V93.9a0.35,0.35,0,0,1,.1-0.2,12.82,12.82,0,0,1,2.2-1.4,0.62,0.62,0,0,0,.4-0.6V90.2a0.55,0.55,0,0,0-.3-0.5c-0.1,0-.1,0-0.1-0.1V88a0.9,0.9,0,0,1,.9-0.9H7.6a0.9,0.9,0,0,1,.9.9v1.6l-0.1.1a0.58,0.58,0,1,0,.6,1,1.38,1.38,0,0,0,.6-1.1V88a2,2,0,0,0-2-2H7.3a2,2,0,0,0-2,2v1.6a1.22,1.22,0,0,0,.3.9v1a10.62,10.62,0,0,0-2.1,1.4,1.23,1.23,0,0,0-.5,1v3.5a0.65,0.65,0,0,0,.6.6H8.2a0.65,0.65,0,0,0,.6-0.6V93.6a0.37,0.37,0,0,1,.1-0.3,21.46,21.46,0,0,1,2.7-1.7A0.62,0.62,0,0,0,12,91V89.1a0.55,0.55,0,0,0-.3-0.5c0-.1-0.1-0.2-0.1-0.3v-2a1.16,1.16,0,0,1,1.2-1.2h0.4a1.16,1.16,0,0,1,1.2,1.2v2a0.37,0.37,0,0,1-.1.3,0.55,0.55,0,0,0-.3.5V91a0.68,0.68,0,0,0,.4.6A9.64,9.64,0,0,1,16.7,93a0.53,0.53,0,0,1,.2.3c0,0.1.1,0.2,0.1,0.3v3.2H10.5a0.6,0.6,0,1,0,0,1.2H22.3a0.65,0.65,0,0,0,.6-0.6V93.9a1.39,1.39,0,0,0-.5-1A10.62,10.62,0,0,0,20.3,91.5Z"/><path class="f4b3fd7d-03f0-4042-bb11-7bda89cc2b0b" d="M19.3,138.2H15.8v-1.4a2.7,2.7,0,0,0-5.4,0v1.4H6.8a0.56,0.56,0,0,0-.6.5L4.1,151.2a0.75,0.75,0,0,0,.1.5,0.76,0.76,0,0,0,.5.2H21.3a0.58,0.58,0,0,0,.6-0.6v-0.2l-2-12.4A0.56,0.56,0,0,0,19.3,138.2Zm-7.8-1.4h0a1.52,1.52,0,0,1,1.5-1.4,1.37,1.37,0,0,1,1.4,1.4v1.4H11.5v-1.4ZM5.4,150.7l1.9-11.2h3V143a0.6,0.6,0,1,0,1.2,0v-3.5h2.9V143a0.6,0.6,0,1,0,1.2,0v-3.5h3l1.9,11.2H5.4Z"/><path class="f4b3fd7d-03f0-4042-bb11-7bda89cc2b0b" d="M13.38,35.65h5.57l1.78-1.83L18.94,32H13.38V30.1h-1V32H5.44v3.62h6.93v1.46H7.16L5.38,38.9l1.78,1.83h5.22V48.1h1V40.73h7.28V37.11H13.38V35.65Zm-6.93-1V33H18.53l0.79,0.8-0.8.82H6.44Zm13.21,3.46v1.62H7.58l-0.8-.82,0.79-.8H19.66Z"/><path class="f4b3fd7d-03f0-4042-bb11-7bda89cc2b0b" d="M16,57.82l-5.89-2.07L3,58.25V74.66l7.06-2.49,5.88,2.07L23,71.75V55.34ZM22,71l-5.62,2V70.44H15.63v2.63l-5.57-2-0.45.16-5.6,2V59l5.63-2v2.48h0.75V56.93l5.57,2L22,56.75V71Z"/><path class="f4b3fd7d-03f0-4042-bb11-7bda89cc2b0b" d="M18.79,64.13a0.19,0.19,0,0,0-.19.19v0.93l-0.81.25a0.19,0.19,0,0,0,.06.38H17.9L19,65.53V64.33A0.19,0.19,0,0,0,18.79,64.13Z"/><path class="f4b3fd7d-03f0-4042-bb11-7bda89cc2b0b" d="M13.89,65.24l-1.8-.8-0.18-.08a0.19,0.19,0,0,0-.23.08l0,0a0.19,0.19,0,0,0,.1.25l2,0.87,0.08,0A0.19,0.19,0,0,0,14,65.5a0.17,0.17,0,0,0,0-.05A0.18,0.18,0,0,0,13.89,65.24Z"/><path class="f4b3fd7d-03f0-4042-bb11-7bda89cc2b0b" d="M14.88,65.68a0.19,0.19,0,1,0-.16.35l1.11,0.49,1-.33a0.19,0.19,0,1,0-.12-0.37l-0.9.28Z"/><path class="f4b3fd7d-03f0-4042-bb11-7bda89cc2b0b" d="M10,63.53L8.78,64a0.19,0.19,0,0,0,.07.37H8.92l1.1-.41,0.76,0.34a0.19,0.19,0,1,0,.16-0.35Z"/><path class="f4b3fd7d-03f0-4042-bb11-7bda89cc2b0b" d="M18.63,63.82a1.62,1.62,0,0,0,.51-3.16l-0.14,0A1.62,1.62,0,1,0,18.63,63.82Zm0-2.25a0.63,0.63,0,0,1,0,1.25A0.63,0.63,0,0,1,18.63,61.57Z"/><path class="f4b3fd7d-03f0-4042-bb11-7bda89cc2b0b" d="M6.95,66.35a0.19,0.19,0,0,0,.15-0.18V65l0.81-.3A0.19,0.19,0,0,0,8,64.48a0.17,0.17,0,0,0,0,0,0.18,0.18,0,0,0-.21-0.08l-1.06.39v1.41a0.18,0.18,0,0,0,.12.16H6.65a1.61,1.61,0,0,0-.68,3,1.6,1.6,0,0,0,.68.2h0.1a1.65,1.65,0,0,0,1.62-1.62A1.62,1.62,0,0,0,6.95,66.35Zm-0.2,2.23-0.1,0a0.61,0.61,0,0,1,0-1.21l0.1,0A0.63,0.63,0,0,1,6.74,68.57Z"/><path class="f4b3fd7d-03f0-4042-bb11-7bda89cc2b0b" d="M14.67,126.15H11.33a1.56,1.56,0,0,1-1.56-1.56v-1.28Q9.47,123.16,9.2,123l-1.11.64A1.6,1.6,0,0,1,6,123l-1.67-2.9A1.56,1.56,0,0,1,4.85,118L6,117.37a7,7,0,0,1,0-.84l-1.1-.68a1.56,1.56,0,0,1-.51-2.15l1.75-2.85a1.59,1.59,0,0,1,2.15-.51L9.37,111l0.4-.22v-1.29a1.56,1.56,0,0,1,1.56-1.56h3.34a1.56,1.56,0,0,1,1.56,1.56v1.29q0.29,0.15.56,0.33l1.12-.64a1.6,1.6,0,0,1,2.13.57l1.67,2.9a1.57,1.57,0,0,1-.57,2.13l-1.12.64a7,7,0,0,1,0,.84l1.1,0.67a1.56,1.56,0,0,1,.51,2.15l-1.75,2.85a1.6,1.6,0,0,1-2.15.51l-1.09-.67-0.4.23v1.28A1.56,1.56,0,0,1,14.67,126.15ZM9.2,121.94a0.84,0.84,0,0,1,.47.15,6.12,6.12,0,0,0,.64.37,0.81,0.81,0,0,1,.46.72v1.41a0.56,0.56,0,0,0,.56.56h3.34a0.56,0.56,0,0,0,.56-0.56v-1.38a0.87,0.87,0,0,1,.49-0.77l0.44-.25a0.86,0.86,0,0,1,.92,0l1.17,0.72a0.58,0.58,0,0,0,.77-0.18l1.75-2.85a0.56,0.56,0,0,0-.18-0.77l-1.21-.74a0.81,0.81,0,0,1-.37-0.77,6.21,6.21,0,0,0,0-.89,0.81,0.81,0,0,1,.39-0.76l1.23-.71a0.56,0.56,0,0,0,.21-0.77l-1.67-2.9a0.58,0.58,0,0,0-.77-0.21l-1.23.71a0.8,0.8,0,0,1-.86,0,6.3,6.3,0,0,0-.63-0.37,0.81,0.81,0,0,1-.46-0.72v-1.41a0.56,0.56,0,0,0-.56-0.56H11.33a0.56,0.56,0,0,0-.56.56v1.38a0.86,0.86,0,0,1-.48.76l-0.44.25a0.87,0.87,0,0,1-.91,0l-1.18-.73a0.57,0.57,0,0,0-.77.18l-1.75,2.85a0.56,0.56,0,0,0,.18.77l1.21,0.74a0.81,0.81,0,0,1,.37.77,6,6,0,0,0,0,.89,0.81,0.81,0,0,1-.39.76l-1.23.71a0.56,0.56,0,0,0-.21.77l1.67,2.9a0.58,0.58,0,0,0,.77.21l1.22-.7A0.79,0.79,0,0,1,9.2,121.94Zm0.66,1.41h0ZM20,117.67h0ZM6,116.43H6Zm10.7-5.24h0Zm0.19,0h0Z"/><path class="f4b3fd7d-03f0-4042-bb11-7bda89cc2b0b" d="M13,120.2a3.52,3.52,0,0,1-1.58-.39,2.66,2.66,0,0,1-1.18-1.18,3.19,3.19,0,0,1,4.34-4.34,2.65,2.65,0,0,1,1.18,1.18,3.26,3.26,0,0,1-.08,3.23h0A3.13,3.13,0,0,1,13,120.2Zm0-5.3a2.14,2.14,0,0,0-1.83,1,2.28,2.28,0,0,0,0,2.26,1.65,1.65,0,0,0,.73.73,2.23,2.23,0,0,0,3-.74h0a2.28,2.28,0,0,0,0-2.26,1.65,1.65,0,0,0-.73-0.73A2.51,2.51,0,0,0,13,114.9Z"/><rect class="f4b3fd7d-03f0-4042-bb11-7bda89cc2b0b" x="9.05" y="19.5" width="13" height="1"/><polygon class="f4b3fd7d-03f0-4042-bb11-7bda89cc2b0b" points="9.05 13.5 11.11 13.5 22.05 13.5 22.05 12.5 9.05 12.5 9.05 13.5"/><rect class="f4b3fd7d-03f0-4042-bb11-7bda89cc2b0b" x="9.05" y="5.5" width="13" height="1"/><path class="f4b3fd7d-03f0-4042-bb11-7bda89cc2b0b" d="M7,14.5v-3H4v3H7Zm-2-2H6v1H5v-1Z"/><path class="f4b3fd7d-03f0-4042-bb11-7bda89cc2b0b" d="M7,7.5v-3H4v3H7Zm-2-2H6v1H5v-1Z"/><path class="f4b3fd7d-03f0-4042-bb11-7bda89cc2b0b" d="M7,21.5v-3H4v3H7Zm-2-2H6v1H5v-1Z"/></svg>